Marhey-ExtraBold.ufo
<glyph name="ampersand" format="2">
	<advance width="717"/>
	<unicode hex="0026"/>
	<outline>
		<contour>
			<point x="640" y="0" type="curve"/>
			<point x="690" y="288" type="line"/>
			<point x="504" y="400"/>
			<point x="297" y="538"/>
			<point x="297" y="629" type="curve" smooth="yes"/>
			<point x="297" y="649"/>
			<point x="308" y="674"/>
			<point x="345" y="674" type="curve" smooth="yes"/>
			<point x="382" y="674"/>
			<point x="440" y="629"/>
			<point x="524" y="542" type="curve"/>
			<point x="561" y="715" type="line"/>
			<point x="458" y="750"/>
			<point x="374" y="761"/>
			<point x="284" y="761" type="curve" smooth="yes"/>
			<point x="166" y="761"/>
			<point x="100" y="706"/>
			<point x="100" y="621" type="curve" smooth="yes"/>
			<point x="100" y="424"/>
			<point x="394" y="141"/>
		</contour>
		<contour>
			<point x="246" y="-21" type="curve" smooth="yes"/>
			<point x="368" y="-21"/>
			<point x="505" y="32"/>
			<point x="648" y="223" type="curve"/>
			<point x="571" y="308" type="line"/>
			<point x="467" y="182"/>
			<point x="414" y="141"/>
			<point x="356" y="140" type="curve" smooth="yes"/>
			<point x="308" y="139"/>
			<point x="259" y="166"/>
			<point x="259" y="223" type="curve" smooth="yes"/>
			<point x="259" y="258"/>
			<point x="267" y="300"/>
			<point x="330" y="352" type="curve"/>
			<point x="214" y="450" type="line"/>
			<point x="80" y="335"/>
			<point x="32" y="261"/>
			<point x="32" y="156" type="curve" smooth="yes"/>
			<point x="32" y="66"/>
			<point x="104" y="-21"/>
		</contour>
	</outline>
</glyph>
<glyph name="quotesingle" format="2">
	<advance width="244"/>
	<unicode hex="0027"/>
	<outline>
		<contour>
			<point x="53" y="461" type="line"/>
			<point x="176" y="472" type="line"/>
			<point x="204" y="746" type="line"/>
			<point x="40" y="729" type="line"/>
		</contour>
	</outline>
</glyph>
<glyph name="asterisk" format="2">
	<advance width="529"/>
	<unicode hex="002A"/>
	<outline>
		<contour>
			<point x="238" y="540" type="curve"/>
			<point x="309" y="551" type="line"/>
			<point x="319" y="635"/>
			<point x="333" y="686"/>
			<point x="372" y="749" type="curve"/>
			<point x="222" y="783" type="line"/>
			<point x="214" y="694"/>
			<point x="218" y="629"/>
		</contour>
		<contour>
			<point x="256" y="580" type="curve"/>
			<point x="289" y="516" type="line"/>
			<point x="372" y="533"/>
			<point x="425" y="535"/>
			<point x="497" y="517" type="curve"/>
			<point x="483" y="671" type="line"/>
			<point x="395" y="651"/>
			<point x="335" y="627"/>
		</contour>
		<contour>
			<point x="308" y="580" type="curve"/>
			<point x="257" y="529" type="line"/>
			<point x="299" y="456"/>
			<point x="318" y="406"/>
			<point x="323" y="332" type="curve"/>
			<point x="465" y="393" type="line"/>
			<point x="419" y="470"/>
			<point x="377" y="520"/>
		</contour>
		<contour>
			<point x="309" y="528" type="curve"/>
			<point x="245" y="560" type="line"/>
			<point x="187" y="498"/>
			<point x="146" y="465"/>
			<point x="77" y="437" type="curve"/>
			<point x="179" y="321" type="line"/>
			<point x="238" y="389"/>
			<point x="273" y="444"/>
		</contour>
		<contour>
			<point x="269" y="513" type="curve"/>
			<point x="279" y="583" type="line"/>
			<point x="202" y="619"/>
			<point x="158" y="648"/>
			<point x="110" y="705" type="curve"/>
			<point x="32" y="572" type="line"/>
			<point x="115" y="537"/>
			<point x="178" y="521"/>
		</contour>
	</outline>
</glyph>
<glyph name="hyphen" format="2">
	<advance width="440"/>
	<unicode hex="002D"/>
	<outline>
		<contour>
			<point x="413" y="188" type="curve"/>
			<point x="410" y="383" type="line"/>
			<point x="283" y="386"/>
			<point x="155" y="379"/>
			<point x="28" y="362" type="curve"/>
			<point x="27" y="212" type="line"/>
			<point x="156" y="214"/>
			<point x="284" y="206"/>
		</contour>
	</outline>
</glyph>
<glyph name="period" format="2">
	<advance width="276"/>
	<unicode hex="002E"/>
	<outline>
		<contour>
			<point x="47" y="-5" type="curve"/>
			<point x="234" y="3" type="line"/>
			<point x="229" y="62"/>
			<point x="227" y="129"/>
			<point x="236" y="193" type="curve"/>
			<point x="45" y="193" type="line"/>
			<point x="39" y="136"/>
			<point x="38" y="55"/>
		</contour>
	</outline>
</glyph>
<glyph name="slash" format="2">
	<advance width="562"/>
	<unicode hex="002F"/>
	<outline>
		<contour>
			<point x="116" y="-38" type="line"/>
			<point x="535" y="791" type="line"/>
			<point x="427" y="869" type="line"/>
			<point x="27" y="41" type="line"/>
		</contour>
	</outline>
</glyph>
<glyph name="zero" format="2">
	<advance width="714"/>
	<unicode hex="0030"/>
	<guideline x="-28" y="502" angle="0"/>
	<guideline x="-30" y="148" angle="0"/>
	<outline>
		<contour>
			<point x="354" y="-13" type="curve" smooth="yes"/>
			<point x="513" y="-13"/>
			<point x="682" y="108"/>
			<point x="682" y="347" type="curve" smooth="yes"/>
			<point x="682" y="586"/>
			<point x="514" y="708"/>
			<point x="357" y="708" type="curve" smooth="yes"/>
			<point x="199" y="708"/>
			<point x="32" y="587"/>
			<point x="32" y="343" type="curve" smooth="yes"/>
			<point x="32" y="105"/>
			<point x="198" y="-13"/>
		</contour>
		<contour>
			<point x="352" y="176" type="curve" smooth="yes"/>
			<point x="299" y="176"/>
			<point x="270" y="244"/>
			<point x="270" y="391" type="curve" smooth="yes"/>
			<point x="270" y="533"/>
			<point x="299" y="601"/>
			<point x="354" y="601" type="curve" smooth="yes"/>
			<point x="410" y="601"/>
			<point x="443" y="529"/>
			<point x="443" y="393" type="curve" smooth="yes"/>
			<point x="443" y="253"/>
			<point x="406" y="176"/>
		</contour>
	</outline>
</glyph>
<glyph name="one" format="2">
	<advance width="575"/>
	<unicode hex="0031"/>
	<guideline x="174" y="502" angle="0"/>
	<guideline x="172" y="148" angle="0"/>
	<outline>
		<contour>
			<point x="222" y="2" type="curve"/>
			<point x="376" y="38" type="line"/>
			<point x="419" y="328"/>
			<point x="435" y="520"/>
			<point x="432" y="767" type="curve"/>
			<point x="262" y="742" type="line"/>
			<point x="168" y="599" type="line"/>
			<point x="184" y="419"/>
			<point x="223" y="8"/>
		</contour>
		<contour>
			<point x="511" y="-39" type="curve"/>
			<point x="548" y="201" type="line"/>
			<point x="396" y="212"/>
			<point x="236" y="215"/>
			<point x="27" y="110" type="curve"/>
			<point x="39" y="-12" type="line"/>
			<point x="174" y="9"/>
			<point x="356" y="3"/>
		</contour>
		<contour>
			<point x="70" y="408" type="line"/>
			<point x="347" y="682" type="line"/>
			<point x="262" y="742" type="line"/>
			<point x="32" y="599" type="line"/>
		</contour>
	</outline>
</glyph>
<glyph name="two" format="2">
	<advance width="694"/>
	<unicode hex="0032"/>
	<outline>
		<contour>
			<point x="27" y="110" type="curve"/>
			<point x="159" y="93" type="line"/>
			<point x="525" y="337"/>
			<point x="637" y="391"/>
			<point x="637" y="507" type="curve" smooth="yes"/>
			<point x="637" y="660"/>
			<point x="492" y="709"/>
			<point x="325" y="709" type="curve" smooth="yes"/>
			<point x="235" y="709"/>
			<point x="167" y="691"/>
			<point x="77" y="667" type="curve"/>
			<point x="105" y="442" type="line"/>
			<point x="166" y="497"/>
			<point x="220" y="546"/>
			<point x="296" y="546" type="curve" smooth="yes"/>
			<point x="353" y="546"/>
			<point x="378" y="522"/>
			<point x="378" y="484" type="curve" smooth="yes"/>
			<point x="378" y="388"/>
			<point x="223" y="250"/>
		</contour>
		<contour>
			<point x="623" y="-39" type="curve"/>
			<point x="667" y="201" type="line"/>
			<point x="474" y="213"/>
			<point x="268" y="210"/>
			<point x="27" y="110" type="curve"/>
			<point x="41" y="-12" type="line"/>
			<point x="188" y="7"/>
			<point x="420" y="7"/>
		</contour>
	</outline>
</glyph>
<glyph name="three" format="2">
	<advance width="669"/>
	<unicode hex="0033"/>
	<outline>
		<contour>
			<point x="104" y="394" type="curve"/>
			<point x="133" y="245" type="line"/>
			<point x="397" y="300"/>
			<point x="556" y="425"/>
			<point x="556" y="538" type="curve" smooth="yes"/>
			<point x="556" y="636"/>
			<point x="469" y="709"/>
			<point x="325" y="709" type="curve" smooth="yes"/>
			<point x="225" y="709"/>
			<point x="117" y="693"/>
			<point x="27" y="671" type="curve"/>
			<point x="55" y="472" type="line"/>
			<point x="120" y="524"/>
			<point x="222" y="556"/>
			<point x="300" y="556" type="curve" smooth="yes"/>
			<point x="368" y="556"/>
			<point x="379" y="527"/>
			<point x="379" y="507" type="curve" smooth="yes"/>
			<point x="379" y="467"/>
			<point x="275" y="414"/>
		</contour>
		<contour>
			<point x="234" y="-18" type="curve" smooth="yes"/>
			<point x="507" y="-18"/>
			<point x="637" y="82"/>
			<point x="637" y="196" type="curve" smooth="yes"/>
			<point x="637" y="288"/>
			<point x="558" y="371"/>
			<point x="397" y="371" type="curve" smooth="yes"/>
			<point x="352" y="371"/>
			<point x="301" y="366"/>
			<point x="243" y="353" type="curve"/>
			<point x="133" y="246" type="line"/>
			<point x="155" y="251"/>
			<point x="194" y="256"/>
			<point x="233" y="256" type="curve" smooth="yes"/>
			<point x="323" y="256"/>
			<point x="368" y="224"/>
			<point x="368" y="193" type="curve" smooth="yes"/>
			<point x="368" y="161"/>
			<point x="322" y="129"/>
			<point x="230" y="129" type="curve" smooth="yes"/>
			<point x="195" y="129"/>
			<point x="132" y="141"/>
			<point x="43" y="174" type="curve"/>
			<point x="27" y="8" type="line"/>
			<point x="108" y="-10"/>
			<point x="169" y="-18"/>
		</contour>
	</outline>
</glyph>
<glyph name="four" format="2">
	<advance width="694"/>
	<unicode hex="0034"/>
	<outline>
		<contour>
			<point x="27" y="270" type="curve"/>
			<point x="126" y="235" type="line"/>
			<point x="276" y="360"/>
			<point x="417" y="581"/>
			<point x="407" y="697" type="curve"/>
			<point x="199" y="679" type="line"/>
			<point x="199" y="567"/>
			<point x="122" y="387"/>
		</contour>
		<contour>
			<point x="593" y="121" type="curve"/>
			<point x="637" y="361" type="line"/>
			<point x="445" y="373"/>
			<point x="270" y="371"/>
			<point x="27" y="270" type="curve"/>
			<point x="41" y="148" type="line"/>
			<point x="192" y="175"/>
			<point x="394" y="176"/>
		</contour>
		<contour>
			<point x="423" y="-12" type="curve"/>
			<point x="616" y="23" type="line"/>
			<point x="650" y="258"/>
			<point x="652" y="361"/>
			<point x="642" y="585" type="curve"/>
			<point x="376" y="543" type="line"/>
			<point x="419" y="291"/>
			<point x="423" y="222"/>
		</contour>
	</outline>
</glyph>
<glyph name="five" format="2">
	<advance width="634"/>
	<unicode hex="0035"/>
	<outline>
		<contour>
			<point x="229" y="-12" type="curve" smooth="yes"/>
			<point x="421" y="-12"/>
			<point x="602" y="37"/>
			<point x="602" y="210" type="curve" smooth="yes"/>
			<point x="602" y="423"/>
			<point x="353" y="444"/>
			<point x="185" y="406" type="curve"/>
			<point x="72" y="302" type="line"/>
			<point x="178" y="321"/>
			<point x="351" y="331"/>
			<point x="351" y="212" type="curve" smooth="yes"/>
			<point x="351" y="162"/>
			<point x="304" y="146"/>
			<point x="244" y="146" type="curve" smooth="yes"/>
			<point x="181" y="146"/>
			<point x="102" y="169"/>
			<point x="48" y="194" type="curve"/>
			<point x="32" y="8" type="line"/>
			<point x="101" y="-7"/>
			<point x="185" y="-12"/>
		</contour>
		<contour>
			<point x="72" y="302" type="curve"/>
			<point x="274" y="349" type="line"/>
			<point x="244" y="464"/>
			<point x="220" y="539"/>
			<point x="228" y="659" type="curve"/>
			<point x="32" y="680" type="line"/>
			<point x="16" y="585"/>
			<point x="43" y="409"/>
		</contour>
		<contour>
			<point x="547" y="467" type="curve"/>
			<point x="503" y="707" type="line"/>
			<point x="306" y="662"/>
			<point x="186" y="659"/>
			<point x="32" y="680" type="curve"/>
			<point x="32" y="558" type="line"/>
			<point x="282" y="475"/>
			<point x="353" y="475"/>
		</contour>
	</outline>
</glyph>
<glyph name="six" format="2">
	<advance width="684"/>
	<unicode hex="0036"/>
	<outline>
		<contour>
			<point x="335" y="-10" type="curve" smooth="yes"/>
			<point x="541" y="-10"/>
			<point x="658" y="124"/>
			<point x="658" y="250" type="curve" smooth="yes"/>
			<point x="658" y="360"/>
			<point x="567" y="465"/>
			<point x="365" y="465" type="curve" smooth="yes"/>
			<point x="289" y="465"/>
			<point x="205" y="451"/>
			<point x="122" y="429" type="curve"/>
			<point x="150" y="224" type="line"/>
			<point x="209" y="307"/>
			<point x="279" y="348"/>
			<point x="334" y="348" type="curve" smooth="yes"/>
			<point x="393" y="348"/>
			<point x="418" y="300"/>
			<point x="418" y="250" type="curve" smooth="yes"/>
			<point x="418" y="195"/>
			<point x="387" y="137"/>
			<point x="337" y="137" type="curve" smooth="yes"/>
			<point x="289" y="137"/>
			<point x="259" y="181"/>
			<point x="259" y="246" type="curve" smooth="yes"/>
			<point x="259" y="350"/>
			<point x="332" y="507"/>
			<point x="522" y="635" type="curve"/>
			<point x="366" y="710" type="line"/>
			<point x="124" y="567"/>
			<point x="33" y="407"/>
			<point x="33" y="274" type="curve" smooth="yes"/>
			<point x="33" y="112"/>
			<point x="170" y="-10"/>
		</contour>
	</outline>
</glyph>
<glyph name="seven" format="2">
	<advance width="654"/>
	<unicode hex="0037"/>
	<outline>
		<contour>
			<point x="87" y="-17" type="curve"/>
			<point x="406" y="1" type="line"/>
			<point x="426" y="113"/>
			<point x="423" y="234"/>
			<point x="627" y="560" type="curve"/>
			<point x="559" y="607" type="line"/>
			<point x="263" y="273"/>
			<point x="107" y="99"/>
		</contour>
		<contour>
			<point x="71" y="709" type="curve"/>
			<point x="27" y="469" type="line"/>
			<point x="208" y="458"/>
			<point x="373" y="455"/>
			<point x="627" y="560" type="curve"/>
			<point x="613" y="682" type="line"/>
			<point x="466" y="663"/>
			<point x="274" y="663"/>
		</contour>
	</outline>
</glyph>
<glyph name="eight" format="2">
	<advance width="704"/>
	<unicode hex="0038"/>
	<outline>
		<contour>
			<point x="336" y="-10" type="curve" smooth="yes"/>
			<point x="501" y="-10"/>
			<point x="672" y="67"/>
			<point x="672" y="209" type="curve" smooth="yes"/>
			<point x="672" y="344"/>
			<point x="509" y="417"/>
			<point x="348" y="417" type="curve" smooth="yes"/>
			<point x="189" y="417"/>
			<point x="32" y="347"/>
			<point x="32" y="199" type="curve" smooth="yes"/>
			<point x="32" y="57"/>
			<point x="182" y="-10"/>
		</contour>
		<contour>
			<point x="354" y="81" type="curve" smooth="yes"/>
			<point x="310" y="81"/>
			<point x="267" y="114"/>
			<point x="267" y="186" type="curve" smooth="yes"/>
			<point x="267" y="262"/>
			<point x="310" y="299"/>
			<point x="354" y="299" type="curve" smooth="yes"/>
			<point x="399" y="299"/>
			<point x="445" y="259"/>
			<point x="445" y="184" type="curve" smooth="yes"/>
			<point x="445" y="117"/>
			<point x="399" y="81"/>
		</contour>
		<contour>
			<point x="334" y="306" type="curve" smooth="yes"/>
			<point x="481" y="306"/>
			<point x="632" y="380"/>
			<point x="632" y="519" type="curve" smooth="yes"/>
			<point x="632" y="650"/>
			<point x="486" y="721"/>
			<point x="340" y="721" type="curve" smooth="yes"/>
			<point x="200" y="721"/>
			<point x="60" y="654"/>
			<point x="60" y="510" type="curve" smooth="yes"/>
			<point x="60" y="372"/>
			<point x="195" y="306"/>
		</contour>
		<contour>
			<point x="347" y="417" type="curve" smooth="yes"/>
			<point x="309" y="417"/>
			<point x="272" y="451"/>
			<point x="272" y="525" type="curve" smooth="yes"/>
			<point x="272" y="595"/>
			<point x="310" y="629"/>
			<point x="349" y="629" type="curve" smooth="yes"/>
			<point x="388" y="629"/>
			<point x="428" y="593"/>
			<point x="428" y="523" type="curve" smooth="yes"/>
			<point x="428" y="455"/>
			<point x="387" y="417"/>
		</contour>
	</outline>
</glyph>
<glyph name="nine" format="2">
	<advance width="684"/>
	<unicode hex="0039"/>
	<outline>
		<contour>
			<point x="162" y="65" type="curve"/>
			<point x="318" y="-10" type="line"/>
			<point x="560" y="133"/>
			<point x="651" y="293"/>
			<point x="651" y="426" type="curve" smooth="yes"/>
			<point x="651" y="588"/>
			<point x="514" y="710"/>
			<point x="349" y="710" type="curve" smooth="yes"/>
			<point x="143" y="710"/>
			<point x="26" y="576"/>
			<point x="26" y="450" type="curve" smooth="yes"/>
			<point x="26" y="340"/>
			<point x="117" y="235"/>
			<point x="319" y="235" type="curve" smooth="yes"/>
			<point x="395" y="235"/>
			<point x="479" y="249"/>
			<point x="562" y="271" type="curve"/>
			<point x="534" y="476" type="line"/>
			<point x="475" y="393"/>
			<point x="405" y="352"/>
			<point x="350" y="352" type="curve" smooth="yes"/>
			<point x="291" y="352"/>
			<point x="266" y="400"/>
			<point x="266" y="450" type="curve" smooth="yes"/>
			<point x="266" y="505"/>
			<point x="297" y="563"/>
			<point x="347" y="563" type="curve" smooth="yes"/>
			<point x="395" y="563"/>
			<point x="425" y="519"/>
			<point x="425" y="454" type="curve" smooth="yes"/>
			<point x="425" y="350"/>
			<point x="352" y="193"/>
		</contour>
	</outline>
</glyph>
<glyph name="at" format="2">
	<advance width="1014"/>
	<unicode hex="0040"/>
	<outline>
		<contour>
			<point x="508" y="-100" type="curve"/>
			<point x="533" y="50" type="line"/>
			<point x="262" y="50"/>
			<point x="148" y="190"/>
			<point x="148" y="340" type="curve" smooth="yes"/>
			<point x="148" y="509"/>
			<point x="273" y="690"/>
			<point x="528" y="690" type="curve" smooth="yes"/>
			<point x="781" y="690"/>
			<point x="868" y="547"/>
			<point x="868" y="421" type="curve" smooth="yes"/>
			<point x="868" y="321"/>
			<point x="824" y="286"/>
			<point x="770" y="286" type="curve" smooth="yes"/>
			<point x="733" y="286"/>
			<point x="707" y="326"/>
			<point x="707" y="381" type="curve" smooth="yes"/>
			<point x="707" y="442"/>
			<point x="727" y="521"/>
			<point x="762" y="578" type="curve"/>
			<point x="571" y="593" type="line"/>
			<point x="534" y="539"/>
			<point x="507" y="449"/>
			<point x="507" y="362" type="curve" smooth="yes"/>
			<point x="507" y="237"/>
			<point x="562" y="117"/>
			<point x="720" y="117" type="curve" smooth="yes"/>
			<point x="857" y="117"/>
			<point x="982" y="242"/>
			<point x="982" y="409" type="curve" smooth="yes"/>
			<point x="982" y="585"/>
			<point x="841" y="770"/>
			<point x="519" y="770" type="curve" smooth="yes"/>
			<point x="188" y="770"/>
			<point x="32" y="559"/>
			<point x="32" y="345" type="curve" smooth="yes"/>
			<point x="32" y="124"/>
			<point x="197" y="-100"/>
		</contour>
		<contour>
			<point x="367" y="146" type="curve" smooth="yes"/>
			<point x="461" y="146"/>
			<point x="578" y="239"/>
			<point x="632" y="374" type="curve"/>
			<point x="602" y="470" type="line"/>
			<point x="571" y="370"/>
			<point x="508" y="286"/>
			<point x="465" y="286" type="curve" smooth="yes"/>
			<point x="435" y="286"/>
			<point x="417" y="322"/>
			<point x="417" y="364" type="curve" smooth="yes"/>
			<point x="417" y="431"/>
			<point x="463" y="517"/>
			<point x="565" y="517" type="curve"/>
			<point x="574" y="593" type="line"/>
			<point x="332" y="603"/>
			<point x="218" y="438"/>
			<point x="218" y="311" type="curve" smooth="yes"/>
			<point x="218" y="222"/>
			<point x="265" y="146"/>
		</contour>
	</outline>
</glyph>
<glyph name="F" format="2">
	<advance width="618"/>
	<unicode hex="0046"/>
	<outline>
		<contour>
			<point x="66" y="5" type="curve"/>
			<point x="269" y="39" type="line"/>
			<point x="313" y="335"/>
			<point x="324" y="443"/>
			<point x="324" y="714" type="curve"/>
			<point x="47" y="736" type="line"/>
			<point x="78" y="437"/>
			<point x="78" y="317"/>
		</contour>
		<contour>
			<point x="477" y="288" type="curve"/>
			<point x="480" y="424" type="line"/>
			<point x="404" y="408"/>
			<point x="312" y="411"/>
			<point x="191" y="423" type="curve"/>
			<point x="190" y="311" type="line"/>
			<point x="297" y="297"/>
			<point x="396" y="290"/>
		</contour>
		<contour>
			<point x="571" y="584" type="curve"/>
			<point x="591" y="770" type="line"/>
			<point x="474" y="767"/>
			<point x="174" y="749"/>
			<point x="47" y="736" type="curve"/>
			<point x="142" y="607" type="line"/>
			<point x="228" y="607"/>
			<point x="403" y="628"/>
		</contour>
	</outline>
</glyph>
<glyph name="G" format="2">
	<advance width="791"/>
	<unicode hex="0047"/>
	<anchor x="371" y="-30" name="bottom"/>
	<anchor x="494" y="800" name="top"/>
	<outline>
		<contour>
			<point x="371" y="0" type="curve" smooth="yes"/>
			<point x="528" y="0"/>
			<point x="759" y="144"/>
			<point x="759" y="345" type="curve" smooth="yes"/>
			<point x="759" y="450"/>
			<point x="677" y="513"/>
			<point x="576" y="513" type="curve" smooth="yes"/>
			<point x="517" y="513"/>
			<point x="446" y="495"/>
			<point x="370" y="453" type="curve"/>
			<point x="427" y="254" type="line"/>
			<point x="480" y="292"/>
			<point x="563" y="333"/>
			<point x="610" y="333" type="curve" smooth="yes"/>
			<point x="631" y="333"/>
			<point x="644" y="325"/>
			<point x="644" y="305" type="curve" smooth="yes"/>
			<point x="644" y="231"/>
			<point x="535" y="192"/>
			<point x="439" y="192" type="curve" smooth="yes"/>
			<point x="311" y="192"/>
			<point x="272" y="275"/>
			<point x="272" y="368" type="curve" smooth="yes"/>
			<point x="272" y="481"/>
			<point x="342" y="607"/>
			<point x="506" y="607" type="curve" smooth="yes"/>
			<point x="551" y="607"/>
			<point x="600" y="598"/>
			<point x="655" y="577" type="curve"/>
			<point x="655" y="729" type="line"/>
			<point x="599" y="746"/>
			<point x="545" y="754"/>
			<point x="494" y="754" type="curve" smooth="yes"/>
			<point x="215" y="754"/>
			<point x="32" y="518"/>
			<point x="32" y="312" type="curve" smooth="yes"/>
			<point x="32" y="147"/>
			<point x="132" y="0"/>
		</contour>
	</outline>
</glyph>
<glyph name="I" format="2">
	<advance width="372"/>
	<unicode hex="0049"/>
	<anchor x="195" y="-30" name="bottom"/>
	<anchor x="261" y="15" name="ogonek"/>
	<anchor x="168" y="800" name="top"/>
	<outline>
		<contour>
			<point x="74" y="-18" type="curve"/>
			<point x="278" y="18" type="line"/>
			<point x="318" y="318"/>
			<point x="328" y="492"/>
			<point x="324" y="767" type="curve"/>
			<point x="47" y="725" type="line"/>
			<point x="77" y="463"/>
			<point x="84" y="249"/>
		</contour>
	</outline>
</glyph>
<glyph name="M" format="2">
	<advance width="1267"/>
	<unicode hex="004D"/>
	<outline>
		<contour>
			<point x="74" y="-18" type="curve"/>
			<point x="278" y="18" type="line"/>
			<point x="323" y="359"/>
			<point x="324" y="469"/>
			<point x="324" y="767" type="curve"/>
			<point x="47" y="725" type="line"/>
			<point x="79" y="442"/>
			<point x="84" y="274"/>
		</contour>
		<contour>
			<point x="490" y="-8" type="curve"/>
			<point x="764" y="33" type="line"/>
			<point x="764" y="426"/>
			<point x="692" y="760"/>
			<point x="478" y="760" type="curve" smooth="yes"/>
			<point x="349" y="760"/>
			<point x="252" y="610"/>
			<point x="209" y="192" type="curve"/>
			<point x="303" y="228" type="line"/>
			<point x="331" y="503"/>
			<point x="375" y="650"/>
			<point x="460" y="650" type="curve" smooth="yes"/>
			<point x="572" y="650"/>
			<point x="516" y="144"/>
		</contour>
		<contour>
			<point x="952" y="-7" type="curve"/>
			<point x="1216" y="24" type="line"/>
			<point x="1238" y="359"/>
			<point x="1175" y="766"/>
			<point x="913" y="766" type="curve" smooth="yes"/>
			<point x="678" y="766"/>
			<point x="654" y="443"/>
			<point x="650" y="247" type="curve"/>
			<point x="764" y="33" type="line"/>
			<point x="777" y="192"/>
			<point x="756" y="650"/>
			<point x="880" y="650" type="curve" smooth="yes"/>
			<point x="1006" y="650"/>
			<point x="967" y="69"/>
		</contour>
	</outline>
</glyph>
<glyph name="O" format="2">
	<advance width="849"/>
	<unicode hex="004F"/>
	<guideline x="609" y="168" angle="0"/>
	<guideline x="609" y="482" angle="0"/>
	<anchor x="424" y="-30" name="bottom"/>
	<anchor x="422" y="800" name="top"/>
	<outline>
		<contour>
			<point x="424" y="-13" type="curve" smooth="yes"/>
			<point x="683" y="-13"/>
			<point x="817" y="179"/>
			<point x="817" y="372" type="curve" smooth="yes"/>
			<point x="817" y="565"/>
			<point x="682" y="759"/>
			<point x="422" y="759" type="curve" smooth="yes"/>
			<point x="168" y="759"/>
			<point x="32" y="562"/>
			<point x="32" y="368" type="curve" smooth="yes"/>
			<point x="32" y="176"/>
			<point x="163" y="-13"/>
		</contour>
		<contour>
			<point x="441" y="225" type="curve" smooth="yes"/>
			<point x="336" y="225"/>
			<point x="275" y="339"/>
			<point x="275" y="453" type="curve" smooth="yes"/>
			<point x="275" y="570"/>
			<point x="330" y="672"/>
			<point x="452" y="672" type="curve" smooth="yes"/>
			<point x="561" y="672"/>
			<point x="630" y="570"/>
			<point x="630" y="456" type="curve" smooth="yes"/>
			<point x="630" y="342"/>
			<point x="562" y="225"/>
		</contour>
	</outline>
</glyph>
<glyph name="Q" format="2">
	<advance width="849"/>
	<unicode hex="0051"/>
	<outline>
		<component base="O" yScale="-1" yOffset="750"/>
		<contour>
			<point x="524" y="-196" type="curve"/>
			<point x="705" y="-40" type="line"/>
			<point x="598" y="56"/>
			<point x="527" y="214"/>
			<point x="530" y="344" type="curve"/>
			<point x="410" y="360" type="line"/>
			<point x="386" y="164"/>
			<point x="393" y="-10"/>
		</contour>
	</outline>
</glyph>
<glyph name="U" format="2">
	<advance width="885"/>
	<unicode hex="0055"/>
	<anchor x="409" y="-30" name="bottom"/>
	<anchor x="742" y="16" name="ogonek"/>
	<anchor x="457" y="800" name="top"/>
	<outline>
		<contour>
			<point x="371" y="-8" type="curve" smooth="yes"/>
			<point x="636" y="-8"/>
			<point x="660" y="315"/>
			<point x="664" y="511" type="curve"/>
			<point x="560" y="725" type="line"/>
			<point x="576" y="566"/>
			<point x="578" y="111"/>
			<point x="407" y="111" type="curve" smooth="yes"/>
			<point x="281" y="111"/>
			<point x="294" y="685"/>
			<point x="312" y="775" type="curve"/>
			<point x="38" y="734" type="line"/>
			<point x="20" y="504"/>
			<point x="76" y="-8"/>
		</contour>
		<contour>
			<point x="587" y="-18" type="curve"/>
			<point x="791" y="18" type="line"/>
			<point x="831" y="322"/>
			<point x="843" y="521"/>
			<point x="837" y="767" type="curve"/>
			<point x="560" y="725" type="line"/>
			<point x="591" y="459"/>
			<point x="598" y="271"/>
		</contour>
	</outline>
</glyph>
<glyph name="Z" format="2">
	<advance width="743"/>
	<unicode hex="005A"/>
	<anchor x="382" y="-30" name="bottom"/>
	<anchor x="382" y="800" name="top"/>
	<outline>
		<contour>
			<point x="33" y="134" type="curve"/>
			<point x="187" y="42" type="line"/>
			<point x="392" y="163"/>
			<point x="619" y="479"/>
			<point x="711" y="661" type="curve"/>
			<point x="404" y="703" type="line"/>
			<point x="346" y="482"/>
			<point x="173" y="249"/>
		</contour>
		<contour>
			<point x="661" y="-19" type="curve"/>
			<point x="685" y="141" type="line"/>
			<point x="551" y="149"/>
			<point x="360" y="127"/>
			<point x="223" y="94" type="curve"/>
			<point x="33" y="134" type="line"/>
			<point x="46" y="-12" type="line"/>
			<point x="175" y="5"/>
			<point x="441" y="11"/>
		</contour>
		<contour>
			<point x="77" y="750" type="curve"/>
			<point x="52" y="600" type="line"/>
			<point x="294" y="595"/>
			<point x="500" y="609"/>
			<point x="711" y="661" type="curve"/>
			<point x="696" y="733" type="line"/>
			<point x="568" y="716"/>
			<point x="297" y="710"/>
		</contour>
	</outline>
</glyph>
<glyph name="bracketleft" format="2">
	<advance width="400"/>
	<unicode hex="005B"/>
	<outline>
		<contour>
			<point x="66" y="-103" type="curve"/>
			<point x="216" y="-85" type="line"/>
			<point x="241" y="200"/>
			<point x="245" y="485"/>
			<point x="230" y="770" type="curve"/>
			<point x="40" y="764" type="line"/>
			<point x="69" y="475"/>
			<point x="77" y="186"/>
		</contour>
		<contour>
			<point x="367" y="-110" type="line"/>
			<point x="373" y="44" type="line"/>
			<point x="70" y="16" type="line"/>
			<point x="66" y="-103" type="line"/>
		</contour>
		<contour>
			<point x="363" y="603" type="line"/>
			<point x="367" y="777" type="line"/>
			<point x="40" y="764" type="line"/>
			<point x="81" y="629" type="line"/>
		</contour>
	</outline>
</glyph>
<glyph name="e" format="2">
	<advance width="581"/>
	<unicode hex="0065"/>
	<guideline x="622" y="385" angle="0"/>
	<guideline x="622" y="135" angle="0"/>
	<anchor x="314" y="-29" name="bottom"/>
	<anchor x="468" y="-2" name="ogonek"/>
	<anchor x="323" y="520" name="top"/>
	<outline>
		<contour>
			<point x="468" y="-2" type="curve"/>
			<point x="480" y="93" type="line"/>
			<point x="293" y="58"/>
			<point x="233" y="143"/>
			<point x="233" y="232" type="curve" smooth="yes"/>
			<point x="233" y="293"/>
			<point x="287" y="355"/>
			<point x="338" y="355" type="curve" smooth="yes"/>
			<point x="371" y="355"/>
			<point x="387" y="332"/>
			<point x="387" y="307" type="curve" smooth="yes"/>
			<point x="387" y="272"/>
			<point x="361" y="243"/>
			<point x="312" y="243" type="curve" smooth="yes"/>
			<point x="271" y="243"/>
			<point x="237" y="250"/>
			<point x="208" y="266" type="curve"/>
			<point x="179" y="207" type="line"/>
			<point x="232" y="172"/>
			<point x="303" y="150"/>
			<point x="369" y="150" type="curve" smooth="yes"/>
			<point x="510" y="150"/>
			<point x="553" y="221"/>
			<point x="554" y="288" type="curve" smooth="yes"/>
			<point x="556" y="367"/>
			<point x="473" y="455"/>
			<point x="316" y="455" type="curve" smooth="yes"/>
			<point x="177" y="455"/>
			<point x="27" y="378"/>
			<point x="27" y="219" type="curve" smooth="yes"/>
			<point x="27" y="5"/>
			<point x="255" y="-21"/>
		</contour>
	</outline>
</glyph>
<glyph name="f" format="2">
	<advance width="432"/>
	<unicode hex="0066"/>
	<guideline x="-13" y="404" angle="0"/>
	<outline>
		<contour>
			<point x="51" y="0" type="curve"/>
			<point x="307" y="-2" type="line"/>
			<point x="272" y="156"/>
			<point x="232" y="364"/>
			<point x="221" y="450" type="curve" smooth="yes"/>
			<point x="204" y="589"/>
			<point x="272" y="606"/>
			<point x="413" y="572" type="curve"/>
			<point x="395" y="742" type="line"/>
			<point x="178" y="742"/>
			<point x="64" y="624"/>
			<point x="56" y="357" type="curve" smooth="yes"/>
			<point x="53" y="262"/>
			<point x="49" y="133"/>
		</contour>
		<contour>
			<point x="338" y="344" type="curve"/>
			<point x="352" y="445" type="line"/>
			<point x="239" y="468"/>
			<point x="133" y="470"/>
			<point x="5" y="456" type="curve"/>
			<point x="21" y="380" type="line"/>
			<point x="140" y="386"/>
			<point x="232" y="377"/>
		</contour>
	</outline>
</glyph>
<glyph name="i" format="2">
	<advance width="333"/>
	<unicode hex="0069"/>
	<outline>
		<component base="dotlessi"/>
		<contour>
			<point x="56" y="517" type="curve"/>
			<point x="268" y="533" type="line"/>
			<point x="271" y="597"/>
			<point x="257" y="687"/>
			<point x="238" y="752" type="curve"/>
			<point x="32" y="717" type="line"/>
			<point x="45" y="652"/>
			<point x="56" y="588"/>
		</contour>
	</outline>
</glyph>
<glyph name="k" format="2">
	<advance width="630"/>
	<unicode hex="006B"/>
	<anchor x="311" y="0" name="bottom"/>
	<anchor x="107" y="800" name="top"/>
	<outline>
		<contour>
			<point x="388" y="-10" type="curve"/>
			<point x="610" y="57" type="line"/>
			<point x="551" y="191"/>
			<point x="459" y="270"/>
			<point x="320" y="286" type="curve"/>
			<point x="259" y="200" type="line"/>
			<point x="323" y="149"/>
			<point x="345" y="122"/>
		</contour>
		<contour>
			<point x="218" y="147" type="curve"/>
			<point x="238" y="4" type="line"/>
			<point x="262" y="191"/>
			<point x="372" y="302"/>
			<point x="564" y="281" type="curve"/>
			<point x="560" y="491" type="line"/>
			<point x="368" y="447"/>
			<point x="253" y="312"/>
		</contour>
		<contour>
			<point x="58" y="-13" type="curve"/>
			<point x="238" y="4" type="line"/>
			<point x="281" y="281"/>
			<point x="299" y="565"/>
			<point x="299" y="816" type="curve"/>
			<point x="40" y="777" type="line"/>
			<point x="63" y="537"/>
			<point x="68" y="225"/>
		</contour>
	</outline>
</glyph>
<glyph name="n" format="2">
	<advance width="681"/>
	<unicode hex="006E"/>
	<guideline x="198" y="229" angle="0"/>
	<anchor x="333" y="0" name="bottom"/>
	<anchor x="353" y="520" name="top"/>
	<outline>
		<contour>
			<point x="392" y="0" type="curve"/>
			<point x="640" y="-12" type="line"/>
			<point x="661" y="162"/>
			<point x="649" y="465"/>
			<point x="457" y="465" type="curve" smooth="yes"/>
			<point x="343" y="465"/>
			<point x="222" y="315"/>
			<point x="222" y="141" type="curve"/>
			<point x="259" y="1" type="line"/>
			<point x="288" y="224"/>
			<point x="359" y="335"/>
			<point x="406" y="335" type="curve" smooth="yes"/>
			<point x="495" y="335"/>
			<point x="426" y="82"/>
		</contour>
		<contour>
			<point x="40" y="-15" type="curve"/>
			<point x="259" y="1" type="line"/>
			<point x="270" y="185"/>
			<point x="259" y="287"/>
			<point x="229" y="469" type="curve"/>
			<point x="61" y="431" type="line"/>
			<point x="76" y="285"/>
			<point x="66" y="153"/>
		</contour>
	</outline>
</glyph>
<glyph name="u" format="2">
	<advance width="681"/>
	<unicode hex="0075"/>
	<guideline x="48" y="385" angle="0"/>
	<guideline x="48" y="135" angle="0"/>
	<anchor x="341" y="-50" name="bottom"/>
	<anchor x="620" y="16" name="ogonek"/>
	<anchor x="341" y="520" name="top"/>
	<outline>
		<contour>
			<point x="224" y="-18" type="curve" smooth="yes"/>
			<point x="338" y="-18"/>
			<point x="459" y="102"/>
			<point x="459" y="276" type="curve"/>
			<point x="422" y="448" type="line"/>
			<point x="393" y="225"/>
			<point x="322" y="112"/>
			<point x="275" y="112" type="curve" smooth="yes"/>
			<point x="186" y="112"/>
			<point x="255" y="375"/>
			<point x="289" y="457" type="curve"/>
			<point x="41" y="439" type="line"/>
			<point x="20" y="265"/>
			<point x="32" y="-18"/>
		</contour>
		<contour>
			<point x="452" y="-22" type="curve"/>
			<point x="620" y="16" type="line"/>
			<point x="605" y="162"/>
			<point x="615" y="296"/>
			<point x="641" y="464" type="curve"/>
			<point x="422" y="448" type="line"/>
			<point x="411" y="264"/>
			<point x="422" y="160"/>
		</contour>
	</outline>
</glyph>
<glyph name="v" format="2">
	<advance width="670"/>
	<unicode hex="0076"/>
	<outline>
		<contour>
			<point x="286" y="-9" type="curve"/>
			<point x="410" y="0" type="line"/>
			<point x="353" y="95" type="line"/>
			<point x="310" y="222"/>
			<point x="253" y="344"/>
			<point x="177" y="472" type="curve"/>
			<point x="20" y="451" type="line"/>
			<point x="156" y="278"/>
			<point x="210" y="147"/>
		</contour>
		<contour>
			<point x="286" y="83" type="curve"/>
			<point x="410" y="0" type="line"/>
			<point x="470" y="141"/>
			<point x="568" y="320"/>
			<point x="650" y="456" type="curve"/>
			<point x="397" y="471" type="line"/>
			<point x="353" y="349"/>
			<point x="325" y="259"/>
		</contour>
	</outline>
</glyph>
<glyph name="sterling" format="2">
	<advance width="694"/>
	<unicode hex="00A3"/>
	<outline>
		<contour>
			<point x="27" y="110" type="curve"/>
			<point x="126" y="67" type="line"/>
			<point x="338" y="154"/>
			<point x="388" y="239"/>
			<point x="388" y="320" type="curve" smooth="yes"/>
			<point x="388" y="395"/>
			<point x="346" y="466"/>
			<point x="346" y="534" type="curve" smooth="yes"/>
			<point x="346" y="578"/>
			<point x="372" y="595"/>
			<point x="410" y="595" type="curve" smooth="yes"/>
			<point x="473" y="595"/>
			<point x="568" y="547"/>
			<point x="629" y="492" type="curve"/>
			<point x="657" y="717" type="line"/>
			<point x="570" y="740"/>
			<point x="469" y="757"/>
			<point x="377" y="757" type="curve" smooth="yes"/>
			<point x="220" y="757"/>
			<point x="87" y="708"/>
			<point x="87" y="557" type="curve" smooth="yes"/>
			<point x="87" y="439"/>
			<point x="195" y="366"/>
			<point x="195" y="283" type="curve" smooth="yes"/>
			<point x="195" y="233"/>
			<point x="155" y="179"/>
		</contour>
		<contour>
			<point x="623" y="-39" type="curve"/>
			<point x="667" y="201" type="line"/>
			<point x="475" y="213"/>
			<point x="270" y="211"/>
			<point x="27" y="110" type="curve"/>
			<point x="41" y="-12" type="line"/>
			<point x="190" y="7"/>
			<point x="422" y="7"/>
		</contour>
		<contour>
			<point x="508" y="255" type="curve"/>
			<point x="505" y="398" type="line"/>
			<point x="354" y="382"/>
			<point x="202" y="376"/>
			<point x="51" y="378" type="curve"/>
			<point x="50" y="276" type="line"/>
			<point x="203" y="260"/>
			<point x="355" y="253"/>
		</contour>
	</outline>
</glyph>
<glyph name="yen" format="2">
	<advance width="659"/>
	<unicode hex="00A5"/>
	<outline>
		<contour>
			<point x="267" y="360" type="curve" smooth="yes"/>
			<point x="430" y="360"/>
			<point x="620" y="514"/>
			<point x="627" y="768" type="curve"/>
			<point x="398" y="746" type="line"/>
			<point x="416" y="648"/>
			<point x="432" y="449"/>
			<point x="332" y="449" type="curve" smooth="yes"/>
			<point x="229" y="449"/>
			<point x="255" y="670"/>
			<point x="283" y="763" type="curve"/>
			<point x="35" y="747" type="line"/>
			<point x="22" y="569"/>
			<point x="53" y="360"/>
		</contour>
		<contour>
			<point x="200" y="4" type="curve"/>
			<point x="419" y="-10" type="line"/>
			<point x="420" y="154"/>
			<point x="409" y="226"/>
			<point x="389" y="408" type="curve"/>
			<point x="221" y="390" type="line"/>
			<point x="226" y="244"/>
			<point x="216" y="152"/>
		</contour>
		<contour>
			<point x="551" y="255" type="curve"/>
			<point x="548" y="398" type="line"/>
			<point x="397" y="382"/>
			<point x="245" y="376"/>
			<point x="94" y="378" type="curve"/>
			<point x="93" y="276" type="line"/>
			<point x="246" y="260"/>
			<point x="398" y="253"/>
		</contour>
		<contour>
			<point x="76" y="250" type="curve"/>
			<point x="73" y="107" type="line"/>
			<point x="226" y="105"/>
			<point x="378" y="111"/>
			<point x="531" y="128" type="curve"/>
			<point x="530" y="230" type="line"/>
			<point x="379" y="227"/>
			<point x="227" y="234"/>
		</contour>
	</outline>
</glyph>
<glyph name="dieresis" format="2">
	<advance width="300"/>
	<unicode hex="00A8"/>
	<anchor x="150" y="520" name="_top"/>
	<anchor x="150" y="700" name="top"/>
	<outline>
		<contour>
			<point x="-3" y="537" type="curve"/>
			<point x="132" y="543" type="line"/>
			<point x="127" y="586"/>
			<point x="126" y="634"/>
			<point x="133" y="680" type="curve"/>
			<point x="-4" y="680" type="line"/>
			<point x="-9" y="638"/>
			<point x="-10" y="580"/>
		</contour>
		<contour>
			<point x="177" y="537" type="curve"/>
			<point x="312" y="543" type="line"/>
			<point x="307" y="586"/>
			<point x="306" y="634"/>
			<point x="313" y="680" type="curve"/>
			<point x="176" y="680" type="line"/>
			<point x="171" y="638"/>
			<point x="170" y="580"/>
		</contour>
	</outline>
</glyph>
<glyph name="logicalnot" format="2">
	<advance width="459"/>
	<unicode hex="00AC"/>
	<outline>
		<contour>
			<point x="413" y="188" type="curve"/>
			<point x="410" y="383" type="line"/>
			<point x="283" y="386"/>
			<point x="155" y="379"/>
			<point x="28" y="362" type="curve"/>
			<point x="27" y="212" type="line"/>
			<point x="156" y="214"/>
			<point x="284" y="206"/>
		</contour>
		<contour>
			<point x="236" y="78" type="curve"/>
			<point x="431" y="81" type="line"/>
			<point x="434" y="208"/>
			<point x="427" y="256"/>
			<point x="410" y="383" type="curve"/>
			<point x="260" y="384" type="line"/>
			<point x="262" y="255"/>
			<point x="254" y="207"/>
		</contour>
	</outline>
</glyph>
<glyph name="cedilla" format="2">
	<advance width="300"/>
	<unicode hex="00B8"/>
	<anchor x="165" y="12" name="_cedilla"/>
	<outline>
		<contour>
			<point x="82" y="-136" type="curve"/>
			<point x="80" y="-216" type="line"/>
			<point x="145" y="-227"/>
			<point x="255" y="-216"/>
			<point x="255" y="-129" type="curve" smooth="yes"/>
			<point x="255" y="-78"/>
			<point x="206" y="-25"/>
			<point x="115" y="-25" type="curve"/>
			<point x="65" y="-109" type="line"/>
			<point x="98" y="-104"/>
			<point x="213" y="-94"/>
			<point x="213" y="-128" type="curve" smooth="yes"/>
			<point x="213" y="-156"/>
			<point x="116" y="-144"/>
		</contour>
		<contour>
			<point x="65" y="-109" type="line"/>
			<point x="121" y="-99" type="line"/>
			<point x="203" y="16" type="line"/>
			<point x="121" y="11" type="line"/>
		</contour>
	</outline>
</glyph>
<glyph name="Eth" format="2">
	<advance width="788"/>
	<unicode hex="00D0"/>
	<outline>
		<component base="D"/>
		<contour>
			<point x="-15" y="278" type="line"/>
			<point x="432" y="295" type="line"/>
			<point x="432" y="388" type="line"/>
			<point x="-13" y="404" type="line"/>
		</contour>
	</outline>
</glyph>
<glyph name="multiply" format="2">
	<advance width="540"/>
	<unicode hex="00D7"/>
	<outline>
		<contour>
			<point x="378" y="115" type="curve"/>
			<point x="513" y="255" type="line"/>
			<point x="426" y="347"/>
			<point x="259" y="503"/>
			<point x="158" y="581" type="curve"/>
			<point x="51" y="476" type="line"/>
			<point x="143" y="386"/>
			<point x="299" y="219"/>
		</contour>
		<contour>
			<point x="27" y="261" type="curve"/>
			<point x="167" y="125" type="line"/>
			<point x="259" y="212"/>
			<point x="415" y="379"/>
			<point x="493" y="480" type="curve"/>
			<point x="387" y="587" type="line"/>
			<point x="298" y="495"/>
			<point x="131" y="339"/>
		</contour>
	</outline>
</glyph>
<glyph name="germandbls" format="2">
	<advance width="681"/>
	<unicode hex="00DF"/>
	<outline>
		<contour>
			<point x="58" y="-13" type="curve"/>
			<point x="262" y="2" type="line"/>
			<point x="259" y="153"/>
			<point x="257" y="344"/>
			<point x="265" y="500" type="curve" smooth="yes"/>
			<point x="273" y="671"/>
			<point x="316" y="735"/>
			<point x="369" y="735" type="curve" smooth="yes"/>
			<point x="404" y="735"/>
			<point x="435" y="701"/>
			<point x="435" y="639" type="curve" smooth="yes"/>
			<point x="435" y="578"/>
			<point x="392" y="496"/>
			<point x="297" y="452" type="curve"/>
			<point x="306" y="376" type="line"/>
			<point x="492" y="376"/>
			<point x="636" y="484"/>
			<point x="636" y="606" type="curve" smooth="yes"/>
			<point x="636" y="741"/>
			<point x="512" y="796"/>
			<point x="376" y="796" type="curve" smooth="yes"/>
			<point x="214" y="796"/>
			<point x="37" y="692"/>
			<point x="37" y="465" type="curve" smooth="yes"/>
			<point x="37" y="356"/>
			<point x="46" y="201"/>
		</contour>
		<contour>
			<point x="310" y="122" type="curve"/>
			<point x="330" y="9" type="line"/>
			<point x="514" y="9"/>
			<point x="654" y="116"/>
			<point x="654" y="259" type="curve" smooth="yes"/>
			<point x="654" y="450"/>
			<point x="436" y="439"/>
			<point x="313" y="417" type="curve"/>
			<point x="306" y="376" type="line"/>
			<point x="363" y="381"/>
			<point x="462" y="337"/>
			<point x="462" y="261" type="curve" smooth="yes"/>
			<point x="462" y="195"/>
			<point x="434" y="151"/>
		</contour>
	</outline>
</glyph>
<glyph name="ae" format="2">
	<advance width="877"/>
	<unicode hex="00E6"/>
	<anchor x="251" y="-36" name="bottom"/>
	<anchor x="471" y="21" name="ogonek"/>
	<anchor x="300" y="560" name="top"/>
	<outline>
		<contour>
			<point x="181" y="-34" type="curve" smooth="yes"/>
			<point x="284" y="-34"/>
			<point x="402" y="62"/>
			<point x="416" y="299" type="curve"/>
			<point x="357" y="272" type="line"/>
			<point x="357" y="180"/>
			<point x="290" y="145"/>
			<point x="237" y="145" type="curve" smooth="yes"/>
			<point x="203" y="145"/>
			<point x="175" y="159"/>
			<point x="175" y="182" type="curve" smooth="yes"/>
			<point x="175" y="219"/>
			<point x="225" y="279"/>
			<point x="406" y="330" type="curve"/>
			<point x="344" y="461" type="line"/>
			<point x="100" y="387"/>
			<point x="27" y="243"/>
			<point x="27" y="130" type="curve" smooth="yes"/>
			<point x="27" y="28"/>
			<point x="99" y="-34"/>
		</contour>
		<contour>
			<point x="325" y="148" type="curve"/>
			<point x="441" y="192" type="line"/>
			<point x="450" y="246"/>
			<point x="473" y="346"/>
			<point x="502" y="453" type="curve"/>
			<point x="344" y="461" type="line"/>
			<point x="324" y="392"/>
			<point x="320" y="223"/>
		</contour>
		<component base="e" xOffset="296"/>
	</outline>
</glyph>
<glyph name="eth" format="2">
	<advance width="614"/>
	<unicode hex="00F0"/>
	<outline>
		<contour>
			<point x="270" y="-10" type="curve" smooth="yes"/>
			<point x="492" y="-10"/>
			<point x="587" y="107"/>
			<point x="587" y="247" type="curve" smooth="yes"/>
			<point x="587" y="436"/>
			<point x="414" y="667"/>
			<point x="147" y="710" type="curve"/>
			<point x="100" y="534" type="line"/>
			<point x="288" y="527"/>
			<point x="418" y="387"/>
			<point x="418" y="277" type="curve" smooth="yes"/>
			<point x="418" y="206"/>
			<point x="363" y="148"/>
			<point x="234" y="148" type="curve" smooth="yes"/>
			<point x="178" y="148"/>
			<point x="146" y="166"/>
			<point x="146" y="185" type="curve" smooth="yes"/>
			<point x="146" y="206"/>
			<point x="185" y="228"/>
			<point x="275" y="228" type="curve" smooth="yes"/>
			<point x="334" y="228"/>
			<point x="401" y="221"/>
			<point x="451" y="160" type="curve"/>
			<point x="463" y="245" type="line"/>
			<point x="410" y="299"/>
			<point x="320" y="328"/>
			<point x="230" y="328" type="curve" smooth="yes"/>
			<point x="89" y="328"/>
			<point x="27" y="259"/>
			<point x="27" y="184" type="curve" smooth="yes"/>
			<point x="27" y="92"/>
			<point x="119" y="-10"/>
		</contour>
		<contour>
			<point x="160" y="358" type="line"/>
			<point x="538" y="596" type="line"/>
			<point x="492" y="675" type="line"/>
			<point x="99" y="467" type="line"/>
		</contour>
	</outline>
</glyph>
<glyph name="oslash" format="2">
	<advance width="591"/>
	<unicode hex="00F8"/>
	<anchor x="291" y="-42" name="bottom"/>
	<anchor x="267" y="520" name="top"/>
	<outline>
		<contour>
			<point x="197" y="-68" type="line"/>
			<point x="474" y="488" type="line"/>
			<point x="366" y="516" type="line"/>
			<point x="108" y="-39" type="line"/>
		</contour>
		<contour>
			<point x="291" y="-12" type="curve" smooth="yes"/>
			<point x="472" y="-12"/>
			<point x="564" y="107"/>
			<point x="564" y="226" type="curve" smooth="yes"/>
			<point x="564" y="345"/>
			<point x="473" y="463"/>
			<point x="289" y="463" type="curve" smooth="yes"/>
			<point x="116" y="463"/>
			<point x="27" y="343"/>
			<point x="27" y="223" type="curve" smooth="yes"/>
			<point x="27" y="105"/>
			<point x="114" y="-12"/>
		</contour>
		<contour>
			<point x="270" y="36" type="curve" smooth="yes"/>
			<point x="196" y="36"/>
			<point x="156" y="113"/>
			<point x="156" y="188" type="curve" smooth="yes"/>
			<point x="156" y="257"/>
			<point x="190" y="325"/>
			<point x="257" y="325" type="curve" smooth="yes"/>
			<point x="343" y="325"/>
			<point x="377" y="259"/>
			<point x="377" y="190" type="curve" smooth="yes"/>
			<point x="377" y="115"/>
			<point x="335" y="36"/>
		</contour>
	</outline>
</glyph>
<glyph name="dcroat" format="2">
	<advance width="630"/>
	<unicode hex="0111"/>
	<outline>
		<component base="d"/>
		<contour>
			<point x="162" y="562" type="line"/>
			<point x="609" y="579" type="line"/>
			<point x="609" y="672" type="line"/>
			<point x="164" y="688" type="line"/>
		</contour>
	</outline>
</glyph>
<glyph name="hbar" format="2">
	<advance width="667"/>
	<unicode hex="0127"/>
	<outline>
		<component base="h"/>
		<contour>
			<point x="-8" y="562" type="line"/>
			<point x="439" y="579" type="line"/>
			<point x="439" y="672" type="line"/>
			<point x="-6" y="688" type="line"/>
		</contour>
	</outline>
</glyph>
<glyph name="dotlessi" format="2">
	<advance width="333"/>
	<unicode hex="0131"/>
	<anchor x="142" y="0" name="bottom"/>
	<anchor x="207" y="2" name="ogonek"/>
	<anchor x="173" y="520" name="top"/>
	<outline>
		<contour>
			<point x="75" y="-10" type="curve"/>
			<point x="249" y="8" type="line"/>
			<point x="280" y="181"/>
			<point x="286" y="307"/>
			<point x="286" y="473" type="curve"/>
			<point x="47" y="448" type="line"/>
			<point x="70" y="288"/>
			<point x="79" y="149"/>
		</contour>
	</outline>
</glyph>
<glyph name="Lslash" format="2">
	<advance width="588"/>
	<unicode hex="0141"/>
	<outline>
		<component base="L"/>
		<contour>
			<point x="26" y="176" type="line"/>
			<point x="405" y="414" type="line"/>
			<point x="359" y="494" type="line"/>
			<point x="-35" y="286" type="line"/>
		</contour>
	</outline>
</glyph>
<glyph name="lslash" format="2">
	<advance width="340"/>
	<unicode hex="0142"/>
	<outline>
		<component base="l"/>
		<contour>
			<point x="18" y="203" type="line"/>
			<point x="397" y="441" type="line"/>
			<point x="350" y="520" type="line"/>
			<point x="-43" y="312" type="line"/>
		</contour>
	</outline>
</glyph>
<glyph name="OE" format="2">
	<advance width="1080"/>
	<unicode hex="0152"/>
	<anchor x="424" y="-30" name="bottom"/>
	<anchor x="994" y="7" name="ogonek"/>
	<anchor x="422" y="800" name="top"/>
	<outline>
		<contour>
			<point x="424" y="-13" type="curve" smooth="yes"/>
			<point x="507" y="-13"/>
			<point x="577" y="7"/>
			<point x="634" y="40" type="curve"/>
			<point x="520" y="149" type="line"/>
			<point x="494" y="112"/>
			<point x="459" y="87"/>
			<point x="415" y="87" type="curve" smooth="yes"/>
			<point x="329" y="87"/>
			<point x="279" y="207"/>
			<point x="279" y="326" type="curve" smooth="yes"/>
			<point x="279" y="449"/>
			<point x="324" y="557"/>
			<point x="423" y="557" type="curve" smooth="yes"/>
			<point x="460" y="557"/>
			<point x="490" y="541"/>
			<point x="513" y="515" type="curve"/>
			<point x="614" y="669" type="line"/>
			<point x="543" y="730"/>
			<point x="459" y="759"/>
			<point x="376" y="759" type="curve" smooth="yes"/>
			<point x="199" y="759"/>
			<point x="32" y="625"/>
			<point x="32" y="368" type="curve" smooth="yes"/>
			<point x="32" y="176"/>
			<point x="163" y="-13"/>
		</contour>
		<contour>
			<point x="498" y="13" type="curve"/>
			<point x="701" y="47" type="line"/>
			<point x="745" y="343"/>
			<point x="746" y="443"/>
			<point x="746" y="714" type="curve"/>
			<point x="479" y="736" type="line"/>
			<point x="510" y="437"/>
			<point x="510" y="325"/>
		</contour>
		<contour>
			<point x="1053" y="-5" type="curve"/>
			<point x="1053" y="161" type="line"/>
			<point x="885" y="137"/>
			<point x="674" y="131"/>
			<point x="549" y="131" type="curve"/>
			<point x="498" y="13" type="line"/>
			<point x="671" y="1"/>
			<point x="932" y="-5"/>
		</contour>
		<contour>
			<point x="922" y="288" type="curve"/>
			<point x="919" y="424" type="line"/>
			<point x="838" y="422"/>
			<point x="729" y="415"/>
			<point x="622" y="401" type="curve"/>
			<point x="623" y="289" type="line"/>
			<point x="744" y="301"/>
			<point x="846" y="304"/>
		</contour>
		<contour>
			<point x="1033" y="584" type="curve"/>
			<point x="1033" y="770" type="line"/>
			<point x="916" y="767"/>
			<point x="606" y="749"/>
			<point x="479" y="736" type="curve"/>
			<point x="574" y="607" type="line"/>
			<point x="660" y="607"/>
			<point x="865" y="618"/>
		</contour>
	</outline>
</glyph>
<glyph name="caron" format="2">
	<advance width="300"/>
	<unicode hex="02C7"/>
	<anchor x="150" y="520" name="_top"/>
	<anchor x="150" y="752" name="top"/>
	<outline>
		<contour>
			<point x="68" y="765" type="line"/>
			<point x="-30" y="719" type="line"/>
			<point x="150" y="543" type="line"/>
			<point x="164" y="625" type="line"/>
		</contour>
		<contour>
			<point x="232" y="765" type="line"/>
			<point x="136" y="625" type="line"/>
			<point x="150" y="543" type="line"/>
			<point x="330" y="719" type="line"/>
		</contour>
	</outline>
</glyph>
<glyph name="acutecomb" format="2">
	<advance width="0"/>
	<unicode hex="0301"/>
	<guideline x="177" y="537" angle="0"/>
	<anchor x="150" y="520" name="_top"/>
	<anchor x="150" y="700" name="top"/>
	<outline>
		<contour>
			<point x="150" y="540" type="line"/>
			<point x="346" y="690" type="line"/>
			<point x="262" y="772" type="line"/>
			<point x="92" y="586" type="line"/>
		</contour>
	</outline>
</glyph>
<glyph name="uni0304" format="2">
	<advance width="0"/>
	<unicode hex="0304"/>
	<guideline x="177" y="537" angle="0"/>
	<anchor x="150" y="520" name="_top"/>
	<anchor x="150" y="700" name="top"/>
	<outline>
		<contour>
			<point x="279" y="534" type="line"/>
			<point x="295" y="622" type="line"/>
			<point x="27" y="652" type="line"/>
			<point x="5" y="541" type="line"/>
		</contour>
	</outline>
</glyph>
<glyph name="uni0306" format="2">
	<advance width="0"/>
	<unicode hex="0306"/>
	<anchor x="150" y="520" name="_top"/>
	<anchor x="150" y="710" name="top"/>
	<outline>
		<contour>
			<point x="150" y="543" type="curve"/>
			<point x="248" y="543"/>
			<point x="296" y="605"/>
			<point x="296" y="696" type="curve"/>
			<point x="173" y="681" type="line"/>
			<point x="175" y="625"/>
			<point x="170" y="603"/>
			<point x="144" y="603" type="curve" smooth="yes"/>
			<point x="130" y="603"/>
			<point x="118" y="622"/>
			<point x="120" y="685" type="curve"/>
			<point x="5" y="678" type="line"/>
			<point x="5" y="578"/>
			<point x="84" y="543"/>
		</contour>
	</outline>
</glyph>
<glyph name="uni0615" format="2">
	<advance width="0"/>
	<unicode hex="0615"/>
	<anchor x="41" y="592" name="_top"/>
	<anchor x="49" y="861" name="top"/>
	<outline>
		<contour>
			<point x="23" y="599" type="curve" smooth="yes"/>
			<point x="118" y="599"/>
			<point x="168" y="639"/>
			<point x="168" y="703" type="curve" smooth="yes"/>
			<point x="168" y="748"/>
			<point x="140" y="778"/>
			<point x="96" y="778" type="curve" smooth="yes"/>
			<point x="33" y="778"/>
			<point x="-7" y="726"/>
			<point x="-28" y="643" type="curve"/>
			<point x="-18" y="632" type="line"/>
			<point x="8" y="699"/>
			<point x="43" y="713"/>
			<point x="68" y="713" type="curve" smooth="yes"/>
			<point x="82" y="713"/>
			<point x="92" y="705"/>
			<point x="92" y="691" type="curve" smooth="yes"/>
			<point x="92" y="673"/>
			<point x="73" y="653"/>
			<point x="17" y="653" type="curve" smooth="yes"/>
			<point x="-17" y="653"/>
			<point x="-56" y="663"/>
			<point x="-73" y="668" type="curve"/>
			<point x="-83" y="617" type="line"/>
			<point x="-53" y="605"/>
			<point x="-1" y="599"/>
		</contour>
		<contour>
			<point x="-50" y="632" type="curve"/>
			<point x="-17" y="643" type="line"/>
			<point x="11" y="706"/>
			<point x="27" y="782"/>
			<point x="20" y="859" type="curve"/>
			<point x="-72" y="847" type="line"/>
			<point x="-54" y="773"/>
			<point x="-47" y="719"/>
		</contour>
	</outline>
</glyph>
<glyph name="uni061F" format="2">
	<advance width="570"/>
	<unicode hex="061F"/>
	<outline>
		<contour>
			<point x="291" y="243" type="curve"/>
			<point x="407" y="255" type="line"/>
			<point x="407" y="441"/>
			<point x="244" y="459"/>
			<point x="244" y="526" type="curve" smooth="yes"/>
			<point x="244" y="547"/>
			<point x="259" y="559"/>
			<point x="279" y="559" type="curve" smooth="yes"/>
			<point x="316" y="559"/>
			<point x="362" y="532"/>
			<point x="423" y="484" type="curve"/>
			<point x="510" y="703" type="line"/>
			<point x="426" y="730"/>
			<point x="337" y="757"/>
			<point x="260" y="757" type="curve" smooth="yes"/>
			<point x="136" y="757"/>
			<point x="40" y="702"/>
			<point x="40" y="576" type="curve" smooth="yes"/>
			<point x="40" y="380"/>
			<point x="291" y="366"/>
		</contour>
		<component base="period.salt" xOffset="189"/>
	</outline>
</glyph>
<glyph name="uni0621" format="2">
	<advance width="480"/>
	<unicode hex="0621"/>
	<anchor x="242" y="-150" name="bottom"/>
	<anchor x="233" y="450" name="top"/>
	<outline>
		<contour>
			<point x="226" y="31" type="curve"/>
			<point x="262" y="15" type="line"/>
			<point x="460" y="47" type="line"/>
			<point x="408" y="156" type="line"/>
			<point x="359" y="126"/>
			<point x="304" y="104"/>
			<point x="236" y="104" type="curve" smooth="yes"/>
			<point x="183" y="104"/>
			<point x="141" y="124"/>
			<point x="141" y="156" type="curve" smooth="yes"/>
			<point x="141" y="183"/>
			<point x="171" y="198"/>
			<point x="202" y="198" type="curve" smooth="yes"/>
			<point x="236" y="198"/>
			<point x="271" y="186"/>
			<point x="298" y="160" type="curve"/>
			<point x="417" y="296" type="line"/>
			<point x="362" y="360"/>
			<point x="290" y="374"/>
			<point x="222" y="374" type="curve" smooth="yes"/>
			<point x="115" y="374"/>
			<point x="20" y="313"/>
			<point x="20" y="202" type="curve" smooth="yes"/>
			<point x="20" y="111"/>
			<point x="87" y="31"/>
		</contour>
		<contour>
			<point x="27" y="-5" type="curve"/>
			<point x="149" y="-143" type="line"/>
			<point x="241" y="-46"/>
			<point x="311" y="8"/>
			<point x="460" y="47" type="curve"/>
			<point x="357" y="83" type="line"/>
			<point x="229" y="70"/>
			<point x="85" y="49"/>
		</contour>
	</outline>
</glyph>
<glyph name="uni0627" format="2">
	<advance width="336"/>
	<unicode hex="0627"/>
	<anchor x="166" y="-100" name="bottom"/>
	<anchor x="166" y="770" name="top"/>
	<outline>
		<contour>
			<point x="97" y="-31" type="curve"/>
			<point x="221" y="5" type="line"/>
			<point x="274" y="222"/>
			<point x="300" y="463"/>
			<point x="296" y="734" type="curve"/>
			<point x="40" y="692" type="line"/>
			<point x="80" y="430"/>
			<point x="97" y="266"/>
		</contour>
	</outline>
</glyph>
<glyph name="uni0639" format="2">
	<advance width="590"/>
	<unicode hex="0639"/>
	<anchor x="294" y="-472" name="bottom"/>
	<anchor x="294" y="550" name="top"/>
	<outline>
		<contour>
			<point x="304" y="-422" type="curve" smooth="yes"/>
			<point x="386" y="-422"/>
			<point x="457" y="-409"/>
			<point x="570" y="-372" type="curve"/>
			<point x="480" y="-176" type="line"/>
			<point x="403" y="-223"/>
			<point x="318" y="-242"/>
			<point x="265" y="-242" type="curve" smooth="yes"/>
			<point x="194" y="-242"/>
			<point x="137" y="-214"/>
			<point x="137" y="-148" type="curve" smooth="yes"/>
			<point x="137" y="-70"/>
			<point x="249" y="28"/>
			<point x="520" y="28" type="curve"/>
			<point x="450" y="140" type="line"/>
			<point x="249" y="128" type="line"/>
			<point x="122" y="68"/>
			<point x="30" y="-26"/>
			<point x="30" y="-166" type="curve" smooth="yes"/>
			<point x="30" y="-340"/>
			<point x="163" y="-422"/>
		</contour>
		<contour>
			<point x="355" y="45" type="curve"/>
			<point x="520" y="28" type="line"/>
			<point x="477" y="187" type="line"/>
			<point x="403" y="187"/>
			<point x="309" y="140"/>
			<point x="254" y="140" type="curve" smooth="yes"/>
			<point x="221" y="140"/>
			<point x="191" y="159"/>
			<point x="191" y="191" type="curve" smooth="yes"/>
			<point x="191" y="222"/>
			<point x="224" y="244"/>
			<point x="264" y="244" type="curve" smooth="yes"/>
			<point x="291" y="244"/>
			<point x="322" y="237"/>
			<point x="346" y="220" type="curve"/>
			<point x="477" y="365" type="line"/>
			<point x="433" y="408"/>
			<point x="364" y="430"/>
			<point x="295" y="430" type="curve" smooth="yes"/>
			<point x="182" y="430"/>
			<point x="70" y="371"/>
			<point x="70" y="251" type="curve" smooth="yes"/>
			<point x="70" y="120"/>
			<point x="169" y="45"/>
		</contour>
	</outline>
</glyph>
<glyph name="uni0640" format="2">
	<advance width="300"/>
	<unicode hex="0640"/>
	<anchor x="160" y="-60" name="bottom"/>
	<anchor x="160" y="400" name="top"/>
	<outline>
		<contour>
			<point x="0" y="0" type="line"/>
			<point x="300" y="0" type="line"/>
			<point x="325" y="50" type="line"/>
			<point x="300" y="100" type="line"/>
			<point x="0" y="100" type="line"/>
		</contour>
	</outline>
</glyph>
<glyph name="uni0643" format="2">
	<advance width="870"/>
	<unicode hex="0643"/>
	<anchor x="502" y="-107" name="bottom"/>
	<anchor x="534" y="794" name="top"/>
	<outline>
		<contour>
			<point x="502" y="-7" type="curve" smooth="yes"/>
			<point x="768" y="-7"/>
			<point x="830" y="172"/>
			<point x="830" y="397" type="curve" smooth="yes"/>
			<point x="830" y="506"/>
			<point x="821" y="624"/>
			<point x="812" y="744" type="curve"/>
			<point x="536" y="702" type="line"/>
			<point x="597" y="503"/>
			<point x="651" y="319"/>
			<point x="651" y="217" type="curve" smooth="yes"/>
			<point x="651" y="120"/>
			<point x="570" y="100"/>
			<point x="505" y="100" type="curve" smooth="yes"/>
			<point x="407" y="100"/>
			<point x="297" y="172"/>
			<point x="250" y="346" type="curve"/>
			<point x="30" y="210" type="line"/>
			<point x="148" y="27"/>
			<point x="341" y="-7"/>
		</contour>
		<contour>
			<point x="459" y="199" type="line"/>
			<point x="526" y="199"/>
			<point x="560" y="264"/>
			<point x="560" y="309" type="curve" smooth="yes"/>
			<point x="560" y="403"/>
			<point x="426" y="333"/>
			<point x="426" y="373" type="curve" smooth="yes"/>
			<point x="426" y="385"/>
			<point x="460" y="406"/>
			<point x="516" y="386" type="curve"/>
			<point x="523" y="449" type="line"/>
			<point x="431" y="459"/>
			<point x="380" y="403"/>
			<point x="380" y="354" type="curve" smooth="yes"/>
			<point x="380" y="271"/>
			<point x="482" y="296"/>
			<point x="525" y="299" type="curve"/>
			<point x="523" y="276"/>
			<point x="453" y="268"/>
			<point x="402" y="270" type="curve"/>
			<point x="399" y="260" type="line"/>
		</contour>
	</outline>
</glyph>
<glyph name="uni0647" format="2">
	<advance width="480"/>
	<unicode hex="0647"/>
	<anchor x="242" y="-100" name="bottom"/>
	<anchor x="242" y="550" name="top"/>
	<outline>
		<contour>
			<point x="182" y="-10" type="curve" smooth="yes"/>
			<point x="300" y="-10"/>
			<point x="450" y="44"/>
			<point x="450" y="166" type="curve" smooth="yes"/>
			<point x="450" y="288"/>
			<point x="349" y="397"/>
			<point x="244" y="501" type="curve"/>
			<point x="102" y="382" type="line"/>
			<point x="206" y="325"/>
			<point x="309" y="280"/>
			<point x="309" y="239" type="curve" smooth="yes"/>
			<point x="309" y="208"/>
			<point x="263" y="190"/>
			<point x="228" y="190" type="curve" smooth="yes"/>
			<point x="196" y="190"/>
			<point x="177" y="198"/>
			<point x="177" y="230" type="curve" smooth="yes"/>
			<point x="177" y="254"/>
			<point x="206" y="324"/>
			<point x="248" y="381" type="curve"/>
			<point x="192" y="432" type="line"/>
			<point x="86" y="319"/>
			<point x="30" y="213"/>
			<point x="30" y="128" type="curve" smooth="yes"/>
			<point x="30" y="44"/>
			<point x="80" y="-10"/>
		</contour>
	</outline>
</glyph>
<glyph name="uni0648" format="2">
	<advance width="520"/>
	<unicode hex="0648"/>
	<anchor x="247" y="-450" name="bottom"/>
	<anchor x="247" y="550" name="top"/>
	<outline>
		<contour>
			<point x="34" y="-209" type="curve"/>
			<point x="205" y="-400" type="line"/>
			<point x="348" y="-278"/>
			<point x="490" y="-112"/>
			<point x="490" y="119" type="curve" smooth="yes"/>
			<point x="490" y="296"/>
			<point x="386" y="399"/>
			<point x="236" y="399" type="curve" smooth="yes"/>
			<point x="117" y="399"/>
			<point x="30" y="317"/>
			<point x="30" y="205" type="curve" smooth="yes"/>
			<point x="30" y="84"/>
			<point x="156" y="-4"/>
			<point x="344" y="-4" type="curve"/>
			<point x="355" y="100" type="line"/>
			<point x="287" y="100"/>
			<point x="212" y="109"/>
			<point x="212" y="157" type="curve" smooth="yes"/>
			<point x="212" y="189"/>
			<point x="247" y="209"/>
			<point x="278" y="209" type="curve" smooth="yes"/>
			<point x="312" y="209"/>
			<point x="347" y="187"/>
			<point x="347" y="139" type="curve" smooth="yes"/>
			<point x="347" y="-16"/>
			<point x="195" y="-112"/>
		</contour>
	</outline>
</glyph>
<glyph name="uni0649" format="2">
	<advance width="840"/>
	<unicode hex="0649"/>
	<anchor x="402" y="-360" name="bottom"/>
	<anchor x="402" y="450" name="top"/>
	<outline>
		<contour>
			<point x="411" y="-310" type="curve" smooth="yes"/>
			<point x="643" y="-310"/>
			<point x="737" y="-156"/>
			<point x="737" y="-30" type="curve" smooth="yes"/>
			<point x="737" y="100"/>
			<point x="633" y="140"/>
			<point x="450" y="140" type="curve"/>
			<point x="352" y="-60" type="line"/>
			<point x="508" y="-36"/>
			<point x="637" y="-44"/>
			<point x="637" y="-91" type="curve" smooth="yes"/>
			<point x="637" y="-126"/>
			<point x="556" y="-162"/>
			<point x="481" y="-162" type="curve" smooth="yes"/>
			<point x="379" y="-162"/>
			<point x="272" y="-119"/>
			<point x="247" y="142" type="curve"/>
			<point x="20" y="52" type="line"/>
			<point x="46" y="-197"/>
			<point x="247" y="-310"/>
		</contour>
		<contour>
			<point x="352" y="-60" type="curve"/>
			<point x="451" y="-16" type="line"/>
			<point x="451" y="163"/>
			<point x="513" y="232"/>
			<point x="543" y="232" type="curve" smooth="yes"/>
			<point x="575" y="232"/>
			<point x="579" y="183"/>
			<point x="579" y="168" type="curve"/>
			<point x="800" y="182" type="line"/>
			<point x="800" y="282"/>
			<point x="771" y="411"/>
			<point x="644" y="411" type="curve" smooth="yes"/>
			<point x="437" y="411"/>
			<point x="352" y="203"/>
		</contour>
	</outline>
</glyph>
<glyph name="uni064B" format="2">
	<advance width="0"/>
	<unicode hex="064B"/>
	<anchor x="50" y="567" name="_top"/>
	<anchor x="50" y="777" name="top"/>
	<outline>
		<contour>
			<point x="-71" y="678" type="curve"/>
			<point x="-71" y="597" type="line"/>
			<point x="35" y="633"/>
			<point x="80" y="647"/>
			<point x="171" y="672" type="curve"/>
			<point x="171" y="719" type="line"/>
			<point x="84" y="706"/>
			<point x="25" y="696"/>
		</contour>
		<contour>
			<point x="-71" y="744" type="curve"/>
			<point x="-71" y="697" type="line"/>
			<point x="16" y="717"/>
			<point x="75" y="729"/>
			<point x="171" y="748" type="curve"/>
			<point x="171" y="829" type="line"/>
			<point x="65" y="792"/>
			<point x="20" y="776"/>
		</contour>
	</outline>
</glyph>
<glyph name="uni064C" format="2">
	<advance width="0"/>
	<unicode hex="064C"/>
	<anchor x="50" y="585" name="_top"/>
	<anchor x="50" y="771" name="top"/>
	<outline>
		<contour>
			<point x="-70" y="611" type="curve"/>
			<point x="8" y="611" type="line"/>
			<point x="3" y="627"/>
			<point x="1" y="641"/>
			<point x="2" y="658" type="curve"/>
			<point x="22" y="632"/>
			<point x="56" y="621"/>
			<point x="84" y="621" type="curve" smooth="yes"/>
			<point x="124" y="621"/>
			<point x="171" y="647"/>
			<point x="171" y="712" type="curve" smooth="yes"/>
			<point x="171" y="765"/>
			<point x="140" y="791"/>
			<point x="103" y="791" type="curve" smooth="yes"/>
			<point x="59" y="791"/>
			<point x="35" y="753"/>
			<point x="35" y="711" type="curve" smooth="yes"/>
			<point x="35" y="683"/>
			<point x="46" y="647"/>
			<point x="69" y="626" type="curve"/>
			<point x="111" y="633" type="line"/>
			<point x="92" y="647"/>
			<point x="75" y="663"/>
			<point x="75" y="686" type="curve" smooth="yes"/>
			<point x="75" y="699"/>
			<point x="83" y="709"/>
			<point x="96" y="709" type="curve" smooth="yes"/>
			<point x="107" y="709"/>
			<point x="115" y="701"/>
			<point x="115" y="690" type="curve" smooth="yes"/>
			<point x="115" y="679"/>
			<point x="108" y="663"/>
			<point x="75" y="663" type="curve" smooth="yes"/>
			<point x="36" y="663"/>
			<point x="14" y="688"/>
			<point x="3" y="723" type="curve"/>
			<point x="-25" y="729" type="line"/>
			<point x="-54" y="704"/>
			<point x="-67" y="655"/>
		</contour>
	</outline>
</glyph>
<glyph name="uni0650" format="2">
	<advance width="0"/>
	<unicode hex="0650"/>
	<anchor x="50" y="-60" name="_bottom"/>
	<anchor x="50" y="-173" name="bottom"/>
	<outline>
		<contour>
			<point x="-71" y="-109" type="curve"/>
			<point x="-71" y="-190" type="line"/>
			<point x="35" y="-154"/>
			<point x="80" y="-140"/>
			<point x="171" y="-115" type="curve"/>
			<point x="171" y="-68" type="line"/>
			<point x="84" y="-81"/>
			<point x="25" y="-91"/>
		</contour>
	</outline>
</glyph>
<glyph name="uni0653" format="2">
	<advance width="0"/>
	<unicode hex="0653"/>
	<anchor x="101" y="598" name="_top"/>
	<anchor x="99" y="740" name="top"/>
	<outline>
		<contour>
			<point x="-81" y="735" type="curve"/>
			<point x="-61" y="633" type="line"/>
			<point x="-32" y="665"/>
			<point x="3" y="688"/>
			<point x="36" y="688" type="curve" smooth="yes"/>
			<point x="72" y="688"/>
			<point x="85" y="639"/>
			<point x="172" y="639" type="curve" smooth="yes"/>
			<point x="213" y="639"/>
			<point x="246" y="654"/>
			<point x="279" y="667" type="curve"/>
			<point x="259" y="767" type="line"/>
			<point x="223" y="747"/>
			<point x="196" y="719"/>
			<point x="131" y="719" type="curve" smooth="yes"/>
			<point x="80" y="719"/>
			<point x="57" y="752"/>
			<point x="3" y="752" type="curve" smooth="yes"/>
			<point x="-22" y="752"/>
			<point x="-54" y="745"/>
		</contour>
	</outline>
</glyph>
<glyph name="uni0661" format="2">
	<advance width="355"/>
	<unicode hex="0661"/>
	<outline>
		<contour>
			<point x="144" y="0" type="curve"/>
			<point x="298" y="21" type="line"/>
			<point x="328" y="219"/>
			<point x="312" y="511"/>
			<point x="297" y="700" type="curve"/>
			<point x="40" y="644" type="line"/>
			<point x="94" y="420"/>
			<point x="136" y="199"/>
		</contour>
	</outline>
</glyph>
<glyph name="uni0662" format="2">
	<advance width="580"/>
	<unicode hex="0662"/>
	<outline>
		<contour>
			<point x="53" y="-9" type="curve"/>
			<point x="313" y="26" type="line"/>
			<point x="249" y="171"/>
			<point x="195" y="326"/>
			<point x="195" y="411" type="curve" smooth="yes"/>
			<point x="195" y="469"/>
			<point x="215" y="494"/>
			<point x="262" y="494" type="curve" smooth="yes"/>
			<point x="306" y="494"/>
			<point x="378" y="463"/>
			<point x="475" y="394" type="curve"/>
			<point x="540" y="596" type="line"/>
			<point x="455" y="612"/>
			<point x="389" y="621"/>
			<point x="325" y="621" type="curve" smooth="yes"/>
			<point x="120" y="621"/>
			<point x="40" y="531"/>
			<point x="40" y="262" type="curve" smooth="yes"/>
			<point x="40" y="180"/>
			<point x="47" y="107"/>
		</contour>
	</outline>
</glyph>
<glyph name="uni0663" format="2">
	<advance width="780"/>
	<unicode hex="0663"/>
	<outline>
		<contour>
			<point x="117" y="-9" type="curve"/>
			<point x="379" y="18" type="line"/>
			<point x="393" y="223"/>
			<point x="297" y="487"/>
			<point x="214" y="672" type="curve"/>
			<point x="80" y="642" type="line"/>
			<point x="134" y="420"/>
			<point x="155" y="227"/>
		</contour>
		<contour>
			<point x="355" y="356" type="curve" smooth="yes"/>
			<point x="495" y="356"/>
			<point x="480" y="565"/>
			<point x="489" y="634" type="curve"/>
			<point x="329" y="630" type="line"/>
			<point x="345" y="593"/>
			<point x="359" y="548"/>
			<point x="359" y="511" type="curve" smooth="yes"/>
			<point x="359" y="491"/>
			<point x="354" y="471"/>
			<point x="329" y="471" type="curve" smooth="yes"/>
			<point x="288" y="471"/>
			<point x="260" y="579"/>
			<point x="214" y="672" type="curve"/>
			<point x="193" y="573" type="line"/>
			<point x="206" y="530"/>
			<point x="256" y="356"/>
		</contour>
		<contour>
			<point x="588" y="348" type="curve" smooth="yes"/>
			<point x="668" y="348"/>
			<point x="750" y="401"/>
			<point x="750" y="553" type="curve" smooth="yes"/>
			<point x="750" y="614"/>
			<point x="743" y="650"/>
			<point x="733" y="699" type="curve"/>
			<point x="537" y="637" type="line"/>
			<point x="565" y="579"/>
			<point x="579" y="538"/>
			<point x="579" y="496" type="curve" smooth="yes"/>
			<point x="579" y="465"/>
			<point x="566" y="447"/>
			<point x="547" y="447" type="curve" smooth="yes"/>
			<point x="495" y="447"/>
			<point x="486" y="603"/>
			<point x="489" y="634" type="curve"/>
			<point x="440" y="440" type="line"/>
			<point x="452" y="388"/>
			<point x="519" y="348"/>
		</contour>
	</outline>
</glyph>
<glyph name="uni0664" format="2">
	<advance width="547"/>
	<unicode hex="0664"/>
	<outline>
		<contour>
			<point x="260" y="-26" type="curve" smooth="yes"/>
			<point x="348" y="-26"/>
			<point x="417" y="-17"/>
			<point x="517" y="8" type="curve"/>
			<point x="435" y="207" type="line"/>
			<point x="367" y="176"/>
			<point x="288" y="157"/>
			<point x="244" y="157" type="curve" smooth="yes"/>
			<point x="207" y="157"/>
			<point x="178" y="163"/>
			<point x="178" y="196" type="curve" smooth="yes"/>
			<point x="178" y="225"/>
			<point x="216" y="240"/>
			<point x="273" y="245" type="curve" smooth="yes"/>
			<point x="318" y="249"/>
			<point x="374" y="250"/>
			<point x="434" y="240" type="curve"/>
			<point x="330" y="356" type="line"/>
			<point x="197" y="310"/>
			<point x="30" y="285"/>
			<point x="30" y="132" type="curve" smooth="yes"/>
			<point x="30" y="22"/>
			<point x="142" y="-26"/>
		</contour>
		<contour>
			<point x="287" y="281" type="curve"/>
			<point x="434" y="240" type="line"/>
			<point x="388" y="385" type="line"/>
			<point x="360" y="376"/>
			<point x="324" y="370"/>
			<point x="288" y="370" type="curve" smooth="yes"/>
			<point x="239" y="370"/>
			<point x="210" y="382"/>
			<point x="210" y="409" type="curve" smooth="yes"/>
			<point x="210" y="432"/>
			<point x="237" y="444"/>
			<point x="273" y="444" type="curve" smooth="yes"/>
			<point x="313" y="444"/>
			<point x="348" y="436"/>
			<point x="393" y="420" type="curve"/>
			<point x="487" y="568" type="line"/>
			<point x="416" y="597"/>
			<point x="361" y="610"/>
			<point x="287" y="610" type="curve" smooth="yes"/>
			<point x="153" y="610"/>
			<point x="50" y="551"/>
			<point x="50" y="450" type="curve" smooth="yes"/>
			<point x="50" y="323"/>
			<point x="167" y="281"/>
		</contour>
	</outline>
</glyph>
<glyph name="uni0665" format="2">
	<advance width="606"/>
	<unicode hex="0665"/>
	<outline>
		<contour>
			<point x="264" y="-30" type="curve" smooth="yes"/>
			<point x="450" y="-30"/>
			<point x="565" y="68"/>
			<point x="575" y="201" type="curve" smooth="yes"/>
			<point x="585" y="324"/>
			<point x="504" y="477"/>
			<point x="306" y="610" type="curve"/>
			<point x="181" y="392" type="line"/>
			<point x="382" y="350"/>
			<point x="464" y="298"/>
			<point x="466" y="258" type="curve" smooth="yes"/>
			<point x="467" y="220"/>
			<point x="398" y="193"/>
			<point x="288" y="193" type="curve" smooth="yes"/>
			<point x="204" y="193"/>
			<point x="172" y="215"/>
			<point x="172" y="252" type="curve" smooth="yes"/>
			<point x="171" y="310"/>
			<point x="250" y="406"/>
			<point x="338" y="518" type="curve"/>
			<point x="306" y="610" type="line"/>
			<point x="140" y="428"/>
			<point x="35" y="258"/>
			<point x="30" y="138" type="curve" smooth="yes"/>
			<point x="25" y="35"/>
			<point x="95" y="-30"/>
		</contour>
	</outline>
</glyph>
<glyph name="uni0666" format="2">
	<advance width="633"/>
	<unicode hex="0666"/>
	<outline>
		<contour>
			<point x="343" y="-9" type="curve"/>
			<point x="613" y="26" type="line"/>
			<point x="559" y="201"/>
			<point x="536" y="324"/>
			<point x="526" y="418" type="curve" smooth="yes"/>
			<point x="503" y="628"/>
			<point x="432" y="701"/>
			<point x="232" y="701" type="curve" smooth="yes"/>
			<point x="170" y="701"/>
			<point x="103" y="692"/>
			<point x="20" y="676" type="curve"/>
			<point x="112" y="474" type="line"/>
			<point x="207" y="543"/>
			<point x="267" y="574"/>
			<point x="310" y="574" type="curve" smooth="yes"/>
			<point x="356" y="574"/>
			<point x="381" y="540"/>
			<point x="375" y="482" type="curve" smooth="yes"/>
			<point x="356" y="312"/>
			<point x="343" y="153"/>
		</contour>
	</outline>
</glyph>
<glyph name="uni0667" format="2">
	<advance width="720"/>
	<unicode hex="0667"/>
	<outline>
		<contour>
			<point x="364" y="97" type="curve"/>
			<point x="321" y="-2" type="line"/>
			<point x="441" y="17" type="line"/>
			<point x="503" y="205"/>
			<point x="579" y="344"/>
			<point x="700" y="554" type="curve"/>
			<point x="523" y="588" type="line"/>
			<point x="462" y="410"/>
			<point x="413" y="304"/>
		</contour>
		<contour>
			<point x="321" y="-2" type="curve"/>
			<point x="433" y="110" type="line"/>
			<point x="398" y="320"/>
			<point x="355" y="393"/>
			<point x="270" y="599" type="curve"/>
			<point x="20" y="527" type="line"/>
			<point x="164" y="311"/>
			<point x="250" y="186"/>
		</contour>
	</outline>
</glyph>
<glyph name="uni0668" format="2">
	<advance width="720"/>
	<unicode hex="0668"/>
	<outline>
		<contour>
			<point x="450" y="-2" type="curve"/>
			<point x="700" y="70" type="line"/>
			<point x="556" y="286"/>
			<point x="470" y="411"/>
			<point x="399" y="599" type="curve"/>
			<point x="287" y="487" type="line"/>
			<point x="322" y="277"/>
			<point x="365" y="204"/>
		</contour>
		<contour>
			<point x="20" y="43" type="curve"/>
			<point x="197" y="9" type="line"/>
			<point x="258" y="187"/>
			<point x="307" y="293"/>
			<point x="356" y="500" type="curve"/>
			<point x="399" y="599" type="line"/>
			<point x="279" y="580" type="line"/>
			<point x="217" y="392"/>
			<point x="141" y="253"/>
		</contour>
	</outline>
</glyph>
<glyph name="uni0669" format="2">
	<advance width="673"/>
	<unicode hex="0669"/>
	<outline>
		<contour>
			<point x="201" y="137" type="curve" smooth="yes"/>
			<point x="350" y="137"/>
			<point x="438" y="305"/>
			<point x="446" y="386" type="curve"/>
			<point x="371" y="425" type="line"/>
			<point x="363" y="377"/>
			<point x="322" y="332"/>
			<point x="273" y="332" type="curve" smooth="yes"/>
			<point x="240" y="332"/>
			<point x="213" y="349"/>
			<point x="213" y="384" type="curve" smooth="yes"/>
			<point x="213" y="513"/>
			<point x="465" y="528"/>
			<point x="562" y="502" type="curve"/>
			<point x="590" y="595" type="line"/>
			<point x="339" y="667"/>
			<point x="20" y="584"/>
			<point x="20" y="316" type="curve" smooth="yes"/>
			<point x="20" y="192"/>
			<point x="104" y="137"/>
		</contour>
		<contour>
			<point x="373" y="-29" type="curve"/>
			<point x="633" y="6" type="line"/>
			<point x="552" y="248"/>
			<point x="525" y="347"/>
			<point x="525" y="582" type="curve"/>
			<point x="399" y="560" type="line"/>
			<point x="387" y="516"/>
			<point x="377" y="471"/>
			<point x="371" y="425" type="curve" smooth="yes"/>
			<point x="362" y="367"/>
			<point x="349" y="149"/>
		</contour>
	</outline>
</glyph>
<glyph name="uni066A" format="2">
	<advance width="713"/>
	<unicode hex="066A"/>
	<outline>
		<contour>
			<point x="204" y="-68" type="line"/>
			<point x="623" y="761" type="line"/>
			<point x="515" y="789" type="line"/>
			<point x="115" y="-39" type="line"/>
		</contour>
		<component base="uni0660" xOffset="306" yOffset="-150"/>
		<component base="uni0660" yOffset="260"/>
	</outline>
</glyph>
<glyph name="uni06A1" format="2">
	<advance width="960"/>
	<unicode hex="06A1"/>
	<anchor x="664" y="-75" name="bottom"/>
	<anchor x="708" y="550" name="top"/>
	<outline>
		<contour>
			<point x="496" y="-7" type="curve"/>
			<point x="714" y="-7"/>
			<point x="920" y="86"/>
			<point x="920" y="255" type="curve" smooth="yes"/>
			<point x="920" y="368"/>
			<point x="830" y="432"/>
			<point x="696" y="432" type="curve" smooth="yes"/>
			<point x="538" y="432"/>
			<point x="469" y="337"/>
			<point x="469" y="251" type="curve" smooth="yes"/>
			<point x="469" y="162"/>
			<point x="553" y="107"/>
			<point x="649" y="78" type="curve"/>
			<point x="714" y="135" type="line"/>
			<point x="632" y="162"/>
			<point x="590" y="200"/>
			<point x="590" y="234" type="curve" smooth="yes"/>
			<point x="590" y="258"/>
			<point x="612" y="280"/>
			<point x="645" y="280" type="curve" smooth="yes"/>
			<point x="674" y="280"/>
			<point x="700" y="264"/>
			<point x="700" y="236" type="curve" smooth="yes"/>
			<point x="700" y="169"/>
			<point x="614" y="100"/>
			<point x="499" y="100" type="curve" smooth="yes"/>
			<point x="391" y="100"/>
			<point x="282" y="177"/>
			<point x="236" y="350" type="curve"/>
			<point x="20" y="220" type="line"/>
			<point x="138" y="37"/>
			<point x="325" y="-7"/>
		</contour>
	</outline>
</glyph>
<glyph name="uni06F4" format="2">
	<advance width="788"/>
	<unicode hex="06F4"/>
	<outline>
		<contour>
			<point x="103" y="-20" type="curve"/>
			<point x="257" y="1" type="line"/>
			<point x="284" y="83"/>
			<point x="299" y="265"/>
			<point x="302" y="428" type="curve" smooth="yes"/>
			<point x="303" y="500"/>
			<point x="304" y="538"/>
			<point x="297" y="620" type="curve"/>
			<point x="40" y="564" type="line"/>
			<point x="93" y="343"/>
			<point x="105" y="128"/>
		</contour>
		<contour>
			<point x="713" y="189" type="curve"/>
			<point x="673" y="369" type="line"/>
			<point x="543" y="304"/>
			<point x="302" y="303"/>
			<point x="302" y="428" type="curve"/>
			<point x="265" y="358" type="line"/>
			<point x="265" y="156"/>
			<point x="528" y="147"/>
		</contour>
		<contour>
			<point x="689" y="234" type="curve"/>
			<point x="673" y="369" type="line"/>
			<point x="643" y="358"/>
			<point x="604" y="352"/>
			<point x="568" y="352" type="curve" smooth="yes"/>
			<point x="518" y="352"/>
			<point x="481" y="365"/>
			<point x="481" y="401" type="curve" smooth="yes"/>
			<point x="481" y="434"/>
			<point x="515" y="447"/>
			<point x="558" y="447" type="curve" smooth="yes"/>
			<point x="600" y="447"/>
			<point x="650" y="434"/>
			<point x="683" y="415" type="curve"/>
			<point x="758" y="584" type="line"/>
			<point x="676" y="608"/>
			<point x="621" y="619"/>
			<point x="545" y="619" type="curve" smooth="yes"/>
			<point x="419" y="619"/>
			<point x="338" y="570"/>
			<point x="338" y="453" type="curve" smooth="yes"/>
			<point x="338" y="307"/>
			<point x="542" y="234"/>
		</contour>
	</outline>
</glyph>
<glyph name="uni06F5" format="2">
	<advance width="660"/>
	<unicode hex="06F5"/>
	<outline>
		<contour>
			<point x="187" y="-7" type="curve" smooth="yes"/>
			<point x="265" y="-7"/>
			<point x="289" y="23"/>
			<point x="324" y="63" type="curve"/>
			<point x="374" y="23"/>
			<point x="406" y="0"/>
			<point x="476" y="0" type="curve" smooth="yes"/>
			<point x="594" y="0"/>
			<point x="620" y="176"/>
			<point x="620" y="298" type="curve" smooth="yes"/>
			<point x="620" y="468"/>
			<point x="521" y="593"/>
			<point x="334" y="710" type="curve"/>
			<point x="209" y="492" type="line"/>
			<point x="427" y="450"/>
			<point x="518" y="376"/>
			<point x="518" y="302" type="curve" smooth="yes"/>
			<point x="518" y="263"/>
			<point x="491" y="232"/>
			<point x="451" y="232" type="curve" smooth="yes"/>
			<point x="415" y="232"/>
			<point x="387" y="276"/>
			<point x="359" y="276" type="curve" smooth="yes"/>
			<point x="334" y="276"/>
			<point x="300" y="224"/>
			<point x="258" y="224" type="curve" smooth="yes"/>
			<point x="215" y="224"/>
			<point x="200" y="251"/>
			<point x="200" y="302" type="curve" smooth="yes"/>
			<point x="200" y="380"/>
			<point x="253" y="483"/>
			<point x="366" y="618" type="curve"/>
			<point x="334" y="710" type="line"/>
			<point x="164" y="530"/>
			<point x="40" y="359"/>
			<point x="40" y="187" type="curve" smooth="yes"/>
			<point x="40" y="88"/>
			<point x="74" y="-7"/>
		</contour>
	</outline>
</glyph>
<glyph name="uni06F6" format="2">
	<advance width="538"/>
	<unicode hex="06F6"/>
	<outline>
		<contour>
			<point x="30" y="-13" type="curve"/>
			<point x="267" y="-30" type="line"/>
			<point x="267" y="149"/>
			<point x="308" y="234"/>
			<point x="439" y="234" type="curve"/>
			<point x="400" y="318" type="line"/>
			<point x="148" y="318"/>
			<point x="45" y="92"/>
		</contour>
		<contour>
			<point x="439" y="234" type="curve"/>
			<point x="423" y="369" type="line"/>
			<point x="393" y="358"/>
			<point x="354" y="352"/>
			<point x="318" y="352" type="curve" smooth="yes"/>
			<point x="268" y="352"/>
			<point x="231" y="365"/>
			<point x="231" y="401" type="curve" smooth="yes"/>
			<point x="231" y="434"/>
			<point x="265" y="447"/>
			<point x="308" y="447" type="curve" smooth="yes"/>
			<point x="350" y="447"/>
			<point x="400" y="434"/>
			<point x="433" y="415" type="curve"/>
			<point x="508" y="584" type="line"/>
			<point x="426" y="608"/>
			<point x="371" y="619"/>
			<point x="295" y="619" type="curve" smooth="yes"/>
			<point x="169" y="619"/>
			<point x="88" y="570"/>
			<point x="88" y="453" type="curve" smooth="yes"/>
			<point x="88" y="307"/>
			<point x="292" y="234"/>
		</contour>
	</outline>
</glyph>
<glyph name="endash" format="2">
	<advance width="512"/>
	<unicode hex="2013"/>
	<outline>
		<contour>
			<point x="30" y="401" type="curve"/>
			<point x="27" y="207" type="line"/>
			<point x="180" y="205"/>
			<point x="332" y="212"/>
			<point x="485" y="230" type="curve"/>
			<point x="484" y="380" type="line"/>
			<point x="333" y="377"/>
			<point x="181" y="384"/>
		</contour>
	</outline>
</glyph>
<glyph name="daggerdbl" format="2">
	<advance width="540"/>
	<unicode hex="2021"/>
	<outline>
		<contour>
			<point x="188" y="-210" type="curve"/>
			<point x="328" y="-203" type="line"/>
			<point x="348" y="143"/>
			<point x="347" y="468"/>
			<point x="327" y="774" type="curve"/>
			<point x="157" y="757" type="line"/>
			<point x="187" y="455"/>
			<point x="198" y="132"/>
		</contour>
		<contour>
			<point x="27" y="174" type="curve"/>
			<point x="30" y="-21" type="line"/>
			<point x="157" y="-24"/>
			<point x="385" y="-17"/>
			<point x="512" y="0" type="curve"/>
			<point x="513" y="150" type="line"/>
			<point x="384" y="148"/>
			<point x="156" y="156"/>
		</contour>
		<contour>
			<point x="513" y="358" type="curve"/>
			<point x="510" y="553" type="line"/>
			<point x="383" y="556"/>
			<point x="155" y="549"/>
			<point x="28" y="532" type="curve"/>
			<point x="27" y="382" type="line"/>
			<point x="156" y="384"/>
			<point x="384" y="376"/>
		</contour>
	</outline>
</glyph>
<glyph name="bullet" format="2">
	<advance width="364"/>
	<unicode hex="2022"/>
	<outline>
		<contour>
			<point x="182" y="181" type="curve" smooth="yes"/>
			<point x="266" y="181"/>
			<point x="332" y="247"/>
			<point x="332" y="331" type="curve" smooth="yes"/>
			<point x="332" y="415"/>
			<point x="266" y="481"/>
			<point x="182" y="481" type="curve" smooth="yes"/>
			<point x="98" y="481"/>
			<point x="32" y="415"/>
			<point x="32" y="331" type="curve" smooth="yes"/>
			<point x="32" y="247"/>
			<point x="98" y="181"/>
		</contour>
	</outline>
</glyph>
<glyph name="perthousand" format="2">
	<advance width="1222"/>
	<unicode hex="2030"/>
	<outline>
		<component base="percent"/>
		<contour>
			<point x="1031" y="-7" type="curve" smooth="yes"/>
			<point x="1111" y="-7"/>
			<point x="1195" y="58"/>
			<point x="1195" y="186" type="curve" smooth="yes"/>
			<point x="1195" y="314"/>
			<point x="1111" y="379"/>
			<point x="1033" y="379" type="curve" smooth="yes"/>
			<point x="954" y="379"/>
			<point x="870" y="315"/>
			<point x="870" y="184" type="curve" smooth="yes"/>
			<point x="870" y="57"/>
			<point x="953" y="-7"/>
		</contour>
		<contour>
			<point x="1030" y="92" type="curve" smooth="yes"/>
			<point x="1007" y="92"/>
			<point x="994" y="125"/>
			<point x="994" y="198" type="curve" smooth="yes"/>
			<point x="994" y="268"/>
			<point x="1007" y="302"/>
			<point x="1031" y="302" type="curve" smooth="yes"/>
			<point x="1056" y="302"/>
			<point x="1071" y="266"/>
			<point x="1071" y="199" type="curve" smooth="yes"/>
			<point x="1071" y="130"/>
			<point x="1054" y="92"/>
		</contour>
	</outline>
</glyph>
<glyph name="guilsinglleft" format="2">
	<advance width="363"/>
	<unicode hex="2039"/>
	<outline>
		<contour>
			<point x="107" y="319" type="line"/>
			<point x="325" y="512" type="line"/>
			<point x="273" y="644" type="line"/>
			<point x="27" y="365" type="line"/>
		</contour>
		<contour>
			<point x="272" y="120" type="line"/>
			<point x="336" y="244" type="line"/>
			<point x="94" y="433" type="line"/>
			<point x="27" y="365" type="line"/>
		</contour>
	</outline>
</glyph>
<glyph name="fraction" format="2">
	<advance width="528"/>
	<unicode hex="2044"/>
	<outline>
		<contour>
			<point x="99" y="-38" type="line"/>
			<point x="518" y="791" type="line"/>
			<point x="410" y="869" type="line"/>
			<point x="10" y="41" type="line"/>
		</contour>
	</outline>
</glyph>
<glyph name="Euro" format="2">
	<advance width="722"/>
	<unicode hex="20AC"/>
	<outline>
		<contour>
			<point x="441" y="-2" type="curve" smooth="yes"/>
			<point x="517" y="-2"/>
			<point x="595" y="16"/>
			<point x="667" y="54" type="curve"/>
			<point x="667" y="152" type="line"/>
			<point x="616" y="130"/>
			<point x="558" y="117"/>
			<point x="503" y="117" type="curve" smooth="yes"/>
			<point x="400" y="117"/>
			<point x="299" y="161"/>
			<point x="299" y="345" type="curve" smooth="yes"/>
			<point x="299" y="460"/>
			<point x="385" y="557"/>
			<point x="517" y="557" type="curve" smooth="yes"/>
			<point x="567" y="557"/>
			<point x="620" y="549"/>
			<point x="671" y="531" type="curve"/>
			<point x="695" y="700" type="line"/>
			<point x="637" y="731"/>
			<point x="558" y="748"/>
			<point x="475" y="748" type="curve" smooth="yes"/>
			<point x="267" y="748"/>
			<point x="32" y="638"/>
			<point x="32" y="356" type="curve" smooth="yes"/>
			<point x="32" y="138"/>
			<point x="228" y="-2"/>
		</contour>
		<contour>
			<point x="-17" y="330" type="curve"/>
			<point x="-20" y="187" type="line"/>
			<point x="133" y="185"/>
			<point x="285" y="191"/>
			<point x="438" y="208" type="curve"/>
			<point x="437" y="310" type="line"/>
			<point x="286" y="307"/>
			<point x="134" y="314"/>
		</contour>
		<contour>
			<point x="448" y="335" type="curve"/>
			<point x="445" y="478" type="line"/>
			<point x="294" y="462"/>
			<point x="142" y="456"/>
			<point x="-9" y="458" type="curve"/>
			<point x="-10" y="356" type="line"/>
			<point x="143" y="340"/>
			<point x="295" y="333"/>
		</contour>
	</outline>
</glyph>
<glyph name="minus" format="2">
	<advance width="460"/>
	<unicode hex="2212"/>
	<outline>
		<contour>
			<point x="433" y="258" type="curve"/>
			<point x="430" y="453" type="line"/>
			<point x="303" y="456"/>
			<point x="155" y="449"/>
			<point x="28" y="432" type="curve"/>
			<point x="27" y="282" type="line"/>
			<point x="156" y="284"/>
			<point x="304" y="276"/>
		</contour>
	</outline>
</glyph>
<glyph name="uni3008" format="2">
	<advance width="423"/>
	<unicode hex="3008"/>
	<outline>
		<contour>
			<point x="185" y="-110" type="line"/>
			<point x="389" y="-91" type="line"/>
			<point x="107" y="355" type="line"/>
			<point x="27" y="325" type="line"/>
		</contour>
		<contour>
			<point x="123" y="322" type="line"/>
			<point x="396" y="749" type="line"/>
			<point x="187" y="770" type="line"/>
			<point x="27" y="325" type="line"/>
		</contour>
	</outline>
</glyph>
<glyph name="uniFD3E" format="2">
	<advance width="455"/>
	<unicode hex="FD3E"/>
	<outline>
		<contour>
			<point x="143" y="496" type="curve"/>
			<point x="283" y="489" type="line"/>
			<point x="275" y="532"/>
			<point x="269" y="605"/>
			<point x="269" y="634" type="curve" smooth="yes"/>
			<point x="269" y="696"/>
			<point x="294" y="706"/>
			<point x="315" y="706" type="curve" smooth="yes"/>
			<point x="335" y="706"/>
			<point x="370" y="693"/>
			<point x="415" y="668" type="curve"/>
			<point x="445" y="760" type="line"/>
			<point x="410" y="771"/>
			<point x="378" y="776"/>
			<point x="349" y="776" type="curve" smooth="yes"/>
			<point x="213" y="776"/>
			<point x="143" y="665"/>
		</contour>
		<contour>
			<point x="349" y="-133" type="curve" smooth="yes"/>
			<point x="378" y="-133"/>
			<point x="410" y="-128"/>
			<point x="445" y="-117" type="curve"/>
			<point x="415" y="-25" type="line"/>
			<point x="370" y="-50"/>
			<point x="335" y="-63"/>
			<point x="315" y="-63" type="curve" smooth="yes"/>
			<point x="294" y="-63"/>
			<point x="269" y="-53"/>
			<point x="269" y="9" type="curve" smooth="yes"/>
			<point x="269" y="38"/>
			<point x="275" y="111"/>
			<point x="283" y="154" type="curve"/>
			<point x="143" y="147" type="line"/>
			<point x="143" y="-22"/>
			<point x="213" y="-133"/>
		</contour>
		<component base="uni066D" xScale="0.7" yScale="0.7" xOffset="-36" yOffset="132"/>
	</outline>
</glyph>
<glyph name="T_H" format="2">
	<advance width="1445"/>
	<outline>
		<contour>
			<point x="272" y="-18" type="curve"/>
			<point x="476" y="18" type="line"/>
			<point x="516" y="318"/>
			<point x="526" y="492"/>
			<point x="522" y="767" type="curve"/>
			<point x="245" y="725" type="line"/>
			<point x="275" y="463"/>
			<point x="282" y="249"/>
		</contour>
		<contour>
			<point x="682" y="-18" type="curve"/>
			<point x="886" y="18" type="line"/>
			<point x="917" y="247"/>
			<point x="930" y="393"/>
			<point x="932" y="576" type="curve"/>
			<point x="673" y="535" type="line"/>
			<point x="689" y="320"/>
			<point x="689" y="151"/>
		</contour>
		<contour>
			<point x="875" y="626" type="line"/>
			<point x="876" y="800" type="line"/>
			<point x="27" y="750" type="line"/>
			<point x="31" y="640" type="line"/>
		</contour>
		<contour>
			<point x="714" y="412" type="curve"/>
			<point x="704" y="341" type="line"/>
			<point x="887" y="284"/>
			<point x="1218" y="312"/>
			<point x="1370" y="335" type="curve"/>
			<point x="1330" y="456" type="line"/>
			<point x="1171" y="393"/>
			<point x="882" y="387"/>
		</contour>
		<contour>
			<point x="1164" y="-12" type="curve"/>
			<point x="1367" y="30" type="line"/>
			<point x="1398" y="322"/>
			<point x="1404" y="465"/>
			<point x="1393" y="750" type="curve"/>
			<point x="1117" y="700" type="line"/>
			<point x="1160" y="398"/>
			<point x="1164" y="304"/>
		</contour>
	</outline>
</glyph>
<glyph name="dotbelow-ar" format="2">
	<advance width="0"/>
	<anchor x="50" y="0" name="_bottom"/>
	<anchor x="50" y="-192" name="bottom"/>
	<outline>
		<contour>
			<point x="57" y="-185" type="curve"/>
			<point x="149" y="-91" type="line"/>
			<point x="106" y="-62"/>
			<point x="75" y="-34"/>
			<point x="42" y="3" type="curve"/>
			<point x="-49" y="-95" type="line"/>
			<point x="-22" y="-129"/>
			<point x="18" y="-160"/>
		</contour>
	</outline>
</glyph>
<glyph name="dotcenter-ar" format="2">
	<advance width="0"/>
	<anchor x="50" y="397" name="_center"/>
	<outline>
		<contour>
			<point x="57" y="311" type="curve"/>
			<point x="149" y="405" type="line"/>
			<point x="106" y="434"/>
			<point x="75" y="462"/>
			<point x="42" y="499" type="curve"/>
			<point x="-49" y="401" type="line"/>
			<point x="-22" y="367"/>
			<point x="18" y="336"/>
		</contour>
	</outline>
</glyph>
<glyph name="f_i" format="2">
	<advance width="672"/>
	<outline>
		<contour>
			<point x="81" y="0" type="curve"/>
			<point x="337" y="-2" type="line"/>
			<point x="302" y="156"/>
			<point x="262" y="364"/>
			<point x="251" y="450" type="curve" smooth="yes"/>
			<point x="234" y="589"/>
			<point x="302" y="606"/>
			<point x="443" y="572" type="curve"/>
			<point x="425" y="742" type="line"/>
			<point x="208" y="742"/>
			<point x="94" y="624"/>
			<point x="86" y="357" type="curve" smooth="yes"/>
			<point x="83" y="262"/>
			<point x="79" y="133"/>
		</contour>
		<contour>
			<point x="610" y="334" type="curve"/>
			<point x="625" y="435" type="line"/>
			<point x="505" y="458"/>
			<point x="142" y="470"/>
			<point x="5" y="456" type="curve"/>
			<point x="23" y="380" type="line"/>
			<point x="150" y="386"/>
			<point x="497" y="367"/>
		</contour>
		<contour>
			<point x="415" y="-10" type="curve"/>
			<point x="589" y="8" type="line"/>
			<point x="620" y="181"/>
			<point x="625" y="319"/>
			<point x="625" y="435" type="curve"/>
			<point x="387" y="448" type="line"/>
			<point x="410" y="298"/>
			<point x="419" y="149"/>
		</contour>
	</outline>
</glyph>
<glyph name="gafsarkashabove-ar" format="2">
	<advance width="0"/>
	<anchor x="49" y="549" name="_top"/>
	<outline>
		<contour>
			<point x="-118" y="473" type="curve"/>
			<point x="-43" y="364" type="line"/>
			<point x="79" y="510"/>
			<point x="161" y="674"/>
			<point x="206" y="786" type="curve"/>
			<point x="149" y="823" type="line"/>
			<point x="94" y="723"/>
			<point x="-8" y="588"/>
		</contour>
	</outline>
</glyph>
<glyph name="period.salt" format="2">
	<advance width="300"/>
	<outline>
		<contour>
			<point x="155" y="-10" type="curve" smooth="yes"/>
			<point x="220" y="-10"/>
			<point x="260" y="43"/>
			<point x="260" y="93" type="curve" smooth="yes"/>
			<point x="260" y="140"/>
			<point x="226" y="185"/>
			<point x="145" y="185" type="curve" smooth="yes"/>
			<point x="80" y="185"/>
			<point x="40" y="132"/>
			<point x="40" y="81" type="curve" smooth="yes"/>
			<point x="40" y="34"/>
			<point x="74" y="-10"/>
		</contour>
	</outline>
</glyph>
<glyph name="threedotsdownabove-ar" format="2">
	<advance width="0"/>
	<anchor x="52" y="493" name="_top"/>
	<anchor x="50" y="807" name="top"/>
	<outline>
		<contour>
			<point x="63" y="494" type="curve"/>
			<point x="141" y="575" type="line"/>
			<point x="105" y="599"/>
			<point x="78" y="623"/>
			<point x="50" y="655" type="curve"/>
			<point x="-28" y="571" type="line"/>
			<point x="-5" y="542"/>
			<point x="29" y="516"/>
		</contour>
		<contour>
			<point x="-6" y="625" type="curve"/>
			<point x="82" y="715" type="line"/>
			<point x="41" y="742"/>
			<point x="11" y="769"/>
			<point x="-20" y="804" type="curve"/>
			<point x="-107" y="711" type="line"/>
			<point x="-81" y="679"/>
			<point x="-43" y="649"/>
		</contour>
		<contour>
			<point x="119" y="625" type="curve"/>
			<point x="207" y="715" type="line"/>
			<point x="166" y="742"/>
			<point x="136" y="769"/>
			<point x="105" y="804" type="curve"/>
			<point x="18" y="711" type="line"/>
			<point x="44" y="679"/>
			<point x="82" y="649"/>
		</contour>
	</outline>
</glyph>
<glyph name="threedotsupbelow-ar" format="2">
	<advance width="0"/>
	<anchor x="51" y="1" name="_bottom"/>
	<anchor x="50" y="-310" name="bottom"/>
	<outline>
		<contour>
			<point x="46" y="-153" type="curve"/>
			<point x="127" y="-74" type="line"/>
			<point x="93" y="-46"/>
			<point x="73" y="-22"/>
			<point x="46" y="10" type="curve"/>
			<point x="-38" y="-73" type="line"/>
			<point x="-12" y="-103"/>
			<point x="14" y="-130"/>
		</contour>
		<contour>
			<point x="-6" y="-298" type="curve"/>
			<point x="82" y="-208" type="line"/>
			<point x="41" y="-181"/>
			<point x="11" y="-154"/>
			<point x="-20" y="-119" type="curve"/>
			<point x="-107" y="-212" type="line"/>
			<point x="-81" y="-245"/>
			<point x="-43" y="-274"/>
		</contour>
		<contour>
			<point x="119" y="-298" type="curve"/>
			<point x="207" y="-208" type="line"/>
			<point x="166" y="-181"/>
			<point x="136" y="-154"/>
			<point x="105" y="-119" type="curve"/>
			<point x="18" y="-212" type="line"/>
			<point x="44" y="-245"/>
			<point x="82" y="-274"/>
		</contour>
	</outline>
</glyph>
<glyph name="uni030C.alt" format="2">
	<advance width="0"/>
	<anchor x="150" y="668" name="_topright"/>
	<outline>
		<contour>
			<point x="104" y="521" type="line"/>
			<point x="190" y="531" type="line"/>
			<point x="215" y="726" type="line"/>
			<point x="93" y="721" type="line"/>
		</contour>
	</outline>
</glyph>
<glyph name="uni0627.fina" format="2">
	<advance width="326"/>
	<anchor x="166" y="-100" name="bottom"/>
	<anchor x="166" y="770" name="top"/>
	<outline>
		<contour>
			<point x="326" y="0" type="curve"/>
			<point x="346" y="50" type="line"/>
			<point x="326" y="100" type="line"/>
			<point x="259" y="100"/>
			<point x="246" y="161"/>
			<point x="248" y="254" type="curve" smooth="yes"/>
			<point x="251" y="383"/>
			<point x="272" y="573"/>
			<point x="296" y="740" type="curve"/>
			<point x="40" y="712" type="line"/>
			<point x="41" y="559"/>
			<point x="45" y="383"/>
			<point x="70" y="225" type="curve" smooth="yes"/>
			<point x="93" y="78"/>
			<point x="183" y="0"/>
		</contour>
	</outline>
</glyph>
<glyph name="uni0627.fina.salt" format="2">
	<advance width="327"/>
	<anchor x="166" y="-100" name="bottom"/>
	<anchor x="166" y="720" name="top"/>
	<outline>
		<contour>
			<point x="327" y="0" type="curve"/>
			<point x="347" y="50" type="line"/>
			<point x="327" y="100" type="line"/>
			<point x="260" y="100"/>
			<point x="242" y="161"/>
			<point x="249" y="254" type="curve" smooth="yes"/>
			<point x="257" y="363"/>
			<point x="275" y="536"/>
			<point x="296" y="690" type="curve"/>
			<point x="40" y="662" type="line"/>
			<point x="44" y="522"/>
			<point x="51" y="363"/>
			<point x="71" y="225" type="curve" smooth="yes"/>
			<point x="92" y="78"/>
			<point x="184" y="0"/>
		</contour>
	</outline>
</glyph>
<glyph name="uni0627.salt" format="2">
	<advance width="336"/>
	<anchor x="166" y="-100" name="bottom"/>
	<anchor x="166" y="720" name="top"/>
	<outline>
		<contour>
			<point x="87" y="-31" type="curve"/>
			<point x="211" y="-1" type="line"/>
			<point x="264" y="180"/>
			<point x="300" y="461"/>
			<point x="296" y="687" type="curve"/>
			<point x="40" y="652" type="line"/>
			<point x="80" y="433"/>
			<point x="87" y="217"/>
		</contour>
	</outline>
</glyph>
<glyph name="uni062D.fina" format="2">
	<advance width="630"/>
	<anchor x="338" y="-470" name="bottom"/>
	<anchor x="338" y="521" name="top"/>
	<outline>
		<contour>
			<point x="40" y="440" type="curve"/>
			<point x="84" y="205" type="line"/>
			<point x="232" y="294"/>
			<point x="398" y="301"/>
			<point x="557" y="260" type="curve"/>
			<point x="590" y="359" type="line"/>
			<point x="380" y="440"/>
			<point x="183" y="468"/>
		</contour>
		<contour>
			<point x="336" y="-422" type="curve" smooth="yes"/>
			<point x="417" y="-422"/>
			<point x="488" y="-409"/>
			<point x="600" y="-372" type="curve"/>
			<point x="499" y="-173" type="line"/>
			<point x="435" y="-214"/>
			<point x="362" y="-236"/>
			<point x="299" y="-236" type="curve" smooth="yes"/>
			<point x="214" y="-236"/>
			<point x="147" y="-195"/>
			<point x="147" y="-106" type="curve" smooth="yes"/>
			<point x="147" y="0"/>
			<point x="289" y="145"/>
			<point x="562" y="145" type="curve"/>
			<point x="590" y="359" type="line"/>
			<point x="448" y="291" type="line"/>
			<point x="229" y="257"/>
			<point x="40" y="80"/>
			<point x="40" y="-147" type="curve" smooth="yes"/>
			<point x="40" y="-321"/>
			<point x="178" y="-422"/>
		</contour>
		<contour>
			<point x="630" y="0" type="curve"/>
			<point x="650" y="50" type="line"/>
			<point x="630" y="100" type="line"/>
			<point x="547" y="100"/>
			<point x="497" y="119"/>
			<point x="497" y="202" type="curve"/>
			<point x="375" y="202" type="line"/>
			<point x="376" y="68"/>
			<point x="479" y="0"/>
		</contour>
	</outline>
</glyph>
<glyph name="uni062D.medi" format="2">
	<advance width="610"/>
	<anchor x="285" y="-75" name="bottom"/>
	<anchor x="313" y="580" name="top"/>
	<outline>
		<contour>
			<point x="0" y="100" type="curve"/>
			<point x="0" y="0" type="line"/>
			<point x="273" y="0"/>
			<point x="373" y="139"/>
			<point x="555" y="139" type="curve"/>
			<point x="570" y="369" type="line"/>
			<point x="446" y="369"/>
			<point x="259" y="100"/>
		</contour>
		<contour>
			<point x="610" y="0" type="curve"/>
			<point x="630" y="50" type="line"/>
			<point x="610" y="100" type="line"/>
			<point x="547" y="100"/>
			<point x="497" y="119"/>
			<point x="497" y="202" type="curve"/>
			<point x="375" y="202" type="line"/>
			<point x="376" y="68"/>
			<point x="479" y="0"/>
		</contour>
		<contour>
			<point x="40" y="420" type="curve"/>
			<point x="85" y="195" type="line"/>
			<point x="230" y="281"/>
			<point x="388" y="280"/>
			<point x="537" y="280" type="curve"/>
			<point x="570" y="369" type="line"/>
			<point x="373" y="419"/>
			<point x="248" y="460"/>
		</contour>
	</outline>
</glyph>
<glyph name="uni062D0631.fina" format="2">
	<advance width="870"/>
	<anchor x="595" y="-110" name="bottom_1"/>
	<anchor x="192" y="-540" name="bottom_2"/>
	<anchor x="382" y="0" name="caret_1"/>
	<anchor x="568" y="550" name="top_1"/>
	<anchor x="142" y="450" name="top_2"/>
	<outline>
		<contour>
			<point x="870" y="0" type="curve"/>
			<point x="890" y="50" type="line"/>
			<point x="870" y="100" type="line"/>
			<point x="807" y="100"/>
			<point x="757" y="119"/>
			<point x="757" y="202" type="curve"/>
			<point x="635" y="202" type="line"/>
			<point x="636" y="68"/>
			<point x="739" y="0"/>
		</contour>
		<component base="uni062D0631"/>
	</outline>
</glyph>
<glyph name="uni062D0631" format="2">
	<advance width="870"/>
	<anchor x="595" y="-110" name="bottom_1"/>
	<anchor x="192" y="-540" name="bottom_2"/>
	<anchor x="382" y="0" name="caret_1"/>
	<anchor x="568" y="550" name="top_1"/>
	<anchor x="142" y="450" name="top_2"/>
	<outline>
		<contour>
			<point x="-80" y="-299" type="curve"/>
			<point x="101" y="-490" type="line"/>
			<point x="249" y="-394"/>
			<point x="282" y="-241"/>
			<point x="301" y="-139" type="curve" smooth="yes"/>
			<point x="348" y="111"/>
			<point x="601" y="25"/>
			<point x="822" y="129" type="curve"/>
			<point x="840" y="359" type="line"/>
			<point x="681" y="292" type="line"/>
			<point x="482" y="71"/>
			<point x="235" y="198"/>
			<point x="127" y="-73" type="curve" smooth="yes"/>
			<point x="88" y="-170"/>
			<point x="35" y="-224"/>
		</contour>
		<contour>
			<point x="807" y="270" type="curve"/>
			<point x="840" y="359" type="line"/>
			<point x="643" y="419"/>
			<point x="518" y="470"/>
			<point x="310" y="430" type="curve"/>
			<point x="355" y="195" type="line"/>
			<point x="500" y="281"/>
			<point x="658" y="270"/>
		</contour>
	</outline>
</glyph>
<glyph name="uni062D0649.fina" format="2">
	<advance width="970"/>
	<anchor x="788" y="-228" name="bottom_1"/>
	<anchor x="416" y="-377" name="bottom_2"/>
	<anchor x="445" y="0" name="caret_1"/>
	<anchor x="658" y="519" name="top_1"/>
	<anchor x="201" y="400" name="top_2"/>
	<outline>
		<contour>
			<point x="970" y="0" type="curve"/>
			<point x="990" y="50" type="line"/>
			<point x="970" y="100" type="line"/>
			<point x="907" y="100"/>
			<point x="857" y="119"/>
			<point x="857" y="202" type="curve"/>
			<point x="735" y="202" type="line"/>
			<point x="736" y="68"/>
			<point x="839" y="0"/>
		</contour>
		<component base="uni062D0649"/>
	</outline>
</glyph>
<glyph name="uni0631.fina" format="2">
	<advance width="389"/>
	<anchor x="170" y="-540" name="bottom"/>
	<anchor x="245" y="300" name="top"/>
	<outline>
		<contour>
			<point x="-80" y="-299" type="curve"/>
			<point x="101" y="-490" type="line"/>
			<point x="278" y="-375"/>
			<point x="303" y="-182"/>
			<point x="309" y="-86" type="curve" smooth="yes"/>
			<point x="312" y="-37"/>
			<point x="334" y="0"/>
			<point x="389" y="0" type="curve"/>
			<point x="409" y="50" type="line"/>
			<point x="389" y="100" type="line"/>
			<point x="304" y="100"/>
			<point x="190" y="96"/>
			<point x="142" y="-30" type="curve" smooth="yes"/>
			<point x="95" y="-153"/>
			<point x="51" y="-214"/>
		</contour>
	</outline>
</glyph>
<glyph name="uni0633.medi" format="2">
	<advance width="990"/>
	<anchor x="479" y="-100" name="bottom"/>
	<anchor x="449" y="550" name="top"/>
	<outline>
		<contour>
			<point x="716" y="-11" type="curve" smooth="yes"/>
			<point x="859" y="-11"/>
			<point x="924" y="97"/>
			<point x="924" y="212" type="curve" smooth="yes"/>
			<point x="924" y="310"/>
			<point x="918" y="353"/>
			<point x="910" y="410" type="curve"/>
			<point x="674" y="361" type="line"/>
			<point x="699" y="288"/>
			<point x="718" y="222"/>
			<point x="718" y="171" type="curve" smooth="yes"/>
			<point x="718" y="129"/>
			<point x="711" y="102"/>
			<point x="670" y="102" type="curve" smooth="yes"/>
			<point x="630" y="102"/>
			<point x="611" y="153"/>
			<point x="611" y="252" type="curve"/>
			<point x="519" y="132" type="line"/>
			<point x="532" y="65"/>
			<point x="591" y="-11"/>
		</contour>
		<contour>
			<point x="0" y="100" type="curve"/>
			<point x="0" y="0" type="line"/>
			<point x="138" y="0"/>
			<point x="241" y="64"/>
			<point x="241" y="172" type="curve"/>
			<point x="308" y="202" type="line"/>
			<point x="308" y="265"/>
			<point x="310" y="287"/>
			<point x="317" y="340" type="curve"/>
			<point x="62" y="305" type="line"/>
			<point x="72" y="263"/>
			<point x="73" y="239"/>
			<point x="73" y="202" type="curve" smooth="yes"/>
			<point x="73" y="167"/>
			<point x="57" y="100"/>
		</contour>
		<contour>
			<point x="403" y="-9" type="curve" smooth="yes"/>
			<point x="534" y="-9"/>
			<point x="611" y="100"/>
			<point x="611" y="252" type="curve" smooth="yes"/>
			<point x="611" y="299"/>
			<point x="613" y="317"/>
			<point x="614" y="334" type="curve"/>
			<point x="381" y="304" type="line"/>
			<point x="397" y="249"/>
			<point x="403" y="221"/>
			<point x="403" y="183" type="curve" smooth="yes"/>
			<point x="403" y="145"/>
			<point x="393" y="117"/>
			<point x="362" y="117" type="curve" smooth="yes"/>
			<point x="326" y="117"/>
			<point x="308" y="147"/>
			<point x="308" y="202" type="curve"/>
			<point x="212" y="183" type="line"/>
			<point x="212" y="45"/>
			<point x="303" y="-9"/>
		</contour>
		<contour>
			<point x="990" y="0" type="curve"/>
			<point x="1010" y="50" type="line"/>
			<point x="990" y="100" type="line"/>
			<point x="950" y="100"/>
			<point x="924" y="135"/>
			<point x="924" y="212" type="curve"/>
			<point x="806" y="202" type="line"/>
			<point x="806" y="68"/>
			<point x="869" y="0"/>
		</contour>
	</outline>
</glyph>
<glyph name="uni06330631" format="2">
	<advance width="1290"/>
	<anchor x="839" y="-94" name="bottom_1"/>
	<anchor x="235" y="-540" name="bottom_2"/>
	<anchor x="435" y="0" name="caret_1"/>
	<anchor x="839" y="550" name="top_1"/>
	<anchor x="235" y="450" name="top_2"/>
	<outline>
		<contour>
			<point x="-80" y="-299" type="curve"/>
			<point x="101" y="-490" type="line"/>
			<point x="278" y="-375"/>
			<point x="315" y="-232"/>
			<point x="315" y="21" type="curve" smooth="yes"/>
			<point x="315" y="119"/>
			<point x="343" y="167"/>
			<point x="379" y="167" type="curve" smooth="yes"/>
			<point x="465" y="167"/>
			<point x="391" y="-10"/>
			<point x="681" y="-10" type="curve"/>
			<point x="695" y="49" type="line"/>
			<point x="680" y="100" type="line"/>
			<point x="575" y="100"/>
			<point x="679" y="314"/>
			<point x="468" y="314" type="curve" smooth="yes"/>
			<point x="380" y="314"/>
			<point x="200" y="280"/>
			<point x="157" y="51" type="curve" smooth="yes"/>
			<point x="120" y="-144"/>
			<point x="51" y="-214"/>
		</contour>
		<contour>
			<point x="680" y="100" type="curve"/>
			<point x="681" y="-10" type="line"/>
			<point x="854" y="-10"/>
			<point x="931" y="100"/>
			<point x="931" y="252" type="curve" smooth="yes"/>
			<point x="931" y="299"/>
			<point x="933" y="317"/>
			<point x="934" y="334" type="curve"/>
			<point x="701" y="304" type="line"/>
			<point x="717" y="249"/>
			<point x="721" y="204"/>
			<point x="721" y="166" type="curve" smooth="yes"/>
			<point x="721" y="128"/>
			<point x="711" y="100"/>
		</contour>
		<contour>
			<point x="1036" y="-11" type="curve" smooth="yes"/>
			<point x="1193" y="-11"/>
			<point x="1250" y="93"/>
			<point x="1250" y="231" type="curve" smooth="yes"/>
			<point x="1250" y="293"/>
			<point x="1238" y="361"/>
			<point x="1220" y="430" type="curve"/>
			<point x="984" y="381" type="line"/>
			<point x="1008" y="319"/>
			<point x="1041" y="229"/>
			<point x="1041" y="168" type="curve" smooth="yes"/>
			<point x="1041" y="129"/>
			<point x="1028" y="102"/>
			<point x="990" y="102" type="curve" smooth="yes"/>
			<point x="950" y="102"/>
			<point x="931" y="153"/>
			<point x="931" y="252" type="curve"/>
			<point x="839" y="132" type="line"/>
			<point x="852" y="65"/>
			<point x="911" y="-11"/>
		</contour>
	</outline>
</glyph>
<glyph name="uni06330649.fina" format="2">
	<advance width="1602"/>
	<anchor x="1150" y="-111" name="bottom_1"/>
	<anchor x="416" y="-377" name="bottom_2"/>
	<anchor x="645" y="0" name="caret_1"/>
	<anchor x="1090" y="528" name="top_1"/>
	<anchor x="201" y="400" name="top_2"/>
	<outline>
		<contour>
			<point x="411" y="-310" type="curve" smooth="yes"/>
			<point x="643" y="-310"/>
			<point x="737" y="-156"/>
			<point x="737" y="-30" type="curve" smooth="yes"/>
			<point x="737" y="100"/>
			<point x="633" y="140"/>
			<point x="450" y="140" type="curve"/>
			<point x="352" y="-60" type="line"/>
			<point x="508" y="-36"/>
			<point x="637" y="-44"/>
			<point x="637" y="-91" type="curve" smooth="yes"/>
			<point x="637" y="-126"/>
			<point x="556" y="-162"/>
			<point x="481" y="-162" type="curve" smooth="yes"/>
			<point x="379" y="-162"/>
			<point x="272" y="-119"/>
			<point x="247" y="142" type="curve"/>
			<point x="20" y="52" type="line"/>
			<point x="46" y="-197"/>
			<point x="247" y="-310"/>
		</contour>
		<contour>
			<point x="352" y="-60" type="curve"/>
			<point x="451" y="-16" type="line"/>
			<point x="451" y="163"/>
			<point x="552" y="227"/>
			<point x="648" y="227" type="curve" smooth="yes"/>
			<point x="785" y="227"/>
			<point x="687" y="-9"/>
			<point x="982" y="-9" type="curve"/>
			<point x="1012" y="48" type="line"/>
			<point x="976" y="107" type="line"/>
			<point x="871" y="107"/>
			<point x="997" y="374"/>
			<point x="742" y="374" type="curve" smooth="yes"/>
			<point x="500" y="374"/>
			<point x="352" y="203"/>
		</contour>
		<contour>
			<point x="976" y="107" type="curve"/>
			<point x="982" y="-9" type="line"/>
			<point x="1113" y="-9"/>
			<point x="1223" y="100"/>
			<point x="1223" y="252" type="curve" smooth="yes"/>
			<point x="1223" y="299"/>
			<point x="1225" y="317"/>
			<point x="1226" y="334" type="curve"/>
			<point x="993" y="304" type="line"/>
			<point x="1009" y="249"/>
			<point x="1017" y="202"/>
			<point x="1017" y="164" type="curve" smooth="yes"/>
			<point x="1017" y="126"/>
			<point x="1008" y="107"/>
		</contour>
		<contour>
			<point x="1328" y="-11" type="curve" smooth="yes"/>
			<point x="1471" y="-11"/>
			<point x="1536" y="97"/>
			<point x="1536" y="212" type="curve" smooth="yes"/>
			<point x="1536" y="310"/>
			<point x="1530" y="353"/>
			<point x="1522" y="410" type="curve"/>
			<point x="1286" y="361" type="line"/>
			<point x="1311" y="288"/>
			<point x="1330" y="222"/>
			<point x="1330" y="171" type="curve" smooth="yes"/>
			<point x="1330" y="129"/>
			<point x="1323" y="102"/>
			<point x="1282" y="102" type="curve" smooth="yes"/>
			<point x="1242" y="102"/>
			<point x="1223" y="153"/>
			<point x="1223" y="252" type="curve"/>
			<point x="1131" y="132" type="line"/>
			<point x="1144" y="65"/>
			<point x="1203" y="-11"/>
		</contour>
		<contour>
			<point x="1602" y="0" type="curve"/>
			<point x="1622" y="50" type="line"/>
			<point x="1602" y="100" type="line"/>
			<point x="1562" y="100"/>
			<point x="1536" y="135"/>
			<point x="1536" y="212" type="curve"/>
			<point x="1418" y="202" type="line"/>
			<point x="1418" y="68"/>
			<point x="1481" y="0"/>
		</contour>
	</outline>
</glyph>
<glyph name="uni06330649" format="2">
	<advance width="1585"/>
	<anchor x="1150" y="-111" name="bottom_1"/>
	<anchor x="416" y="-377" name="bottom_2"/>
	<anchor x="745" y="0" name="caret_1"/>
	<anchor x="1090" y="536" name="top_1"/>
	<anchor x="201" y="400" name="top_2"/>
	<outline>
		<contour>
			<point x="411" y="-310" type="curve" smooth="yes"/>
			<point x="643" y="-310"/>
			<point x="737" y="-156"/>
			<point x="737" y="-30" type="curve" smooth="yes"/>
			<point x="737" y="100"/>
			<point x="633" y="140"/>
			<point x="450" y="140" type="curve"/>
			<point x="352" y="-60" type="line"/>
			<point x="508" y="-36"/>
			<point x="637" y="-44"/>
			<point x="637" y="-91" type="curve" smooth="yes"/>
			<point x="637" y="-126"/>
			<point x="556" y="-162"/>
			<point x="481" y="-162" type="curve" smooth="yes"/>
			<point x="379" y="-162"/>
			<point x="272" y="-119"/>
			<point x="247" y="142" type="curve"/>
			<point x="20" y="52" type="line"/>
			<point x="46" y="-197"/>
			<point x="247" y="-310"/>
		</contour>
		<contour>
			<point x="352" y="-60" type="curve"/>
			<point x="451" y="-16" type="line"/>
			<point x="451" y="163"/>
			<point x="552" y="227"/>
			<point x="648" y="227" type="curve" smooth="yes"/>
			<point x="785" y="227"/>
			<point x="687" y="-9"/>
			<point x="982" y="-9" type="curve"/>
			<point x="1012" y="48" type="line"/>
			<point x="976" y="107" type="line"/>
			<point x="861" y="107"/>
			<point x="987" y="374"/>
			<point x="742" y="374" type="curve" smooth="yes"/>
			<point x="500" y="374"/>
			<point x="352" y="203"/>
		</contour>
		<contour>
			<point x="976" y="107" type="curve"/>
			<point x="982" y="-9" type="line"/>
			<point x="1139" y="-9"/>
			<point x="1226" y="100"/>
			<point x="1226" y="252" type="curve" smooth="yes"/>
			<point x="1226" y="299"/>
			<point x="1228" y="317"/>
			<point x="1229" y="334" type="curve"/>
			<point x="996" y="304" type="line"/>
			<point x="1012" y="249"/>
			<point x="1018" y="212"/>
			<point x="1018" y="174" type="curve" smooth="yes"/>
			<point x="1018" y="136"/>
			<point x="1007" y="107"/>
		</contour>
		<contour>
			<point x="1331" y="-11" type="curve" smooth="yes"/>
			<point x="1488" y="-11"/>
			<point x="1545" y="93"/>
			<point x="1545" y="231" type="curve" smooth="yes"/>
			<point x="1545" y="293"/>
			<point x="1533" y="361"/>
			<point x="1515" y="430" type="curve"/>
			<point x="1279" y="381" type="line"/>
			<point x="1303" y="319"/>
			<point x="1336" y="229"/>
			<point x="1336" y="168" type="curve" smooth="yes"/>
			<point x="1336" y="129"/>
			<point x="1323" y="102"/>
			<point x="1285" y="102" type="curve" smooth="yes"/>
			<point x="1245" y="102"/>
			<point x="1226" y="153"/>
			<point x="1226" y="252" type="curve"/>
			<point x="1134" y="132" type="line"/>
			<point x="1147" y="65"/>
			<point x="1206" y="-11"/>
		</contour>
	</outline>
</glyph>
<glyph name="uni0635.fina" format="2">
	<advance width="1185"/>
	<anchor x="867" y="-100" name="bottom"/>
	<anchor x="926" y="550" name="top"/>
	<outline>
		<contour>
			<point x="306" y="-246" type="curve" smooth="yes"/>
			<point x="625" y="-246"/>
			<point x="659" y="90"/>
			<point x="614" y="344" type="curve"/>
			<point x="351" y="305" type="line"/>
			<point x="435" y="106"/>
			<point x="471" y="-151"/>
			<point x="351" y="-151" type="curve" smooth="yes"/>
			<point x="284" y="-151"/>
			<point x="254" y="-102"/>
			<point x="254" y="-47" type="curve" smooth="yes"/>
			<point x="254" y="8"/>
			<point x="285" y="51"/>
			<point x="334" y="88" type="curve"/>
			<point x="203" y="283" type="line"/>
			<point x="93" y="219"/>
			<point x="40" y="108"/>
			<point x="40" y="4" type="curve" smooth="yes"/>
			<point x="40" y="-161"/>
			<point x="168" y="-246"/>
		</contour>
		<contour>
			<point x="827" y="-10" type="curve" smooth="yes"/>
			<point x="985" y="-10"/>
			<point x="1120" y="87"/>
			<point x="1120" y="241" type="curve" smooth="yes"/>
			<point x="1120" y="341"/>
			<point x="1053" y="410"/>
			<point x="938" y="410" type="curve" smooth="yes"/>
			<point x="819" y="410"/>
			<point x="660" y="305"/>
			<point x="628" y="106" type="curve"/>
			<point x="694" y="68" type="line"/>
			<point x="740" y="207"/>
			<point x="792" y="249"/>
			<point x="840" y="249" type="curve" smooth="yes"/>
			<point x="867" y="249"/>
			<point x="892" y="227"/>
			<point x="892" y="193" type="curve" smooth="yes"/>
			<point x="892" y="155"/>
			<point x="861" y="115"/>
			<point x="796" y="115" type="curve" smooth="yes"/>
			<point x="721" y="115"/>
			<point x="647" y="163"/>
			<point x="614" y="344" type="curve"/>
			<point x="499" y="281" type="line"/>
			<point x="559" y="104"/>
			<point x="634" y="-10"/>
		</contour>
		<contour>
			<point x="1185" y="0" type="curve"/>
			<point x="1205" y="50" type="line"/>
			<point x="1185" y="100" type="line"/>
			<point x="1145" y="100"/>
			<point x="1119" y="125"/>
			<point x="1120" y="241" type="curve"/>
			<point x="1001" y="202" type="line"/>
			<point x="1001" y="68"/>
			<point x="1064" y="0"/>
		</contour>
	</outline>
</glyph>
<glyph name="uni0637.fina" format="2">
	<advance width="710"/>
	<anchor x="307" y="-60" name="bottom"/>
	<anchor x="470" y="550" name="top"/>
	<outline>
		<contour>
			<point x="296" y="-10" type="curve" smooth="yes"/>
			<point x="522" y="-10"/>
			<point x="640" y="61"/>
			<point x="640" y="208" type="curve" smooth="yes"/>
			<point x="640" y="331"/>
			<point x="563" y="410"/>
			<point x="458" y="410" type="curve" smooth="yes"/>
			<point x="339" y="410"/>
			<point x="198" y="292"/>
			<point x="166" y="93" type="curve"/>
			<point x="232" y="68" type="line"/>
			<point x="278" y="207"/>
			<point x="312" y="249"/>
			<point x="360" y="249" type="curve" smooth="yes"/>
			<point x="387" y="249"/>
			<point x="412" y="227"/>
			<point x="412" y="193" type="curve" smooth="yes"/>
			<point x="412" y="155"/>
			<point x="373" y="100"/>
			<point x="251" y="100" type="curve" smooth="yes"/>
			<point x="176" y="100"/>
			<point x="117" y="116"/>
			<point x="56" y="130" type="curve"/>
			<point x="30" y="34" type="line"/>
			<point x="121" y="6"/>
			<point x="244" y="-10"/>
		</contour>
		<contour>
			<point x="107" y="39" type="curve"/>
			<point x="221" y="69" type="line"/>
			<point x="274" y="250"/>
			<point x="320" y="531"/>
			<point x="316" y="757" type="curve"/>
			<point x="60" y="722" type="line"/>
			<point x="100" y="503"/>
			<point x="107" y="287"/>
		</contour>
		<contour>
			<point x="710" y="0" type="curve"/>
			<point x="730" y="50" type="line"/>
			<point x="710" y="100" type="line"/>
			<point x="670" y="100"/>
			<point x="639" y="125"/>
			<point x="640" y="208" type="curve"/>
			<point x="521" y="202" type="line"/>
			<point x="521" y="68"/>
			<point x="589" y="0"/>
		</contour>
	</outline>
</glyph>
<glyph name="uni0637.medi" format="2">
	<advance width="680"/>
	<anchor x="297" y="-60" name="bottom"/>
	<anchor x="450" y="550" name="top"/>
	<outline>
		<contour>
			<point x="0" y="100" type="curve"/>
			<point x="0" y="0" type="line"/>
			<point x="247" y="0"/>
			<point x="610" y="15"/>
			<point x="610" y="208" type="curve" smooth="yes"/>
			<point x="610" y="346"/>
			<point x="533" y="410"/>
			<point x="428" y="410" type="curve" smooth="yes"/>
			<point x="309" y="410"/>
			<point x="170" y="292"/>
			<point x="138" y="93" type="curve"/>
			<point x="204" y="68" type="line"/>
			<point x="250" y="207"/>
			<point x="287" y="249"/>
			<point x="335" y="249" type="curve" smooth="yes"/>
			<point x="362" y="249"/>
			<point x="382" y="227"/>
			<point x="382" y="203" type="curve" smooth="yes"/>
			<point x="382" y="100"/>
			<point x="192" y="100"/>
		</contour>
		<contour>
			<point x="79" y="39" type="curve"/>
			<point x="193" y="69" type="line"/>
			<point x="246" y="250"/>
			<point x="292" y="531"/>
			<point x="288" y="757" type="curve"/>
			<point x="32" y="722" type="line"/>
			<point x="72" y="503"/>
			<point x="79" y="287"/>
		</contour>
		<contour>
			<point x="680" y="0" type="curve"/>
			<point x="700" y="50" type="line"/>
			<point x="680" y="100" type="line"/>
			<point x="640" y="100"/>
			<point x="609" y="125"/>
			<point x="610" y="208" type="curve"/>
			<point x="491" y="202" type="line"/>
			<point x="491" y="68"/>
			<point x="559" y="0"/>
		</contour>
	</outline>
</glyph>
<glyph name="uni0639.init" format="2">
	<advance width="520"/>
	<anchor x="260" y="-100" name="bottom"/>
	<anchor x="260" y="561" name="top"/>
	<outline>
		<contour>
			<point x="329" y="35" type="curve"/>
			<point x="490" y="51" type="line"/>
			<point x="444" y="200" type="line"/>
			<point x="375" y="163"/>
			<point x="297" y="140"/>
			<point x="247" y="140" type="curve" smooth="yes"/>
			<point x="195" y="140"/>
			<point x="161" y="159"/>
			<point x="161" y="191" type="curve" smooth="yes"/>
			<point x="161" y="222"/>
			<point x="194" y="244"/>
			<point x="234" y="244" type="curve" smooth="yes"/>
			<point x="261" y="244"/>
			<point x="292" y="237"/>
			<point x="316" y="220" type="curve"/>
			<point x="447" y="365" type="line"/>
			<point x="403" y="408"/>
			<point x="334" y="430"/>
			<point x="265" y="430" type="curve" smooth="yes"/>
			<point x="152" y="430"/>
			<point x="40" y="371"/>
			<point x="40" y="251" type="curve" smooth="yes"/>
			<point x="40" y="120"/>
			<point x="143" y="35"/>
		</contour>
		<contour>
			<point x="0" y="100" type="curve"/>
			<point x="0" y="0" type="line"/>
			<point x="100" y="0"/>
			<point x="331" y="6"/>
			<point x="490" y="51" type="curve"/>
			<point x="316" y="145" type="line"/>
			<point x="183" y="101"/>
			<point x="93" y="100"/>
		</contour>
	</outline>
</glyph>
<glyph name="uni0639.medi" format="2">
	<advance width="620"/>
	<anchor x="320" y="-100" name="bottom"/>
	<anchor x="320" y="561" name="top"/>
	<outline>
		<contour>
			<point x="0" y="100" type="curve"/>
			<point x="0" y="0" type="line"/>
			<point x="108" y="0"/>
			<point x="568" y="31"/>
			<point x="568" y="266" type="curve" smooth="yes"/>
			<point x="568" y="378"/>
			<point x="479" y="421"/>
			<point x="354" y="421" type="curve" smooth="yes"/>
			<point x="258" y="421"/>
			<point x="153" y="395"/>
			<point x="40" y="347" type="curve"/>
			<point x="99" y="229" type="line"/>
			<point x="163" y="270"/>
			<point x="237" y="294"/>
			<point x="284" y="294" type="curve" smooth="yes"/>
			<point x="338" y="294"/>
			<point x="358" y="271"/>
			<point x="358" y="241" type="curve" smooth="yes"/>
			<point x="358" y="139"/>
			<point x="141" y="100"/>
		</contour>
		<contour>
			<point x="620" y="0" type="curve"/>
			<point x="640" y="50" type="line"/>
			<point x="620" y="100" type="line"/>
			<point x="372" y="100"/>
			<point x="240" y="288"/>
			<point x="40" y="347" type="curve"/>
			<point x="56" y="158" type="line"/>
			<point x="250" y="158"/>
			<point x="357" y="0"/>
		</contour>
	</outline>
</glyph>
<glyph name="uni0643.fina" format="2">
	<advance width="890"/>
	<anchor x="502" y="-107" name="bottom"/>
	<anchor x="534" y="794" name="top"/>
	<outline>
		<contour>
			<point x="502" y="-7" type="curve" smooth="yes"/>
			<point x="634" y="-7"/>
			<point x="721" y="41"/>
			<point x="769" y="113" type="curve"/>
			<point x="818" y="202" type="line"/>
			<point x="818" y="327"/>
			<point x="834" y="501"/>
			<point x="816" y="744" type="curve"/>
			<point x="540" y="702" type="line"/>
			<point x="601" y="503"/>
			<point x="655" y="319"/>
			<point x="655" y="217" type="curve" smooth="yes"/>
			<point x="655" y="120"/>
			<point x="570" y="100"/>
			<point x="505" y="100" type="curve" smooth="yes"/>
			<point x="407" y="100"/>
			<point x="297" y="172"/>
			<point x="250" y="346" type="curve"/>
			<point x="30" y="210" type="line"/>
			<point x="148" y="27"/>
			<point x="341" y="-7"/>
		</contour>
		<contour>
			<point x="459" y="199" type="line"/>
			<point x="526" y="199"/>
			<point x="560" y="264"/>
			<point x="560" y="309" type="curve" smooth="yes"/>
			<point x="560" y="403"/>
			<point x="426" y="333"/>
			<point x="426" y="373" type="curve" smooth="yes"/>
			<point x="426" y="385"/>
			<point x="460" y="406"/>
			<point x="516" y="386" type="curve"/>
			<point x="523" y="449" type="line"/>
			<point x="431" y="459"/>
			<point x="380" y="403"/>
			<point x="380" y="354" type="curve" smooth="yes"/>
			<point x="380" y="271"/>
			<point x="482" y="296"/>
			<point x="525" y="299" type="curve"/>
			<point x="523" y="276"/>
			<point x="453" y="268"/>
			<point x="402" y="270" type="curve"/>
			<point x="399" y="260" type="line"/>
		</contour>
		<contour>
			<point x="890" y="0" type="curve"/>
			<point x="910" y="50" type="line"/>
			<point x="890" y="100" type="line"/>
			<point x="850" y="100"/>
			<point x="818" y="121"/>
			<point x="818" y="202" type="curve"/>
			<point x="706" y="202" type="line"/>
			<point x="706" y="68"/>
			<point x="769" y="0"/>
		</contour>
	</outline>
</glyph>
<glyph name="uni0643.init" format="2">
	<advance width="500"/>
	<anchor x="231" y="-100" name="bottom"/>
	<anchor x="235" y="800" name="top"/>
	<outline>
		<contour>
			<point x="30" y="336" type="curve"/>
			<point x="55" y="305" type="line"/>
			<point x="241" y="386"/>
			<point x="388" y="499"/>
			<point x="490" y="657" type="curve"/>
			<point x="285" y="781" type="line"/>
			<point x="231" y="645"/>
			<point x="120" y="440"/>
		</contour>
		<contour>
			<point x="0" y="100" type="curve"/>
			<point x="0" y="0" type="line"/>
			<point x="110" y="0"/>
			<point x="455" y="0"/>
			<point x="455" y="218" type="curve" smooth="yes"/>
			<point x="455" y="336"/>
			<point x="307" y="420"/>
			<point x="149" y="357" type="curve"/>
			<point x="30" y="336" type="line"/>
			<point x="89" y="232" type="line"/>
			<point x="144" y="291"/>
			<point x="225" y="276"/>
			<point x="225" y="213" type="curve" smooth="yes"/>
			<point x="225" y="114"/>
			<point x="30" y="100"/>
		</contour>
	</outline>
</glyph>
<glyph name="uni0643.medi" format="2">
	<advance width="520"/>
	<anchor x="231" y="-100" name="bottom"/>
	<anchor x="235" y="800" name="top"/>
	<outline>
		<contour>
			<point x="30" y="336" type="curve"/>
			<point x="55" y="305" type="line"/>
			<point x="241" y="386"/>
			<point x="388" y="499"/>
			<point x="490" y="657" type="curve"/>
			<point x="285" y="781" type="line"/>
			<point x="231" y="645"/>
			<point x="120" y="440"/>
		</contour>
		<contour>
			<point x="0" y="100" type="curve"/>
			<point x="0" y="0" type="line"/>
			<point x="84" y="0"/>
			<point x="305" y="0"/>
			<point x="405" y="97" type="curve"/>
			<point x="455" y="202" type="line"/>
			<point x="455" y="336"/>
			<point x="307" y="420"/>
			<point x="149" y="357" type="curve"/>
			<point x="30" y="336" type="line"/>
			<point x="89" y="232" type="line"/>
			<point x="144" y="291"/>
			<point x="225" y="276"/>
			<point x="225" y="213" type="curve" smooth="yes"/>
			<point x="225" y="114"/>
			<point x="30" y="100"/>
		</contour>
		<contour>
			<point x="520" y="0" type="curve"/>
			<point x="540" y="50" type="line"/>
			<point x="520" y="100" type="line"/>
			<point x="488" y="100"/>
			<point x="455" y="125"/>
			<point x="455" y="202" type="curve"/>
			<point x="343" y="202" type="line"/>
			<point x="343" y="68"/>
			<point x="406" y="0"/>
		</contour>
	</outline>
</glyph>
<glyph name="uni06430649.fina" format="2">
	<advance width="850"/>
	<anchor x="667" y="-340" name="bottom_1"/>
	<anchor x="375" y="-387" name="bottom_2"/>
	<anchor x="511" y="0" name="caret_1"/>
	<anchor x="564" y="800" name="top_1"/>
	<anchor x="176" y="400" name="top_2"/>
	<outline>
		<contour>
			<point x="440" y="-310" type="curve" smooth="yes"/>
			<point x="643" y="-310"/>
			<point x="737" y="-188"/>
			<point x="737" y="-83" type="curve" smooth="yes"/>
			<point x="737" y="33"/>
			<point x="637" y="100"/>
			<point x="434" y="100" type="curve"/>
			<point x="402" y="-60" type="line"/>
			<point x="528" y="-36"/>
			<point x="637" y="-36"/>
			<point x="637" y="-80" type="curve" smooth="yes"/>
			<point x="637" y="-121"/>
			<point x="556" y="-162"/>
			<point x="481" y="-162" type="curve" smooth="yes"/>
			<point x="379" y="-162"/>
			<point x="272" y="-119"/>
			<point x="247" y="142" type="curve"/>
			<point x="20" y="52" type="line"/>
			<point x="46" y="-197"/>
			<point x="247" y="-310"/>
		</contour>
		<contour>
			<point x="434" y="100" type="curve"/>
			<point x="434" y="27" type="line"/>
			<point x="490" y="27"/>
			<point x="775" y="40"/>
			<point x="775" y="237" type="curve" smooth="yes"/>
			<point x="775" y="367"/>
			<point x="627" y="420"/>
			<point x="469" y="357" type="curve"/>
			<point x="350" y="336" type="line"/>
			<point x="409" y="232" type="line"/>
			<point x="464" y="291"/>
			<point x="545" y="265"/>
			<point x="545" y="202" type="curve" smooth="yes"/>
			<point x="545" y="121"/>
			<point x="469" y="100"/>
		</contour>
		<contour>
			<point x="850" y="0" type="curve"/>
			<point x="870" y="50" type="line"/>
			<point x="850" y="100" type="line"/>
			<point x="808" y="100"/>
			<point x="775" y="125"/>
			<point x="775" y="237" type="curve"/>
			<point x="673" y="202" type="line"/>
			<point x="673" y="68"/>
			<point x="756" y="0"/>
		</contour>
		<contour>
			<point x="350" y="336" type="curve"/>
			<point x="375" y="305" type="line"/>
			<point x="561" y="386"/>
			<point x="708" y="499"/>
			<point x="810" y="657" type="curve"/>
			<point x="605" y="781" type="line"/>
			<point x="551" y="645"/>
			<point x="440" y="440"/>
		</contour>
	</outline>
</glyph>
<glyph name="uni0644.fina" format="2">
	<advance width="730"/>
	<anchor x="296" y="-296" name="bottom"/>
	<anchor x="366" y="750" name="top"/>
	<outline>
		<contour>
			<point x="296" y="-246" type="curve" smooth="yes"/>
			<point x="559" y="-246"/>
			<point x="653" y="11"/>
			<point x="653" y="247" type="curve" smooth="yes"/>
			<point x="653" y="396"/>
			<point x="643" y="581"/>
			<point x="631" y="744" type="curve"/>
			<point x="355" y="702" type="line"/>
			<point x="416" y="503"/>
			<point x="459" y="247"/>
			<point x="459" y="93" type="curve" smooth="yes"/>
			<point x="459" y="-33"/>
			<point x="431" y="-151"/>
			<point x="332" y="-151" type="curve" smooth="yes"/>
			<point x="274" y="-151"/>
			<point x="235" y="-102"/>
			<point x="235" y="-47" type="curve" smooth="yes"/>
			<point x="235" y="8"/>
			<point x="266" y="71"/>
			<point x="315" y="108" type="curve"/>
			<point x="193" y="283" type="line"/>
			<point x="83" y="219"/>
			<point x="30" y="108"/>
			<point x="30" y="4" type="curve" smooth="yes"/>
			<point x="30" y="-161"/>
			<point x="158" y="-246"/>
		</contour>
		<contour>
			<point x="730" y="0" type="curve"/>
			<point x="750" y="50" type="line"/>
			<point x="730" y="100" type="line"/>
			<point x="670" y="100"/>
			<point x="653" y="157"/>
			<point x="653" y="247" type="curve"/>
			<point x="536" y="216" type="line"/>
			<point x="536" y="77"/>
			<point x="608" y="0"/>
		</contour>
	</outline>
</glyph>
<glyph name="uni0644.medi" format="2">
	<advance width="380"/>
	<anchor x="181" y="-100" name="bottom"/>
	<anchor x="181" y="760" name="top"/>
	<outline>
		<contour>
			<point x="0" y="100" type="curve"/>
			<point x="0" y="0" type="line"/>
			<point x="136" y="0"/>
			<point x="213" y="68"/>
			<point x="244" y="153" type="curve"/>
			<point x="301" y="247" type="line"/>
			<point x="301" y="400"/>
			<point x="313" y="556"/>
			<point x="296" y="741" type="curve"/>
			<point x="45" y="690" type="line"/>
			<point x="80" y="545"/>
			<point x="107" y="337"/>
			<point x="107" y="249" type="curve" smooth="yes"/>
			<point x="107" y="140"/>
			<point x="61" y="100"/>
		</contour>
		<contour>
			<point x="380" y="0" type="curve"/>
			<point x="400" y="50" type="line"/>
			<point x="380" y="100" type="line"/>
			<point x="320" y="100"/>
			<point x="301" y="157"/>
			<point x="301" y="247" type="curve"/>
			<point x="185" y="216" type="line"/>
			<point x="185" y="53"/>
			<point x="258" y="0"/>
		</contour>
	</outline>
</glyph>
<glyph name="uni06440627" format="2">
	<advance width="720"/>
	<anchor x="552" y="-100" name="bottom_1"/>
	<anchor x="190" y="-100" name="bottom_2"/>
	<anchor x="357" y="0" name="caret_1"/>
	<anchor x="544" y="850" name="top_1"/>
	<anchor x="160" y="750" name="top_2"/>
	<outline>
		<contour>
			<point x="328" y="-10" type="curve" smooth="yes"/>
			<point x="443" y="-10"/>
			<point x="575" y="64"/>
			<point x="575" y="161" type="curve" smooth="yes"/>
			<point x="575" y="350"/>
			<point x="284" y="565"/>
			<point x="135" y="677" type="curve"/>
			<point x="20" y="465" type="line"/>
			<point x="241" y="377"/>
			<point x="452" y="256"/>
			<point x="452" y="219" type="curve" smooth="yes"/>
			<point x="452" y="194"/>
			<point x="408" y="170"/>
			<point x="361" y="170" type="curve" smooth="yes"/>
			<point x="337" y="170"/>
			<point x="324" y="183"/>
			<point x="324" y="204" type="curve" smooth="yes"/>
			<point x="324" y="285"/>
			<point x="514" y="458"/>
			<point x="700" y="603" type="curve"/>
			<point x="544" y="814" type="line"/>
			<point x="360" y="560"/>
			<point x="180" y="276"/>
			<point x="180" y="128" type="curve" smooth="yes"/>
			<point x="180" y="44"/>
			<point x="229" y="-10"/>
		</contour>
	</outline>
</glyph>
<glyph name="uni06450631" format="2">
	<advance width="909"/>
	<anchor x="589" y="-100" name="bottom_1"/>
	<anchor x="192" y="-540" name="bottom_2"/>
	<anchor x="381" y="0" name="caret_1"/>
	<anchor x="580" y="550" name="top_1"/>
	<anchor x="192" y="400" name="top_2"/>
	<outline>
		<contour>
			<point x="-80" y="-299" type="curve"/>
			<point x="101" y="-490" type="line"/>
			<point x="278" y="-375"/>
			<point x="309" y="-182"/>
			<point x="309" y="-86" type="curve" smooth="yes"/>
			<point x="309" y="-37"/>
			<point x="315" y="0"/>
			<point x="400" y="0" type="curve" smooth="yes"/>
			<point x="520" y="0"/>
			<point x="581" y="-29"/>
			<point x="718" y="-29" type="curve" smooth="yes"/>
			<point x="793" y="-29"/>
			<point x="869" y="12"/>
			<point x="869" y="124" type="curve" smooth="yes"/>
			<point x="869" y="283"/>
			<point x="740" y="420"/>
			<point x="590" y="420" type="curve" smooth="yes"/>
			<point x="419" y="420"/>
			<point x="375" y="192"/>
			<point x="375" y="57" type="curve"/>
			<point x="487" y="85" type="line"/>
			<point x="487" y="147"/>
			<point x="487" y="219"/>
			<point x="546" y="219" type="curve" smooth="yes"/>
			<point x="580" y="219"/>
			<point x="619" y="186"/>
			<point x="619" y="148" type="curve" smooth="yes"/>
			<point x="619" y="71"/>
			<point x="481" y="107"/>
			<point x="390" y="107" type="curve" smooth="yes"/>
			<point x="261" y="107"/>
			<point x="182" y="115"/>
			<point x="142" y="-30" type="curve"/>
			<point x="102" y="-155"/>
			<point x="51" y="-214"/>
		</contour>
	</outline>
</glyph>
<glyph name="uni0647.fina" format="2">
	<advance width="570"/>
	<anchor x="292" y="-100" name="bottom"/>
	<anchor x="292" y="550" name="top"/>
	<outline>
		<contour>
			<point x="174" y="10" type="curve" smooth="yes"/>
			<point x="293" y="10"/>
			<point x="358" y="131"/>
			<point x="358" y="257" type="curve"/>
			<point x="293" y="254" type="line"/>
			<point x="293" y="211"/>
			<point x="262" y="188"/>
			<point x="236" y="188" type="curve" smooth="yes"/>
			<point x="214" y="188"/>
			<point x="192" y="200"/>
			<point x="192" y="232" type="curve" smooth="yes"/>
			<point x="192" y="277"/>
			<point x="254" y="340"/>
			<point x="381" y="340" type="curve"/>
			<point x="381" y="410" type="line"/>
			<point x="220" y="410"/>
			<point x="30" y="336"/>
			<point x="30" y="152" type="curve" smooth="yes"/>
			<point x="30" y="61"/>
			<point x="97" y="10"/>
		</contour>
		<contour>
			<point x="570" y="0" type="curve"/>
			<point x="590" y="50" type="line"/>
			<point x="570" y="100" type="line"/>
			<point x="514" y="100"/>
			<point x="495" y="160"/>
			<point x="499" y="237" type="curve" smooth="yes"/>
			<point x="503" y="316"/>
			<point x="515" y="375"/>
			<point x="530" y="450" type="curve"/>
			<point x="307" y="432" type="line"/>
			<point x="298" y="370"/>
			<point x="293" y="305"/>
			<point x="293" y="254" type="curve" smooth="yes"/>
			<point x="293" y="90"/>
			<point x="354" y="0"/>
		</contour>
	</outline>
</glyph>
<glyph name="uni0647.medi.salt" format="2">
	<advance width="470"/>
	<anchor x="242" y="-318" name="bottom"/>
	<anchor x="242" y="550" name="top"/>
	<outline>
		<contour>
			<point x="302" y="-268" type="curve"/>
			<point x="378" y="-135" type="line"/>
			<point x="321" y="-61" type="line"/>
			<point x="247" y="-41"/>
			<point x="150" y="-10"/>
			<point x="150" y="137" type="curve" smooth="yes"/>
			<point x="150" y="205"/>
			<point x="179" y="234"/>
			<point x="211" y="234" type="curve" smooth="yes"/>
			<point x="235" y="234"/>
			<point x="250" y="219"/>
			<point x="250" y="195" type="curve" smooth="yes"/>
			<point x="250" y="133"/>
			<point x="143" y="100"/>
			<point x="0" y="100" type="curve"/>
			<point x="0" y="0" type="line"/>
			<point x="212" y="0"/>
			<point x="422" y="85"/>
			<point x="419" y="270" type="curve" smooth="yes"/>
			<point x="418" y="343"/>
			<point x="365" y="420"/>
			<point x="263" y="420" type="curve" smooth="yes"/>
			<point x="136" y="420"/>
			<point x="50" y="297"/>
			<point x="50" y="133" type="curve" smooth="yes"/>
			<point x="50" y="-132"/>
			<point x="205" y="-249"/>
		</contour>
		<contour>
			<point x="273" y="-155" type="curve"/>
			<point x="378" y="-135" type="line"/>
			<point x="359" y="-77"/>
			<point x="378" y="0"/>
			<point x="470" y="0" type="curve"/>
			<point x="490" y="50" type="line"/>
			<point x="470" y="100" type="line"/>
			<point x="320" y="100"/>
			<point x="231" y="-22"/>
		</contour>
	</outline>
</glyph>
<glyph name="uni0648.fina" format="2">
	<advance width="540"/>
	<anchor x="247" y="-450" name="bottom"/>
	<anchor x="247" y="550" name="top"/>
	<outline>
		<contour>
			<point x="433" y="100" type="curve"/>
			<point x="433" y="0" type="line"/>
			<point x="469" y="0"/>
			<point x="504" y="1"/>
			<point x="540" y="1" type="curve"/>
			<point x="560" y="51" type="line"/>
			<point x="540" y="101" type="line"/>
			<point x="504" y="100"/>
			<point x="469" y="100"/>
		</contour>
		<component base="uni0648"/>
	</outline>
</glyph>
<glyph name="uni06490646.fina" format="2">
	<advance width="1000"/>
	<anchor x="807" y="-111" name="bottom_1"/>
	<anchor x="315" y="-360" name="bottom_2"/>
	<anchor x="636" y="0" name="caret_1"/>
	<anchor x="767" y="569" name="top_1"/>
	<anchor x="325" y="495" name="top_2"/>
	<outline>
		<contour>
			<point x="296" y="-246" type="curve" smooth="yes"/>
			<point x="552" y="-246"/>
			<point x="695" y="-28"/>
			<point x="664" y="252" type="curve"/>
			<point x="593" y="198" type="line"/>
			<point x="629" y="214"/>
			<point x="680" y="237"/>
			<point x="709" y="237" type="curve" smooth="yes"/>
			<point x="788" y="237"/>
			<point x="710" y="0"/>
			<point x="1000" y="0" type="curve"/>
			<point x="1020" y="50" type="line"/>
			<point x="1000" y="100" type="line"/>
			<point x="895" y="100"/>
			<point x="1000" y="364"/>
			<point x="777" y="364" type="curve" smooth="yes"/>
			<point x="686" y="364"/>
			<point x="542" y="328"/>
			<point x="423" y="273" type="curve"/>
			<point x="468" y="25"/>
			<point x="458" y="-151"/>
			<point x="332" y="-151" type="curve" smooth="yes"/>
			<point x="274" y="-151"/>
			<point x="235" y="-102"/>
			<point x="235" y="-47" type="curve" smooth="yes"/>
			<point x="235" y="8"/>
			<point x="266" y="71"/>
			<point x="315" y="108" type="curve"/>
			<point x="193" y="283" type="line"/>
			<point x="83" y="219"/>
			<point x="30" y="108"/>
			<point x="30" y="4" type="curve" smooth="yes"/>
			<point x="30" y="-161"/>
			<point x="158" y="-246"/>
		</contour>
		<component base="dotabove-ar" xOffset="286" yOffset="-388"/>
	</outline>
</glyph>
<glyph name="uni0651064C" format="2">
	<advance width="0"/>
	<anchor x="50" y="411" name="_top"/>
	<anchor x="50" y="776" name="top"/>
	<outline>
		<contour>
			<point x="-3" y="453" type="curve" smooth="yes"/>
			<point x="38" y="453"/>
			<point x="63" y="481"/>
			<point x="63" y="512" type="curve"/>
			<point x="43" y="508" type="line"/>
			<point x="48" y="488"/>
			<point x="67" y="472"/>
			<point x="91" y="472" type="curve" smooth="yes"/>
			<point x="160" y="472"/>
			<point x="182" y="535"/>
			<point x="171" y="609" type="curve"/>
			<point x="94" y="596" type="line"/>
			<point x="104" y="572"/>
			<point x="111" y="544"/>
			<point x="111" y="528" type="curve" smooth="yes"/>
			<point x="111" y="517"/>
			<point x="107" y="509"/>
			<point x="96" y="509" type="curve" smooth="yes"/>
			<point x="85" y="509"/>
			<point x="83" y="519"/>
			<point x="83" y="533" type="curve" smooth="yes"/>
			<point x="83" y="544"/>
			<point x="84" y="556"/>
			<point x="85" y="569" type="curve"/>
			<point x="21" y="554" type="line"/>
			<point x="25" y="538"/>
			<point x="30" y="520"/>
			<point x="30" y="507" type="curve" smooth="yes"/>
			<point x="30" y="496"/>
			<point x="26" y="488"/>
			<point x="15" y="488" type="curve" smooth="yes"/>
			<point x="3" y="488"/>
			<point x="0" y="498"/>
			<point x="0" y="512" type="curve" smooth="yes"/>
			<point x="0" y="528"/>
			<point x="4" y="549"/>
			<point x="6" y="567" type="curve"/>
			<point x="-71" y="553" type="line"/>
			<point x="-71" y="489"/>
			<point x="-42" y="453"/>
		</contour>
		<contour>
			<point x="-77" y="605" type="curve"/>
			<point x="1" y="605" type="line"/>
			<point x="-4" y="621"/>
			<point x="-6" y="635"/>
			<point x="-5" y="652" type="curve"/>
			<point x="15" y="626"/>
			<point x="49" y="615"/>
			<point x="77" y="615" type="curve" smooth="yes"/>
			<point x="117" y="615"/>
			<point x="164" y="641"/>
			<point x="164" y="706" type="curve" smooth="yes"/>
			<point x="164" y="759"/>
			<point x="133" y="785"/>
			<point x="96" y="785" type="curve" smooth="yes"/>
			<point x="52" y="785"/>
			<point x="28" y="747"/>
			<point x="28" y="705" type="curve" smooth="yes"/>
			<point x="28" y="677"/>
			<point x="39" y="641"/>
			<point x="62" y="620" type="curve"/>
			<point x="104" y="627" type="line"/>
			<point x="85" y="641"/>
			<point x="68" y="657"/>
			<point x="68" y="680" type="curve" smooth="yes"/>
			<point x="68" y="693"/>
			<point x="76" y="703"/>
			<point x="89" y="703" type="curve" smooth="yes"/>
			<point x="100" y="703"/>
			<point x="108" y="695"/>
			<point x="108" y="684" type="curve" smooth="yes"/>
			<point x="108" y="673"/>
			<point x="101" y="657"/>
			<point x="68" y="657" type="curve" smooth="yes"/>
			<point x="29" y="657"/>
			<point x="7" y="682"/>
			<point x="-4" y="717" type="curve"/>
			<point x="-32" y="723" type="line"/>
			<point x="-61" y="698"/>
			<point x="-74" y="649"/>
		</contour>
	</outline>
</glyph>
<glyph name="uni0651064F" format="2">
	<advance width="0"/>
	<anchor x="50" y="420" name="_top"/>
	<anchor x="50" y="776" name="top"/>
	<outline>
		<contour>
			<point x="-3" y="462" type="curve" smooth="yes"/>
			<point x="38" y="462"/>
			<point x="63" y="490"/>
			<point x="63" y="521" type="curve"/>
			<point x="43" y="517" type="line"/>
			<point x="48" y="497"/>
			<point x="67" y="481"/>
			<point x="91" y="481" type="curve" smooth="yes"/>
			<point x="160" y="481"/>
			<point x="182" y="544"/>
			<point x="171" y="618" type="curve"/>
			<point x="94" y="605" type="line"/>
			<point x="104" y="581"/>
			<point x="111" y="553"/>
			<point x="111" y="537" type="curve" smooth="yes"/>
			<point x="111" y="526"/>
			<point x="107" y="518"/>
			<point x="96" y="518" type="curve" smooth="yes"/>
			<point x="85" y="518"/>
			<point x="83" y="528"/>
			<point x="83" y="542" type="curve" smooth="yes"/>
			<point x="83" y="553"/>
			<point x="84" y="565"/>
			<point x="85" y="578" type="curve"/>
			<point x="21" y="563" type="line"/>
			<point x="25" y="547"/>
			<point x="30" y="529"/>
			<point x="30" y="516" type="curve" smooth="yes"/>
			<point x="30" y="505"/>
			<point x="26" y="497"/>
			<point x="15" y="497" type="curve" smooth="yes"/>
			<point x="3" y="497"/>
			<point x="0" y="507"/>
			<point x="0" y="521" type="curve" smooth="yes"/>
			<point x="0" y="537"/>
			<point x="4" y="558"/>
			<point x="6" y="576" type="curve"/>
			<point x="-71" y="562" type="line"/>
			<point x="-71" y="498"/>
			<point x="-42" y="462"/>
		</contour>
		<contour>
			<point x="-71" y="671" type="curve"/>
			<point x="-71" y="590" type="line"/>
			<point x="12" y="606"/>
			<point x="87" y="624"/>
			<point x="126" y="644" type="curve" smooth="yes"/>
			<point x="159" y="661"/>
			<point x="171" y="697"/>
			<point x="171" y="725" type="curve" smooth="yes"/>
			<point x="171" y="778"/>
			<point x="140" y="804"/>
			<point x="103" y="804" type="curve" smooth="yes"/>
			<point x="59" y="804"/>
			<point x="35" y="766"/>
			<point x="35" y="724" type="curve" smooth="yes"/>
			<point x="35" y="696"/>
			<point x="46" y="660"/>
			<point x="69" y="639" type="curve"/>
			<point x="111" y="646" type="line"/>
			<point x="92" y="660"/>
			<point x="75" y="676"/>
			<point x="75" y="699" type="curve" smooth="yes"/>
			<point x="75" y="712"/>
			<point x="83" y="722"/>
			<point x="96" y="722" type="curve" smooth="yes"/>
			<point x="107" y="722"/>
			<point x="115" y="715"/>
			<point x="115" y="704" type="curve" smooth="yes"/>
			<point x="115" y="693"/>
			<point x="105" y="681"/>
			<point x="70" y="677" type="curve" smooth="yes"/>
			<point x="53" y="675"/>
			<point x="2" y="671"/>
		</contour>
	</outline>
</glyph>
<glyph name="uni0654064E" format="2">
	<advance width="0"/>
	<anchor x="50" y="594" name="_top"/>
	<anchor x="50" y="919" name="top"/>
	<outline>
		<contour>
			<point x="171" y="660" type="curve"/>
			<point x="171" y="741" type="line"/>
			<point x="65" y="705"/>
			<point x="20" y="691"/>
			<point x="-71" y="666" type="curve"/>
			<point x="-71" y="619" type="line"/>
			<point x="16" y="632"/>
			<point x="75" y="642"/>
		</contour>
		<contour>
			<point x="42" y="786" type="curve"/>
			<point x="60" y="780" type="line"/>
			<point x="153" y="782" type="line"/>
			<point x="153" y="833" type="line"/>
			<point x="119" y="818"/>
			<point x="107" y="813"/>
			<point x="72" y="806" type="curve" smooth="yes"/>
			<point x="20" y="796"/>
			<point x="2" y="814"/>
			<point x="2" y="829" type="curve" smooth="yes"/>
			<point x="2" y="844"/>
			<point x="14" y="847"/>
			<point x="28" y="847" type="curve" smooth="yes"/>
			<point x="43" y="847"/>
			<point x="57" y="842"/>
			<point x="70" y="832" type="curve"/>
			<point x="132" y="892" type="line"/>
			<point x="106" y="918"/>
			<point x="72" y="924"/>
			<point x="41" y="924" type="curve" smooth="yes"/>
			<point x="-9" y="924"/>
			<point x="-54" y="899"/>
			<point x="-54" y="855" type="curve" smooth="yes"/>
			<point x="-54" y="818"/>
			<point x="-22" y="786"/>
		</contour>
		<contour>
			<point x="-62" y="778" type="curve"/>
			<point x="-62" y="687" type="line"/>
			<point x="32" y="723"/>
			<point x="72" y="737"/>
			<point x="153" y="762" type="curve"/>
			<point x="153" y="819" type="line"/>
			<point x="76" y="806"/>
			<point x="23" y="796"/>
		</contour>
	</outline>
</glyph>
<glyph name="uni0654064F" format="2">
	<advance width="0"/>
	<anchor x="50" y="556" name="_top"/>
	<anchor x="50" y="963" name="top"/>
	<outline>
		<contour>
			<point x="40" y="639" type="curve"/>
			<point x="58" y="633" type="line"/>
			<point x="151" y="635" type="line"/>
			<point x="151" y="686" type="line"/>
			<point x="117" y="671"/>
			<point x="105" y="666"/>
			<point x="70" y="659" type="curve" smooth="yes"/>
			<point x="18" y="649"/>
			<point x="0" y="667"/>
			<point x="0" y="682" type="curve" smooth="yes"/>
			<point x="0" y="697"/>
			<point x="12" y="700"/>
			<point x="26" y="700" type="curve" smooth="yes"/>
			<point x="41" y="700"/>
			<point x="55" y="695"/>
			<point x="68" y="685" type="curve"/>
			<point x="130" y="745" type="line"/>
			<point x="104" y="771"/>
			<point x="70" y="777"/>
			<point x="39" y="777" type="curve" smooth="yes"/>
			<point x="-11" y="777"/>
			<point x="-56" y="752"/>
			<point x="-56" y="708" type="curve" smooth="yes"/>
			<point x="-56" y="671"/>
			<point x="-24" y="639"/>
		</contour>
		<contour>
			<point x="-64" y="631" type="curve"/>
			<point x="-64" y="540" type="line"/>
			<point x="30" y="576"/>
			<point x="70" y="590"/>
			<point x="151" y="615" type="curve"/>
			<point x="151" y="672" type="line"/>
			<point x="74" y="659"/>
			<point x="21" y="649"/>
		</contour>
		<contour>
			<point x="-71" y="865" type="curve"/>
			<point x="-71" y="784" type="line"/>
			<point x="12" y="800"/>
			<point x="87" y="818"/>
			<point x="126" y="838" type="curve" smooth="yes"/>
			<point x="159" y="855"/>
			<point x="171" y="891"/>
			<point x="171" y="919" type="curve" smooth="yes"/>
			<point x="171" y="972"/>
			<point x="140" y="998"/>
			<point x="103" y="998" type="curve" smooth="yes"/>
			<point x="59" y="998"/>
			<point x="35" y="960"/>
			<point x="35" y="918" type="curve" smooth="yes"/>
			<point x="35" y="890"/>
			<point x="46" y="854"/>
			<point x="69" y="833" type="curve"/>
			<point x="111" y="840" type="line"/>
			<point x="92" y="854"/>
			<point x="75" y="870"/>
			<point x="75" y="893" type="curve" smooth="yes"/>
			<point x="75" y="906"/>
			<point x="83" y="916"/>
			<point x="96" y="916" type="curve" smooth="yes"/>
			<point x="107" y="916"/>
			<point x="115" y="909"/>
			<point x="115" y="898" type="curve" smooth="yes"/>
			<point x="115" y="887"/>
			<point x="105" y="875"/>
			<point x="70" y="871" type="curve" smooth="yes"/>
			<point x="53" y="869"/>
			<point x="2" y="865"/>
		</contour>
	</outline>
</glyph>
<glyph name="uni06540652" format="2">
	<advance width="0"/>
	<anchor x="49" y="359" name="_top"/>
	<anchor x="50" y="794" name="top"/>
	<outline>
		<contour>
			<point x="33" y="395" type="curve" smooth="yes"/>
			<point x="96" y="395"/>
			<point x="152" y="433"/>
			<point x="152" y="495" type="curve" smooth="yes"/>
			<point x="152" y="541"/>
			<point x="117" y="572"/>
			<point x="64" y="572" type="curve" smooth="yes"/>
			<point x="15" y="572"/>
			<point x="-48" y="533"/>
			<point x="-48" y="465" type="curve" smooth="yes"/>
			<point x="-48" y="428"/>
			<point x="-20" y="395"/>
		</contour>
		<contour>
			<point x="27" y="440" type="curve" smooth="yes"/>
			<point x="8" y="440"/>
			<point x="-3" y="448"/>
			<point x="-3" y="464" type="curve" smooth="yes"/>
			<point x="-3" y="480"/>
			<point x="16" y="501"/>
			<point x="39" y="501" type="curve" smooth="yes"/>
			<point x="58" y="501"/>
			<point x="67" y="489"/>
			<point x="67" y="474" type="curve" smooth="yes"/>
			<point x="67" y="459"/>
			<point x="52" y="440"/>
		</contour>
		<contour>
			<point x="48" y="654" type="curve"/>
			<point x="66" y="648" type="line"/>
			<point x="159" y="650" type="line"/>
			<point x="159" y="701" type="line"/>
			<point x="125" y="686"/>
			<point x="113" y="681"/>
			<point x="78" y="674" type="curve" smooth="yes"/>
			<point x="26" y="664"/>
			<point x="8" y="682"/>
			<point x="8" y="697" type="curve" smooth="yes"/>
			<point x="8" y="712"/>
			<point x="20" y="715"/>
			<point x="34" y="715" type="curve" smooth="yes"/>
			<point x="49" y="715"/>
			<point x="63" y="710"/>
			<point x="76" y="700" type="curve"/>
			<point x="138" y="760" type="line"/>
			<point x="112" y="786"/>
			<point x="78" y="792"/>
			<point x="47" y="792" type="curve" smooth="yes"/>
			<point x="-3" y="792"/>
			<point x="-48" y="767"/>
			<point x="-48" y="723" type="curve" smooth="yes"/>
			<point x="-48" y="686"/>
			<point x="-16" y="654"/>
		</contour>
		<contour>
			<point x="-56" y="646" type="curve"/>
			<point x="-56" y="555" type="line"/>
			<point x="38" y="591"/>
			<point x="78" y="605"/>
			<point x="159" y="630" type="curve"/>
			<point x="159" y="687" type="line"/>
			<point x="82" y="674"/>
			<point x="29" y="664"/>
		</contour>
	</outline>
</glyph>
<glyph name="uni06550650" format="2">
	<advance width="0"/>
	<anchor x="50" y="0" name="_bottom"/>
	<anchor x="50" y="-322" name="bottom"/>
	<outline>
		<contour>
			<point x="161" y="-280" type="curve"/>
			<point x="161" y="-199" type="line"/>
			<point x="55" y="-235"/>
			<point x="10" y="-249"/>
			<point x="-81" y="-274" type="curve"/>
			<point x="-81" y="-321" type="line"/>
			<point x="6" y="-308"/>
			<point x="65" y="-298"/>
		</contour>
		<contour>
			<point x="34" y="-159" type="curve"/>
			<point x="52" y="-165" type="line"/>
			<point x="145" y="-163" type="line"/>
			<point x="145" y="-112" type="line"/>
			<point x="111" y="-127"/>
			<point x="99" y="-132"/>
			<point x="64" y="-139" type="curve" smooth="yes"/>
			<point x="12" y="-149"/>
			<point x="-6" y="-131"/>
			<point x="-6" y="-116" type="curve" smooth="yes"/>
			<point x="-6" y="-101"/>
			<point x="6" y="-98"/>
			<point x="20" y="-98" type="curve" smooth="yes"/>
			<point x="35" y="-98"/>
			<point x="49" y="-103"/>
			<point x="62" y="-113" type="curve"/>
			<point x="124" y="-53" type="line"/>
			<point x="98" y="-27"/>
			<point x="64" y="-21"/>
			<point x="33" y="-21" type="curve" smooth="yes"/>
			<point x="-17" y="-21"/>
			<point x="-62" y="-46"/>
			<point x="-62" y="-90" type="curve" smooth="yes"/>
			<point x="-62" y="-127"/>
			<point x="-30" y="-159"/>
		</contour>
		<contour>
			<point x="-70" y="-167" type="curve"/>
			<point x="-70" y="-258" type="line"/>
			<point x="24" y="-222"/>
			<point x="64" y="-208"/>
			<point x="145" y="-183" type="curve"/>
			<point x="145" y="-126" type="line"/>
			<point x="68" y="-139"/>
			<point x="15" y="-149"/>
		</contour>
	</outline>
</glyph>
<glyph name="uni066D.salt" format="2">
	<advance width="695"/>
	<outline>
		<contour>
			<point x="402" y="109" type="curve" smooth="yes"/>
			<point x="397" y="246"/>
			<point x="337" y="319"/>
			<point x="444" y="460" type="curve"/>
			<point x="350" y="481" type="line" smooth="yes"/>
			<point x="320" y="488"/>
			<point x="290" y="468"/>
			<point x="292" y="435" type="curve" smooth="yes"/>
			<point x="293" y="292"/>
			<point x="349" y="228"/>
			<point x="251" y="83" type="curve"/>
			<point x="344" y="63" type="line" smooth="yes"/>
			<point x="375" y="56"/>
			<point x="403" y="76"/>
		</contour>
	</outline>
</glyph>
<glyph name="uni066E.init" format="2">
	<advance width="350"/>
	<anchor x="175" y="-75" name="bottom"/>
	<anchor x="186" y="500" name="top"/>
	<outline>
		<contour>
			<point x="0" y="100" type="curve"/>
			<point x="0" y="0" type="line"/>
			<point x="225" y="0"/>
			<point x="310" y="115"/>
			<point x="310" y="306" type="curve" smooth="yes"/>
			<point x="310" y="345"/>
			<point x="307" y="386"/>
			<point x="300" y="429" type="curve"/>
			<point x="50" y="369" type="line"/>
			<point x="65" y="314"/>
			<point x="82" y="249"/>
			<point x="82" y="197" type="curve" smooth="yes"/>
			<point x="82" y="141"/>
			<point x="63" y="100"/>
		</contour>
	</outline>
</glyph>
<glyph name="uni066E0631.fina" format="2">
	<advance width="680"/>
	<anchor x="521" y="-94" name="bottom_1"/>
	<anchor x="185" y="-540" name="bottom_2"/>
	<anchor x="371" y="0" name="caret_1"/>
	<anchor x="521" y="550" name="top_1"/>
	<anchor x="165" y="450" name="top_2"/>
	<outline>
		<contour>
			<point x="-80" y="-299" type="curve"/>
			<point x="101" y="-490" type="line"/>
			<point x="278" y="-375"/>
			<point x="315" y="-232"/>
			<point x="315" y="21" type="curve" smooth="yes"/>
			<point x="315" y="119"/>
			<point x="343" y="167"/>
			<point x="379" y="167" type="curve" smooth="yes"/>
			<point x="465" y="167"/>
			<point x="390" y="0"/>
			<point x="680" y="0" type="curve"/>
			<point x="700" y="50" type="line"/>
			<point x="680" y="100" type="line"/>
			<point x="575" y="100"/>
			<point x="679" y="314"/>
			<point x="468" y="314" type="curve" smooth="yes"/>
			<point x="380" y="314"/>
			<point x="200" y="280"/>
			<point x="157" y="51" type="curve" smooth="yes"/>
			<point x="120" y="-144"/>
			<point x="51" y="-214"/>
		</contour>
	</outline>
</glyph>
<glyph name="uni066E0631" format="2">
	<advance width="728"/>
	<anchor x="559" y="-100" name="bottom_1"/>
	<anchor x="192" y="-540" name="bottom_2"/>
	<anchor x="381" y="0" name="caret_1"/>
	<anchor x="550" y="550" name="top_1"/>
	<anchor x="192" y="400" name="top_2"/>
	<outline>
		<contour>
			<point x="-80" y="-299" type="curve"/>
			<point x="101" y="-490" type="line"/>
			<point x="278" y="-375"/>
			<point x="309" y="-182"/>
			<point x="309" y="-86" type="curve" smooth="yes"/>
			<point x="309" y="118"/>
			<point x="688" y="-55"/>
			<point x="688" y="336" type="curve" smooth="yes"/>
			<point x="688" y="374"/>
			<point x="687" y="394"/>
			<point x="682" y="430" type="curve"/>
			<point x="432" y="367" type="line"/>
			<point x="449" y="314"/>
			<point x="460" y="279"/>
			<point x="460" y="227" type="curve" smooth="yes"/>
			<point x="460" y="88"/>
			<point x="204" y="165"/>
			<point x="142" y="-30" type="curve" smooth="yes"/>
			<point x="102" y="-155"/>
			<point x="51" y="-214"/>
		</contour>
	</outline>
</glyph>
<glyph name="uni066E0649.fina" format="2">
	<advance width="1050"/>
	<anchor x="859" y="-116" name="bottom_1"/>
	<anchor x="416" y="-377" name="bottom_2"/>
	<anchor x="690" y="0" name="caret_1"/>
	<anchor x="773" y="522" name="top_1"/>
	<anchor x="201" y="400" name="top_2"/>
	<outline>
		<contour>
			<point x="411" y="-310" type="curve" smooth="yes"/>
			<point x="643" y="-310"/>
			<point x="737" y="-156"/>
			<point x="737" y="-30" type="curve" smooth="yes"/>
			<point x="737" y="100"/>
			<point x="633" y="140"/>
			<point x="450" y="140" type="curve"/>
			<point x="352" y="-60" type="line"/>
			<point x="508" y="-36"/>
			<point x="637" y="-44"/>
			<point x="637" y="-91" type="curve" smooth="yes"/>
			<point x="637" y="-126"/>
			<point x="556" y="-162"/>
			<point x="481" y="-162" type="curve" smooth="yes"/>
			<point x="379" y="-162"/>
			<point x="272" y="-119"/>
			<point x="247" y="142" type="curve"/>
			<point x="20" y="52" type="line"/>
			<point x="46" y="-197"/>
			<point x="247" y="-310"/>
		</contour>
		<contour>
			<point x="352" y="-60" type="curve"/>
			<point x="451" y="-16" type="line"/>
			<point x="451" y="163"/>
			<point x="603" y="217"/>
			<point x="664" y="217" type="curve" smooth="yes"/>
			<point x="845" y="217"/>
			<point x="730" y="0"/>
			<point x="1050" y="0" type="curve"/>
			<point x="1070" y="50" type="line"/>
			<point x="1050" y="100" type="line"/>
			<point x="931" y="100"/>
			<point x="1035" y="364"/>
			<point x="754" y="364" type="curve" smooth="yes"/>
			<point x="528" y="364"/>
			<point x="352" y="203"/>
		</contour>
	</outline>
</glyph>
<glyph name="uni066F.fina" format="2">
	<advance width="870"/>
	<anchor x="541" y="-270" name="bottom"/>
	<anchor x="591" y="550" name="top"/>
	<outline>
		<contour>
			<point x="361" y="-249" type="curve" smooth="yes"/>
			<point x="576" y="-249"/>
			<point x="820" y="-116"/>
			<point x="820" y="159" type="curve" smooth="yes"/>
			<point x="820" y="314"/>
			<point x="730" y="402"/>
			<point x="596" y="402" type="curve" smooth="yes"/>
			<point x="436" y="402"/>
			<point x="350" y="304"/>
			<point x="350" y="205" type="curve" smooth="yes"/>
			<point x="350" y="103"/>
			<point x="441" y="0"/>
			<point x="635" y="0" type="curve" smooth="yes"/>
			<point x="870" y="0" type="line"/>
			<point x="890" y="50" type="line"/>
			<point x="870" y="100" type="line"/>
			<point x="647" y="100" type="line" smooth="yes"/>
			<point x="520" y="100"/>
			<point x="474" y="149"/>
			<point x="474" y="192" type="curve" smooth="yes"/>
			<point x="474" y="223"/>
			<point x="500" y="251"/>
			<point x="537" y="251" type="curve" smooth="yes"/>
			<point x="573" y="251"/>
			<point x="600" y="220"/>
			<point x="600" y="168" type="curve" smooth="yes"/>
			<point x="600" y="-45"/>
			<point x="454" y="-149"/>
			<point x="348" y="-149" type="curve" smooth="yes"/>
			<point x="283" y="-149"/>
			<point x="235" y="-114"/>
			<point x="235" y="-46" type="curve" smooth="yes"/>
			<point x="235" y="9"/>
			<point x="266" y="52"/>
			<point x="315" y="89" type="curve"/>
			<point x="193" y="263" type="line"/>
			<point x="83" y="199"/>
			<point x="40" y="88"/>
			<point x="40" y="9" type="curve" smooth="yes"/>
			<point x="40" y="-171"/>
			<point x="190" y="-249"/>
		</contour>
	</outline>
</glyph>
<glyph name="uni06A1.fina" format="2">
	<advance width="970"/>
	<anchor x="664" y="-75" name="bottom"/>
	<anchor x="708" y="550" name="top"/>
	<outline>
		<contour>
			<point x="482" y="-7" type="curve" smooth="yes"/>
			<point x="708" y="-7"/>
			<point x="920" y="86"/>
			<point x="920" y="255" type="curve" smooth="yes"/>
			<point x="920" y="368"/>
			<point x="831" y="432"/>
			<point x="697" y="432" type="curve" smooth="yes"/>
			<point x="529" y="432"/>
			<point x="450" y="337"/>
			<point x="450" y="251" type="curve" smooth="yes"/>
			<point x="450" y="76"/>
			<point x="743" y="0"/>
			<point x="970" y="0" type="curve"/>
			<point x="990" y="50" type="line"/>
			<point x="970" y="100" type="line"/>
			<point x="743" y="100"/>
			<point x="575" y="174"/>
			<point x="575" y="231" type="curve" smooth="yes"/>
			<point x="575" y="256"/>
			<point x="598" y="280"/>
			<point x="638" y="280" type="curve" smooth="yes"/>
			<point x="674" y="280"/>
			<point x="701" y="262"/>
			<point x="701" y="223" type="curve" smooth="yes"/>
			<point x="701" y="162"/>
			<point x="608" y="100"/>
			<point x="500" y="100" type="curve" smooth="yes"/>
			<point x="387" y="100"/>
			<point x="282" y="177"/>
			<point x="236" y="350" type="curve"/>
			<point x="20" y="220" type="line"/>
			<point x="138" y="37"/>
			<point x="321" y="-7"/>
		</contour>
	</outline>
</glyph>
<glyph name="uni06A10649.fina" format="2">
	<advance width="980"/>
	<anchor x="845" y="-208" name="bottom_1"/>
	<anchor x="439" y="-387" name="bottom_2"/>
	<anchor x="443" y="-352" name="bottomdiacritic02"/>
	<anchor x="543" y="0" name="caret_1"/>
	<anchor x="719" y="565" name="top_1"/>
	<anchor x="201" y="400" name="top_2"/>
	<anchor x="714" y="472" name="topdiacritic"/>
	<anchor x="208" y="155" name="topdiacritic02"/>
	<outline>
		<contour>
			<point x="440" y="-310" type="curve" smooth="yes"/>
			<point x="643" y="-310"/>
			<point x="737" y="-188"/>
			<point x="737" y="-83" type="curve" smooth="yes"/>
			<point x="737" y="33"/>
			<point x="637" y="100"/>
			<point x="434" y="100" type="curve"/>
			<point x="402" y="-60" type="line"/>
			<point x="528" y="-36"/>
			<point x="637" y="-36"/>
			<point x="637" y="-80" type="curve" smooth="yes"/>
			<point x="637" y="-121"/>
			<point x="556" y="-162"/>
			<point x="481" y="-162" type="curve" smooth="yes"/>
			<point x="379" y="-162"/>
			<point x="272" y="-119"/>
			<point x="247" y="142" type="curve"/>
			<point x="20" y="52" type="line"/>
			<point x="46" y="-197"/>
			<point x="247" y="-310"/>
		</contour>
		<contour>
			<point x="434" y="100" type="curve"/>
			<point x="427" y="0" type="line"/>
			<point x="718" y="0"/>
			<point x="938" y="86"/>
			<point x="938" y="255" type="curve" smooth="yes"/>
			<point x="938" y="368"/>
			<point x="848" y="432"/>
			<point x="714" y="432" type="curve" smooth="yes"/>
			<point x="546" y="432"/>
			<point x="467" y="337"/>
			<point x="467" y="251" type="curve" smooth="yes"/>
			<point x="467" y="76"/>
			<point x="753" y="0"/>
			<point x="980" y="0" type="curve"/>
			<point x="1000" y="50" type="line"/>
			<point x="980" y="100" type="line"/>
			<point x="753" y="100"/>
			<point x="592" y="174"/>
			<point x="592" y="231" type="curve" smooth="yes"/>
			<point x="592" y="256"/>
			<point x="615" y="280"/>
			<point x="655" y="280" type="curve" smooth="yes"/>
			<point x="691" y="280"/>
			<point x="718" y="262"/>
			<point x="718" y="233" type="curve" smooth="yes"/>
			<point x="718" y="169"/>
			<point x="597" y="100"/>
		</contour>
	</outline>
</glyph>
<glyph name="uni06A10649" format="2">
	<advance width="970"/>
	<anchor x="781" y="-300" name="bottom_1"/>
	<anchor x="439" y="-387" name="bottom_2"/>
	<anchor x="554" y="0" name="caret_1"/>
	<anchor x="711" y="553" name="top_1"/>
	<anchor x="201" y="400" name="top_2"/>
	<outline>
		<contour>
			<point x="434" y="100" type="curve"/>
			<point x="502" y="0" type="line"/>
			<point x="772" y="0"/>
			<point x="930" y="107"/>
			<point x="930" y="239" type="curve" smooth="yes"/>
			<point x="930" y="359"/>
			<point x="822" y="422"/>
			<point x="707" y="422" type="curve" smooth="yes"/>
			<point x="556" y="422"/>
			<point x="488" y="327"/>
			<point x="488" y="241" type="curve" smooth="yes"/>
			<point x="488" y="149"/>
			<point x="545" y="93"/>
			<point x="620" y="55" type="curve"/>
			<point x="688" y="115" type="line"/>
			<point x="632" y="132"/>
			<point x="579" y="163"/>
			<point x="579" y="205" type="curve" smooth="yes"/>
			<point x="579" y="241"/>
			<point x="615" y="260"/>
			<point x="647" y="260" type="curve" smooth="yes"/>
			<point x="675" y="260"/>
			<point x="700" y="244"/>
			<point x="700" y="211" type="curve" smooth="yes"/>
			<point x="700" y="149"/>
			<point x="626" y="100"/>
		</contour>
		<contour>
			<point x="440" y="-310" type="curve" smooth="yes"/>
			<point x="643" y="-310"/>
			<point x="737" y="-188"/>
			<point x="737" y="-83" type="curve" smooth="yes"/>
			<point x="737" y="33"/>
			<point x="637" y="100"/>
			<point x="434" y="100" type="curve"/>
			<point x="402" y="-60" type="line"/>
			<point x="528" y="-36"/>
			<point x="637" y="-36"/>
			<point x="637" y="-80" type="curve" smooth="yes"/>
			<point x="637" y="-121"/>
			<point x="556" y="-162"/>
			<point x="481" y="-162" type="curve" smooth="yes"/>
			<point x="379" y="-162"/>
			<point x="272" y="-119"/>
			<point x="247" y="142" type="curve"/>
			<point x="20" y="52" type="line"/>
			<point x="46" y="-197"/>
			<point x="247" y="-310"/>
		</contour>
	</outline>
</glyph>
<glyph name="uni06A9.fina" format="2">
	<advance width="900"/>
	<anchor x="563" y="-100" name="bottom"/>
	<anchor x="567" y="800" name="top"/>
	<outline>
		<contour>
			<point x="483" y="-7" type="curve" smooth="yes"/>
			<point x="574" y="-7"/>
			<point x="712" y="10"/>
			<point x="786" y="88" type="curve"/>
			<point x="835" y="202" type="line"/>
			<point x="835" y="336"/>
			<point x="687" y="420"/>
			<point x="529" y="357" type="curve"/>
			<point x="410" y="336" type="line"/>
			<point x="469" y="232" type="line"/>
			<point x="534" y="301"/>
			<point x="605" y="262"/>
			<point x="605" y="198" type="curve" smooth="yes"/>
			<point x="605" y="130"/>
			<point x="544" y="100"/>
			<point x="488" y="100" type="curve" smooth="yes"/>
			<point x="389" y="100"/>
			<point x="282" y="177"/>
			<point x="236" y="350" type="curve"/>
			<point x="20" y="220" type="line"/>
			<point x="138" y="37"/>
			<point x="323" y="-7"/>
		</contour>
		<contour>
			<point x="900" y="0" type="curve"/>
			<point x="920" y="50" type="line"/>
			<point x="900" y="100" type="line"/>
			<point x="868" y="100"/>
			<point x="835" y="125"/>
			<point x="835" y="202" type="curve"/>
			<point x="723" y="202" type="line"/>
			<point x="723" y="68"/>
			<point x="786" y="0"/>
		</contour>
		<contour>
			<point x="410" y="336" type="curve"/>
			<point x="435" y="305" type="line"/>
			<point x="621" y="386"/>
			<point x="768" y="499"/>
			<point x="870" y="657" type="curve"/>
			<point x="665" y="781" type="line"/>
			<point x="611" y="645"/>
			<point x="500" y="440"/>
		</contour>
	</outline>
</glyph>
<glyph name="uni06BE.medi" format="2">
	<advance width="590"/>
	<anchor x="263" y="-100" name="bottom"/>
	<anchor x="266" y="550" name="top"/>
	<outline>
		<contour>
			<point x="329" y="-29" type="curve" smooth="yes"/>
			<point x="435" y="-29"/>
			<point x="520" y="31"/>
			<point x="520" y="166" type="curve" smooth="yes"/>
			<point x="520" y="329"/>
			<point x="338" y="420"/>
			<point x="177" y="487" type="curve"/>
			<point x="42" y="296" type="line"/>
			<point x="240" y="263"/>
			<point x="372" y="225"/>
			<point x="372" y="143" type="curve" smooth="yes"/>
			<point x="372" y="100"/>
			<point x="344" y="65"/>
			<point x="273" y="65" type="curve" smooth="yes"/>
			<point x="177" y="65"/>
			<point x="118" y="133"/>
			<point x="118" y="201" type="curve" smooth="yes"/>
			<point x="118" y="244"/>
			<point x="137" y="266"/>
			<point x="163" y="266" type="curve" smooth="yes"/>
			<point x="188" y="266"/>
			<point x="204" y="244"/>
			<point x="204" y="205" type="curve" smooth="yes"/>
			<point x="204" y="118"/>
			<point x="95" y="100"/>
			<point x="0" y="100" type="curve"/>
			<point x="0" y="0" type="line"/>
			<point x="173" y="0"/>
			<point x="307" y="82"/>
			<point x="307" y="195" type="curve" smooth="yes"/>
			<point x="307" y="277"/>
			<point x="259" y="339"/>
			<point x="173" y="339" type="curve" smooth="yes"/>
			<point x="114" y="339"/>
			<point x="42" y="291"/>
			<point x="42" y="195" type="curve" smooth="yes"/>
			<point x="42" y="82"/>
			<point x="149" y="-29"/>
		</contour>
		<contour>
			<point x="590" y="0" type="curve"/>
			<point x="610" y="50" type="line"/>
			<point x="590" y="100" type="line"/>
			<point x="554" y="100"/>
			<point x="520" y="107"/>
			<point x="520" y="166" type="curve"/>
			<point x="469" y="202" type="line"/>
			<point x="403" y="202" type="line"/>
			<point x="403" y="68"/>
			<point x="469" y="0"/>
		</contour>
	</outline>
</glyph>
<glyph name="uni06C1.fina" format="2">
	<advance width="600"/>
	<anchor x="342" y="-100" name="bottom"/>
	<anchor x="342" y="550" name="top"/>
	<outline>
		<contour>
			<point x="20" y="84" type="curve"/>
			<point x="149" y="-25" type="line"/>
			<point x="206" y="93"/>
			<point x="203" y="235"/>
			<point x="275" y="235" type="curve" smooth="yes"/>
			<point x="345" y="235"/>
			<point x="227" y="0"/>
			<point x="600" y="0" type="curve"/>
			<point x="620" y="50" type="line"/>
			<point x="600" y="100" type="line"/>
			<point x="475" y="100"/>
			<point x="579" y="386"/>
			<point x="368" y="386" type="curve" smooth="yes"/>
			<point x="227" y="386"/>
			<point x="126" y="235"/>
		</contour>
	</outline>
</glyph>
<glyph name="uni06C1.medi" format="2">
	<advance width="450"/>
	<anchor x="222" y="-591" name="bottom"/>
	<anchor x="222" y="450" name="top"/>
	<outline>
		<contour>
			<point x="302" y="-268" type="curve"/>
			<point x="378" y="-135" type="line"/>
			<point x="321" y="-61" type="line"/>
			<point x="247" y="-41"/>
			<point x="150" y="6"/>
			<point x="150" y="81" type="curve" smooth="yes"/>
			<point x="150" y="145"/>
			<point x="194" y="174"/>
			<point x="279" y="250" type="curve"/>
			<point x="122" y="341" type="line"/>
			<point x="87" y="249"/>
			<point x="75" y="175"/>
			<point x="52" y="135" type="curve" smooth="yes"/>
			<point x="40" y="112"/>
			<point x="29" y="100"/>
			<point x="0" y="100" type="curve"/>
			<point x="0" y="0" type="line"/>
			<point x="62" y="0"/>
			<point x="87" y="30"/>
			<point x="99" y="66" type="curve"/>
			<point x="53" y="66" type="line"/>
			<point x="53" y="-152"/>
			<point x="214" y="-251"/>
		</contour>
		<contour>
			<point x="273" y="-155" type="curve"/>
			<point x="378" y="-135" type="line"/>
			<point x="359" y="-77"/>
			<point x="358" y="0"/>
			<point x="450" y="0" type="curve"/>
			<point x="470" y="50" type="line"/>
			<point x="450" y="100" type="line"/>
			<point x="300" y="100"/>
			<point x="231" y="-22"/>
		</contour>
		<contour>
			<point x="354" y="-516" type="curve"/>
			<point x="311" y="-358" type="line"/>
			<point x="271" y="-371"/>
			<point x="242" y="-371"/>
			<point x="227" y="-356" type="curve" smooth="yes"/>
			<point x="213" y="-342"/>
			<point x="211" y="-317"/>
			<point x="221" y="-279" type="curve"/>
			<point x="157" y="-253" type="line"/>
			<point x="112" y="-388"/>
			<point x="119" y="-479"/>
			<point x="169" y="-518" type="curve" smooth="yes"/>
			<point x="207" y="-549"/>
			<point x="270" y="-549"/>
		</contour>
	</outline>
</glyph>
<glyph name="uni06CE.medi" format="2">
	<advance width="380"/>
	<anchor x="182" y="-263" name="bottom"/>
	<anchor x="182" y="650" name="top"/>
	<outline>
		<contour>
			<point x="0" y="100" type="curve"/>
			<point x="0" y="0" type="line"/>
			<point x="242" y="0"/>
			<point x="345" y="83"/>
			<point x="320" y="340" type="curve"/>
			<point x="52" y="305" type="line"/>
			<point x="91" y="173"/>
			<point x="65" y="100"/>
		</contour>
		<component base="caron.ar" xOffset="36" yOffset="-169"/>
		<component base="twodotshorizontalbelow-ar" xOffset="138" yOffset="-41"/>
	</outline>
</glyph>
<glyph name="uni06D2.fina" format="2">
	<advance width="640"/>
	<anchor x="329" y="-336" name="bottom"/>
	<anchor x="329" y="300" name="top"/>
	<outline>
		<contour>
			<point x="189" y="-286" type="curve" smooth="yes"/>
			<point x="276" y="-286"/>
			<point x="412" y="-257"/>
			<point x="541" y="-266" type="curve"/>
			<point x="569" y="-66" type="line"/>
			<point x="435" y="-66"/>
			<point x="362" y="-153"/>
			<point x="307" y="-153" type="curve" smooth="yes"/>
			<point x="280" y="-153"/>
			<point x="270" y="-138"/>
			<point x="270" y="-120" type="curve" smooth="yes"/>
			<point x="270" y="-62"/>
			<point x="390" y="0"/>
			<point x="640" y="0" type="curve"/>
			<point x="660" y="50" type="line"/>
			<point x="640" y="100" type="line"/>
			<point x="527" y="100"/>
			<point x="457" y="111"/>
			<point x="359" y="111" type="curve" smooth="yes"/>
			<point x="164" y="111"/>
			<point x="20" y="-8"/>
			<point x="20" y="-151" type="curve" smooth="yes"/>
			<point x="20" y="-214"/>
			<point x="66" y="-286"/>
		</contour>
	</outline>
</glyph>
